<svg xmlns="http://www.w3.org/2000/svg" xmlns:xlink="http://www.w3.org/1999/xlink" width="100" zoomAndPan="magnify" viewBox="0 0 75 74.999997" height="100" preserveAspectRatio="xMidYMid meet" version="1.0"><defs><clipPath id="a42bc5c26f"><path d="M 22.75 4.363281 L 57.992188 4.363281 L 57.992188 69.082031 L 22.75 69.082031 Z M 22.75 4.363281 " clip-rule="nonzero"/></clipPath><clipPath id="8b0a6a4add"><path d="M 16.785156 8.730469 L 57.992188 8.730469 L 57.992188 71.996094 L 16.785156 71.996094 Z M 16.785156 8.730469 " clip-rule="nonzero"/></clipPath><clipPath id="11c903b3f6"><path d="M 27.84375 8.730469 L 53.066406 8.730469 L 53.066406 71.996094 L 27.84375 71.996094 Z M 27.84375 8.730469 " clip-rule="nonzero"/></clipPath><clipPath id="7a7f71f84c"><path d="M 16.761719 8 L 57 8 L 57 72 L 16.761719 72 Z M 16.761719 8 " clip-rule="nonzero"/></clipPath></defs><rect x="-7.5" width="90" fill="#ffffff" y="-7.5" height="89.999996" fill-opacity="1"/><path fill="#fffaec" d="M 40.695312 0.746094 L 44.726562 4.386719 C 44.574219 4.390625 44.417969 4.402344 44.257812 4.425781 C 44.171875 4.433594 44.078125 4.449219 43.980469 4.46875 C 43.585938 4.546875 43.195312 4.675781 42.808594 4.84375 C 42.445312 5 42.148438 5.167969 41.914062 5.355469 L 38.828125 3.128906 C 39.296875 2.234375 39.878906 1.476562 40.566406 0.847656 C 40.613281 0.808594 40.65625 0.777344 40.695312 0.746094 Z M 33.402344 8.050781 L 30.023438 8.183594 C 29.863281 7.296875 29.851562 6.445312 29.988281 5.625 C 30 5.578125 30.011719 5.527344 30.023438 5.480469 L 34.835938 5.808594 C 34.738281 5.890625 34.640625 5.992188 34.542969 6.101562 C 34.484375 6.160156 34.429688 6.21875 34.375 6.28125 C 34.132812 6.554688 33.921875 6.859375 33.746094 7.191406 C 33.582031 7.5 33.46875 7.789062 33.402344 8.050781 Z M 50.757812 11.332031 L 54.542969 14.347656 C 54.523438 14.390625 54.5 14.433594 54.472656 14.476562 C 54.027344 15.179688 53.449219 15.804688 52.734375 16.347656 L 50.324219 13.953125 C 50.457031 13.722656 50.566406 13.4375 50.648438 13.09375 C 50.738281 12.730469 50.785156 12.367188 50.792969 12.003906 C 50.796875 11.917969 50.800781 11.828125 50.800781 11.746094 C 50.796875 11.605469 50.78125 11.46875 50.757812 11.332031 " fill-opacity="1" fill-rule="evenodd"/><path fill="#fef2cb" d="M 25.875 48.652344 L 26.8125 48.753906 L 27.910156 69.605469 L 24.460938 68.535156 L 23.015625 48.34375 L 25.683594 48.632812 Z M 47.476562 6.863281 C 47.628906 6.195312 47.535156 5.679688 47.207031 5.308594 C 46.597656 4.636719 45.769531 4.328125 44.726562 4.386719 L 40.695312 0.746094 C 41.375 0.175781 42.097656 0 42.859375 0.210938 C 43.914062 0.5 45.230469 1.527344 46.8125 3.285156 C 47.375 3.910156 47.6875 4.445312 47.753906 4.882812 C 47.769531 5.011719 47.773438 5.214844 47.761719 5.492188 C 47.753906 5.777344 47.660156 6.230469 47.476562 6.863281 Z M 34.835938 5.808594 L 30.023438 5.480469 C 30.191406 4.710938 30.601562 4.1875 31.253906 3.910156 C 32.152344 3.539062 33.632812 3.535156 35.703125 3.898438 C 36.441406 4.027344 36.953125 4.226562 37.238281 4.496094 C 37.316406 4.582031 37.429688 4.722656 37.582031 4.917969 C 37.679688 5.054688 37.796875 5.269531 37.933594 5.570312 C 38.097656 4.792969 38.363281 4.042969 38.722656 3.324219 C 38.753906 3.253906 38.789062 3.191406 38.828125 3.128906 L 41.914062 5.355469 C 41.863281 5.398438 41.816406 5.433594 41.773438 5.46875 C 41.328125 5.875 41.023438 6.34375 40.863281 6.875 C 40.730469 7.28125 40.671875 7.796875 40.683594 8.410156 C 40.699219 8.714844 40.722656 9.160156 40.757812 9.75 L 38.671875 10.507812 C 38.6875 9.808594 38.679688 9.15625 38.644531 8.542969 C 38.570312 7.472656 38.40625 6.652344 38.144531 6.078125 C 38.144531 6.066406 38.136719 6.050781 38.125 6.03125 C 38.058594 5.894531 37.988281 5.769531 37.914062 5.660156 C 37.6875 5.347656 37.414062 5.164062 37.09375 5.109375 C 36.292969 4.96875 35.539062 5.199219 34.835938 5.808594 Z M 30.421875 13.484375 L 31.976562 12.925781 L 32.484375 12.734375 C 31.933594 12.253906 31.453125 11.660156 31.046875 10.957031 C 30.570312 10.152344 30.238281 9.292969 30.050781 8.375 C 30.042969 8.308594 30.035156 8.246094 30.023438 8.183594 L 33.402344 8.050781 C 33.386719 8.105469 33.375 8.15625 33.367188 8.207031 C 33.273438 8.738281 33.316406 9.230469 33.496094 9.691406 C 33.625 10.050781 33.867188 10.445312 34.21875 10.867188 C 34.398438 11.085938 34.675781 11.402344 35.050781 11.820312 L 34.574219 11.988281 L 33.246094 17.4375 L 29.121094 18.628906 Z M 49.558594 25.910156 L 49.003906 30.300781 L 45.710938 30.878906 L 45.910156 28.242188 L 47.984375 28.320312 L 46.039062 26.605469 L 46.039062 26.597656 Z M 51.355469 17.21875 L 49.863281 15.640625 L 49.292969 15.039062 C 49.671875 14.8125 49.992188 14.5 50.246094 14.097656 C 50.277344 14.054688 50.300781 14.007812 50.324219 13.953125 L 52.734375 16.347656 C 52.683594 16.386719 52.636719 16.425781 52.585938 16.464844 C 52.191406 16.753906 51.78125 17.003906 51.355469 17.21875 Z M 54.542969 14.347656 L 50.757812 11.332031 C 50.652344 10.40625 50.257812 9.722656 49.582031 9.285156 C 49.207031 9.050781 48.742188 9.046875 48.1875 9.273438 C 48.714844 9.023438 49.097656 8.871094 49.339844 8.820312 C 49.582031 8.773438 49.757812 8.746094 49.871094 8.742188 C 50.269531 8.734375 50.785156 8.929688 51.417969 9.332031 C 53.191406 10.464844 54.28125 11.472656 54.695312 12.359375 C 54.984375 13 54.9375 13.664062 54.542969 14.347656 " fill-opacity="1" fill-rule="evenodd"/><g clip-path="url(#a42bc5c26f)"><path fill="#edcfaa" d="M 26.8125 48.753906 L 25.875 48.652344 L 25.613281 46.46875 L 27.445312 46.222656 C 27.617188 46.605469 27.785156 47.003906 27.941406 47.410156 C 28.003906 47.09375 28.171875 46.878906 28.441406 46.765625 C 28.355469 46.546875 28.269531 46.332031 28.183594 46.121094 L 29.527344 45.9375 L 29.871094 49.085938 L 27.019531 48.777344 Z M 43.074219 69.066406 L 42.695312 48.1875 L 43.625 48.019531 L 43.78125 47.988281 L 46.449219 47.503906 L 46.4375 67.75 Z M 38.671875 10.507812 L 36.882812 11.152344 C 36.820312 10.523438 36.730469 9.980469 36.609375 9.527344 C 36.46875 8.933594 36.257812 8.40625 35.984375 7.945312 C 35.589844 7.253906 35.050781 6.699219 34.375 6.28125 C 34.429688 6.21875 34.484375 6.160156 34.542969 6.101562 C 34.640625 5.992188 34.738281 5.890625 34.835938 5.808594 C 35.539062 5.199219 36.292969 4.96875 37.09375 5.109375 C 37.414062 5.164062 37.6875 5.347656 37.914062 5.660156 C 37.988281 5.769531 38.058594 5.894531 38.125 6.03125 C 38.136719 6.050781 38.144531 6.066406 38.144531 6.078125 C 38.40625 6.652344 38.570312 7.472656 38.644531 8.542969 C 38.679688 9.15625 38.6875 9.808594 38.671875 10.507812 Z M 47.148438 12.757812 L 45.691406 11.214844 C 45.835938 11.066406 45.980469 10.921875 46.125 10.789062 C 46.890625 10.046875 47.5625 9.546875 48.136719 9.296875 C 48.152344 9.292969 48.167969 9.285156 48.1875 9.273438 C 48.742188 9.046875 49.207031 9.050781 49.582031 9.285156 C 50.257812 9.722656 50.652344 10.40625 50.757812 11.332031 C 50.78125 11.46875 50.796875 11.605469 50.800781 11.746094 C 50.800781 11.828125 50.796875 11.917969 50.792969 12.003906 C 50.015625 11.851562 49.246094 11.894531 48.488281 12.132812 C 48.039062 12.273438 47.589844 12.480469 47.148438 12.757812 Z M 44.726562 4.386719 C 45.769531 4.328125 46.597656 4.636719 47.207031 5.308594 C 47.535156 5.679688 47.628906 6.195312 47.476562 6.863281 C 47.472656 6.878906 47.46875 6.894531 47.464844 6.914062 C 47.296875 7.601562 46.875 8.441406 46.199219 9.4375 C 45.914062 9.863281 45.597656 10.296875 45.242188 10.742188 L 43.652344 9.058594 C 43.679688 9.007812 43.703125 8.953125 43.726562 8.890625 C 44.011719 8.269531 44.195312 7.660156 44.269531 7.066406 C 44.394531 6.167969 44.296875 5.300781 43.980469 4.46875 C 44.078125 4.449219 44.171875 4.433594 44.257812 4.425781 C 44.417969 4.402344 44.574219 4.390625 44.726562 4.386719 Z M 30.421875 13.484375 L 26.117188 15.039062 C 24.945312 14.257812 23.847656 13.113281 22.820312 11.609375 C 23.882812 12.234375 25.023438 12.601562 26.246094 12.710938 C 25.605469 11.441406 25.675781 10.164062 26.457031 8.886719 C 26.476562 9.015625 26.515625 9.132812 26.574219 9.234375 C 27.859375 11.269531 29.660156 12.5 31.976562 12.925781 Z M 29.238281 25.035156 L 31.714844 21.480469 L 34.5625 23.351562 L 32.988281 27.421875 Z M 55.171875 21.269531 L 52.898438 18.851562 L 51.746094 24.03125 L 48.605469 21.109375 L 49.863281 15.640625 L 51.355469 17.21875 L 52.203125 18.117188 C 53.382812 17.945312 54.488281 17.460938 55.527344 16.65625 C 55.609375 16.582031 55.675781 16.492188 55.726562 16.390625 C 55.996094 17.6875 55.679688 18.765625 54.773438 19.617188 C 55.816406 19.894531 56.867188 19.929688 57.929688 19.734375 C 56.988281 20.417969 56.070312 20.929688 55.171875 21.269531 " fill-opacity="1" fill-rule="evenodd"/></g><g clip-path="url(#8b0a6a4add)"><path fill="#72bbba" d="M 31.304688 47.589844 C 31.304688 47.640625 31.304688 47.691406 31.304688 47.742188 C 31.34375 48.277344 31.382812 48.78125 31.417969 49.253906 L 29.871094 49.085938 L 29.527344 45.9375 L 31.058594 45.730469 C 31.15625 46.34375 31.238281 46.964844 31.304688 47.589844 Z M 23.015625 48.34375 L 16.785156 47.664062 L 25.464844 46.492188 L 25.683594 48.632812 Z M 27.019531 48.777344 L 28.121094 69.675781 L 27.910156 69.605469 L 26.8125 48.753906 Z M 42.515625 48.222656 L 42.894531 69.136719 L 35.582031 71.996094 L 34.824219 50.417969 C 34.824219 50.414062 34.824219 50.410156 34.824219 50.40625 L 34.796875 49.617188 L 34.910156 49.597656 L 37.007812 49.21875 L 37.859375 49.066406 L 39.660156 48.738281 Z M 46.4375 67.75 L 46.449219 47.503906 L 52.613281 46.390625 L 52.488281 65.390625 Z M 43.832031 45.832031 L 43.78125 47.988281 L 43.625 48.019531 L 43.714844 45.828125 Z M 31.769531 45.636719 L 33.289062 45.425781 C 33.296875 45.53125 33.300781 45.636719 33.304688 45.738281 C 33.324219 45.632812 33.347656 45.527344 33.367188 45.417969 L 34.640625 45.246094 L 34.65625 45.761719 C 34.597656 46.089844 34.539062 46.425781 34.484375 46.765625 C 34.34375 47.660156 34.230469 48.589844 34.144531 49.550781 L 32.101562 49.328125 L 31.953125 47.101562 L 31.941406 47.0625 C 31.910156 46.769531 31.851562 46.292969 31.769531 45.636719 Z M 49.863281 15.640625 L 48.605469 21.109375 L 41.953125 14.910156 L 43.410156 8.804688 L 43.652344 9.058594 L 45.242188 10.742188 L 45.691406 11.214844 L 47.148438 12.757812 L 49.292969 15.039062 Z M 22.265625 20.597656 L 27.914062 18.980469 L 31.714844 21.480469 L 29.238281 25.035156 Z M 40.929688 27.867188 L 40 31.882812 L 36.988281 29.964844 C 37.070312 29.902344 37.148438 29.835938 37.226562 29.757812 C 37.660156 29.339844 37.878906 28.824219 37.890625 28.21875 C 37.898438 27.609375 37.695312 27.089844 37.273438 26.65625 C 36.851562 26.226562 36.339844 26.003906 35.738281 25.992188 C 35.132812 25.988281 34.613281 26.195312 34.183594 26.617188 C 33.84375 26.949219 33.632812 27.335938 33.554688 27.78125 L 32.988281 27.421875 L 34.5625 23.351562 L 40.917969 27.527344 L 40.476562 27.824219 Z M 54.507812 26.597656 L 53.035156 25.230469 L 51.746094 24.03125 L 52.898438 18.851562 L 55.171875 21.269531 L 57.992188 24.257812 L 56.976562 28.890625 L 56.699219 28.632812 C 56.8125 28.417969 56.871094 28.183594 56.878906 27.921875 C 56.882812 27.496094 56.738281 27.132812 56.445312 26.824219 C 56.148438 26.519531 55.785156 26.363281 55.359375 26.355469 C 55.042969 26.351562 54.757812 26.433594 54.507812 26.597656 " fill-opacity="1" fill-rule="evenodd"/></g><g clip-path="url(#11c903b3f6)"><path fill="#daf2f1" d="M 35.296875 71.902344 L 34.644531 53.351562 C 34.644531 53.347656 34.644531 53.34375 34.644531 53.339844 L 34.511719 49.589844 L 34.796875 49.617188 L 34.824219 50.40625 C 34.824219 50.410156 34.824219 50.414062 34.824219 50.417969 L 35.582031 71.996094 Z M 43.410156 8.804688 L 41.953125 14.910156 L 48.605469 21.109375 L 51.746094 24.03125 L 53.035156 25.230469 L 49.558594 25.910156 L 46.039062 26.597656 L 46.035156 26.597656 L 45.867188 26.453125 L 46.847656 23.792969 L 44.414062 25.242188 L 42.195312 23.484375 L 42.820312 26.25 L 40.917969 27.527344 L 34.5625 23.351562 L 31.714844 21.480469 L 27.914062 18.980469 L 29.121094 18.628906 L 33.246094 17.4375 L 41.683594 14.996094 L 43.144531 8.890625 L 43.410156 8.804688 " fill-opacity="1" fill-rule="evenodd"/></g><g clip-path="url(#7a7f71f84c)"><path fill="#9ddedf" d="M 40.851562 30.894531 C 41.035156 31.089844 41.261719 31.1875 41.53125 31.191406 C 41.796875 31.195312 42.027344 31.101562 42.214844 30.914062 C 42.40625 30.726562 42.503906 30.503906 42.507812 30.234375 C 42.511719 29.96875 42.421875 29.738281 42.238281 29.546875 C 42.050781 29.355469 41.824219 29.257812 41.554688 29.25 C 41.289062 29.246094 41.058594 29.335938 40.867188 29.523438 C 40.679688 29.710938 40.582031 29.9375 40.578125 30.207031 C 40.574219 30.476562 40.664062 30.707031 40.851562 30.894531 Z M 25.683594 48.632812 L 25.464844 46.492188 L 25.613281 46.46875 L 25.875 48.652344 Z M 16.785156 47.664062 L 23.015625 48.34375 L 24.460938 68.535156 L 18.253906 66.609375 Z M 28.121094 69.675781 L 27.019531 48.777344 L 29.871094 49.085938 L 31.417969 49.253906 L 32.101562 49.328125 L 34.144531 49.550781 L 34.511719 49.589844 L 34.644531 53.339844 C 34.644531 53.34375 34.644531 53.347656 34.644531 53.351562 L 35.296875 71.902344 Z M 42.894531 69.136719 L 42.515625 48.222656 L 42.695312 48.1875 L 43.074219 69.066406 Z M 23.882812 26.992188 C 23.902344 26.761719 24.515625 26.148438 25.726562 25.15625 C 26.117188 24.902344 26.332031 24.910156 26.367188 25.183594 C 26.40625 25.460938 25.71875 26.214844 24.304688 27.453125 C 24.003906 27.390625 23.863281 27.238281 23.882812 26.992188 Z M 24.449219 29.371094 C 24.601562 29.375 25.234375 30.035156 26.34375 31.347656 C 26.410156 31.769531 26.292969 31.949219 25.992188 31.886719 C 25.160156 31.300781 24.464844 30.578125 23.910156 29.726562 C 23.945312 29.484375 24.066406 29.367188 24.273438 29.371094 Z M 21.464844 29.515625 L 21.644531 29.523438 C 21.878906 29.550781 21.996094 29.671875 21.992188 29.882812 C 21.972656 30.046875 21.25 30.738281 19.824219 31.957031 C 19.542969 31.90625 19.414062 31.765625 19.4375 31.535156 C 19.457031 31.292969 20.132812 30.621094 21.464844 29.515625 Z M 19.761719 25 C 20.054688 24.933594 20.710938 25.523438 21.734375 26.773438 L 21.699219 26.738281 C 21.984375 27.078125 21.914062 27.304688 21.496094 27.410156 C 21.289062 27.480469 21.058594 27.367188 20.808594 27.070312 C 20.441406 26.652344 19.972656 26.109375 19.402344 25.441406 C 19.351562 25.214844 19.46875 25.070312 19.761719 25 Z M 46.039062 26.605469 L 46.035156 26.597656 L 46.039062 26.597656 Z M 30.421875 13.484375 L 29.121094 18.628906 L 27.914062 18.980469 L 22.265625 20.597656 L 23.441406 16.007812 L 26.117188 15.039062 Z M 35.050781 11.820312 L 36.882812 11.152344 L 38.671875 10.507812 L 40.757812 9.75 L 43.144531 8.890625 L 41.683594 14.996094 L 33.246094 17.4375 L 34.574219 11.988281 Z M 45.910156 28.242188 L 45.710938 30.878906 L 40 31.882812 L 40.929688 27.867188 L 43.28125 28.085938 L 44.046875 30.816406 L 45.167969 28.210938 Z M 53.035156 25.230469 L 54.507812 26.597656 C 54.425781 26.65625 54.34375 26.722656 54.265625 26.796875 C 53.960938 27.09375 53.804688 27.457031 53.796875 27.882812 C 53.792969 28.308594 53.941406 28.675781 54.238281 28.984375 C 54.367188 29.117188 54.507812 29.222656 54.660156 29.300781 L 53.210938 29.554688 C 53.21875 29.519531 53.21875 29.480469 53.21875 29.441406 C 53.222656 29.203125 53.144531 29.003906 52.984375 28.835938 C 52.816406 28.667969 52.617188 28.582031 52.382812 28.578125 C 52.152344 28.578125 51.953125 28.65625 51.789062 28.820312 C 51.621094 28.984375 51.535156 29.179688 51.527344 29.410156 C 51.527344 29.566406 51.5625 29.707031 51.636719 29.832031 L 50.148438 30.097656 C 50.15625 30.097656 50.160156 30.097656 50.164062 30.097656 C 50.421875 30.097656 50.640625 30.1875 50.816406 30.375 C 50.992188 30.554688 51.082031 30.777344 51.078125 31.035156 C 51.074219 31.292969 50.980469 31.511719 50.800781 31.691406 C 50.613281 31.867188 50.394531 31.957031 50.140625 31.953125 C 49.882812 31.945312 49.664062 31.847656 49.488281 31.667969 C 49.3125 31.480469 49.222656 31.261719 49.226562 31.011719 C 49.230469 30.753906 49.328125 30.535156 49.511719 30.355469 C 49.605469 30.265625 49.707031 30.199219 49.820312 30.152344 L 49.003906 30.300781 L 49.558594 25.910156 Z M 56.699219 28.632812 L 56.976562 28.890625 L 56.4375 28.984375 C 56.542969 28.875 56.628906 28.757812 56.699219 28.632812 " fill-opacity="1" fill-rule="evenodd"/></g><path fill="#cdb697" d="M 42.515625 48.222656 L 39.660156 48.738281 L 39.792969 45.570312 L 43.714844 45.828125 L 43.625 48.019531 L 42.695312 48.1875 L 42.515625 48.222656 " fill-opacity="1" fill-rule="evenodd"/><path fill="#529094" d="M 46.449219 47.503906 L 43.78125 47.988281 L 43.832031 45.832031 L 52.613281 46.390625 Z M 39.792969 45.570312 L 39.660156 48.738281 L 37.859375 49.066406 C 38.207031 48.03125 38.671875 46.988281 39.25 45.941406 C 39.324219 45.8125 39.398438 45.683594 39.476562 45.550781 Z M 37.007812 49.21875 L 34.910156 49.597656 C 35.054688 48.3125 35.261719 47.023438 35.523438 45.730469 C 35.550781 45.589844 35.582031 45.449219 35.609375 45.308594 L 38.597656 45.496094 C 38.46875 45.742188 38.347656 45.992188 38.226562 46.238281 C 37.726562 47.273438 37.320312 48.265625 37.007812 49.21875 Z M 34.65625 45.761719 L 34.640625 45.246094 L 34.753906 45.253906 C 34.722656 45.421875 34.6875 45.589844 34.65625 45.761719 " fill-opacity="1" fill-rule="evenodd"/><path fill="#fbda3c" d="M 31.417969 49.253906 C 31.382812 48.78125 31.34375 48.277344 31.304688 47.742188 C 31.304688 47.691406 31.304688 47.640625 31.304688 47.589844 C 31.347656 47.179688 31.523438 46.914062 31.832031 46.796875 C 31.878906 46.882812 31.914062 46.972656 31.941406 47.0625 L 31.953125 47.101562 L 32.101562 49.328125 Z M 34.144531 49.550781 C 34.230469 48.589844 34.34375 47.660156 34.484375 46.765625 C 34.546875 46.628906 34.613281 46.507812 34.679688 46.398438 C 34.933594 45.992188 35.214844 45.769531 35.523438 45.730469 C 35.261719 47.023438 35.054688 48.3125 34.910156 49.597656 L 34.796875 49.617188 L 34.511719 49.589844 Z M 29.054688 34.59375 L 30.976562 33.980469 L 29.863281 35.675781 L 31.039062 37.320312 L 29.09375 36.78125 L 27.898438 38.410156 L 27.8125 36.394531 L 25.894531 35.753906 L 27.78125 35.042969 L 27.792969 33.019531 Z M 37.007812 49.21875 C 37.320312 48.265625 37.726562 47.273438 38.226562 46.238281 C 38.558594 45.886719 38.890625 45.773438 39.226562 45.898438 L 39.25 45.941406 C 38.671875 46.988281 38.207031 48.03125 37.859375 49.066406 Z M 36.925781 36.863281 C 36.925781 36.527344 37.050781 36.242188 37.292969 36.011719 C 37.53125 35.777344 37.816406 35.664062 38.152344 35.667969 C 38.484375 35.671875 38.765625 35.792969 39 36.035156 C 39.238281 36.277344 39.351562 36.566406 39.347656 36.902344 C 39.339844 37.238281 39.21875 37.523438 38.980469 37.753906 C 38.734375 37.988281 38.449219 38.101562 38.125 38.097656 C 37.785156 38.09375 37.496094 37.96875 37.261719 37.726562 C 37.027344 37.488281 36.914062 37.199219 36.925781 36.863281 Z M 36.113281 35.152344 C 36.109375 35.398438 36.019531 35.613281 35.839844 35.789062 C 35.660156 35.964844 35.445312 36.050781 35.195312 36.050781 C 34.945312 36.046875 34.730469 35.953125 34.558594 35.773438 C 34.386719 35.59375 34.300781 35.378906 34.304688 35.128906 C 34.308594 34.878906 34.402344 34.664062 34.582031 34.492188 C 34.757812 34.3125 34.972656 34.226562 35.222656 34.230469 C 35.476562 34.234375 35.691406 34.324219 35.863281 34.503906 C 36.039062 34.683594 36.121094 34.902344 36.113281 35.152344 Z M 42.589844 33.632812 C 42.664062 33.441406 42.796875 33.34375 42.988281 33.34375 C 43.167969 33.34375 43.875 34.054688 45.101562 35.484375 C 45.121094 35.804688 45 35.976562 44.734375 36 C 44.4375 35.996094 43.734375 35.335938 42.628906 34.023438 C 42.558594 33.871094 42.542969 33.742188 42.589844 33.632812 Z M 49.378906 40.359375 C 49.242188 40.453125 49.085938 40.445312 48.90625 40.335938 C 48.714844 40.226562 48.132812 39.617188 47.152344 38.507812 C 47.054688 38.390625 47.03125 38.25 47.085938 38.09375 C 47.144531 37.910156 47.285156 37.820312 47.507812 37.824219 C 47.679688 37.824219 48.375 38.535156 49.585938 39.960938 C 49.578125 40.132812 49.507812 40.265625 49.378906 40.359375 Z M 49.5 33.964844 C 49.496094 34.121094 48.839844 34.761719 47.53125 35.882812 L 47.351562 35.871094 C 47.113281 35.871094 46.992188 35.75 46.996094 35.511719 L 46.996094 35.339844 C 47.003906 35.167969 47.65625 34.53125 48.960938 33.429688 L 49.164062 33.4375 C 49.390625 33.46875 49.503906 33.589844 49.5 33.800781 Z M 34.300781 28.257812 C 34.296875 28.234375 34.296875 28.210938 34.300781 28.1875 C 34.304688 27.8125 34.4375 27.496094 34.710938 27.230469 C 34.976562 26.96875 35.300781 26.839844 35.675781 26.84375 C 36.046875 26.851562 36.363281 26.988281 36.628906 27.253906 C 36.886719 27.523438 37.011719 27.847656 37.007812 28.222656 C 37.003906 28.597656 36.867188 28.917969 36.597656 29.179688 C 36.472656 29.300781 36.339844 29.394531 36.191406 29.457031 C 36.019531 29.535156 35.835938 29.570312 35.632812 29.566406 C 35.261719 29.5625 34.945312 29.425781 34.6875 29.15625 C 34.441406 28.90625 34.3125 28.605469 34.300781 28.257812 Z M 23.351562 30.4375 L 23.316406 32.886719 C 23.316406 33.117188 23.175781 33.238281 22.898438 33.246094 C 22.625 33.253906 22.480469 33.070312 22.460938 32.699219 L 22.496094 30.433594 C 22.535156 30.1875 22.65625 30.070312 22.859375 30.074219 L 23.039062 30.074219 C 23.25 30.109375 23.355469 30.230469 23.351562 30.4375 Z M 24.8125 27.980469 L 27.269531 28.019531 C 27.503906 28.046875 27.621094 28.167969 27.621094 28.378906 C 27.65625 28.679688 27.359375 28.855469 26.734375 28.902344 L 25.003906 28.871094 C 24.835938 28.863281 24.65625 28.683594 24.460938 28.332031 C 24.5 28.097656 24.617188 27.980469 24.8125 27.980469 Z M 20.945312 28.101562 C 21.1875 28.128906 21.324219 28.28125 21.363281 28.566406 C 21.410156 28.839844 21.097656 28.96875 20.425781 28.953125 C 18.898438 28.835938 18.136719 28.660156 18.140625 28.421875 C 18.167969 28.179688 18.289062 28.0625 18.496094 28.066406 Z M 22.523438 24.148438 C 22.539062 23.875 22.679688 23.738281 22.945312 23.730469 C 23.183594 23.761719 23.300781 23.875 23.296875 24.078125 L 23.261719 26.542969 C 23.242188 26.785156 23.097656 26.90625 22.832031 26.902344 C 22.5625 26.898438 22.410156 26.71875 22.378906 26.363281 C 22.386719 25.773438 22.433594 25.035156 22.523438 24.148438 Z M 46.039062 26.605469 L 47.984375 28.320312 L 45.910156 28.242188 L 45.167969 28.210938 L 44.046875 30.816406 L 43.28125 28.085938 L 40.929688 27.867188 L 40.476562 27.824219 L 40.917969 27.527344 L 42.820312 26.25 L 42.195312 23.484375 L 44.414062 25.242188 L 46.847656 23.792969 L 45.867188 26.453125 L 46.035156 26.597656 Z M 54.660156 29.300781 C 54.507812 29.222656 54.367188 29.117188 54.238281 28.984375 C 53.941406 28.675781 53.792969 28.308594 53.796875 27.882812 C 53.804688 27.457031 53.960938 27.09375 54.265625 26.796875 C 54.34375 26.722656 54.425781 26.65625 54.507812 26.597656 C 54.757812 26.433594 55.042969 26.351562 55.359375 26.355469 C 55.785156 26.363281 56.148438 26.519531 56.445312 26.824219 C 56.738281 27.132812 56.882812 27.496094 56.878906 27.921875 C 56.871094 28.183594 56.8125 28.417969 56.699219 28.632812 C 56.628906 28.757812 56.542969 28.875 56.4375 28.984375 C 56.425781 28.996094 56.417969 29.003906 56.410156 29.011719 C 56.105469 29.308594 55.742188 29.453125 55.316406 29.445312 C 55.078125 29.445312 54.859375 29.394531 54.660156 29.300781 " fill-opacity="1" fill-rule="evenodd"/><path fill="#ea7817" d="M 25.203125 36.574219 C 26.972656 39.039062 28.367188 41.703125 29.394531 44.5625 L 22.839844 35.980469 C 21.863281 34.679688 22.019531 34.285156 23.308594 34.804688 C 24.035156 35.210938 24.664062 35.800781 25.203125 36.574219 Z M 38.71875 40.839844 C 39.410156 39.53125 40.167969 38.753906 41 38.515625 C 41.828125 38.28125 42.078125 38.363281 41.753906 38.765625 L 37.128906 44.738281 C 37.316406 44.136719 37.527344 43.570312 37.757812 43.03125 C 38.113281 42.121094 38.433594 41.390625 38.71875 40.839844 Z M 39.421875 32.398438 C 39.695312 32.402344 39.929688 32.503906 40.121094 32.699219 C 40.320312 32.902344 40.414062 33.140625 40.410156 33.425781 C 40.40625 33.699219 40.304688 33.933594 40.105469 34.132812 C 39.910156 34.324219 39.671875 34.417969 39.390625 34.414062 C 39.113281 34.410156 38.875 34.308594 38.679688 34.109375 C 38.484375 33.910156 38.394531 33.671875 38.402344 33.390625 C 38.40625 33.113281 38.503906 32.875 38.699219 32.683594 C 38.902344 32.484375 39.144531 32.390625 39.421875 32.398438 Z M 40.851562 30.894531 C 40.664062 30.707031 40.574219 30.476562 40.578125 30.207031 C 40.582031 29.9375 40.679688 29.710938 40.867188 29.523438 C 41.058594 29.335938 41.289062 29.246094 41.554688 29.25 C 41.824219 29.257812 42.050781 29.355469 42.238281 29.546875 C 42.421875 29.738281 42.511719 29.96875 42.507812 30.234375 C 42.503906 30.503906 42.40625 30.726562 42.214844 30.914062 C 42.027344 31.101562 41.796875 31.195312 41.53125 31.191406 C 41.261719 31.1875 41.035156 31.089844 40.851562 30.894531 Z M 34.300781 28.257812 C 34.3125 28.605469 34.441406 28.90625 34.6875 29.15625 C 34.945312 29.425781 35.261719 29.5625 35.632812 29.566406 C 35.835938 29.570312 36.019531 29.535156 36.191406 29.457031 C 36.339844 29.394531 36.472656 29.300781 36.597656 29.179688 C 36.867188 28.917969 37.003906 28.597656 37.007812 28.222656 C 37.011719 27.847656 36.886719 27.523438 36.628906 27.253906 C 36.363281 26.988281 36.046875 26.851562 35.675781 26.84375 C 35.300781 26.839844 34.976562 26.96875 34.710938 27.230469 C 34.4375 27.496094 34.304688 27.8125 34.300781 28.1875 C 34.296875 28.210938 34.296875 28.234375 34.300781 28.257812 Z M 33.367188 45.417969 C 33.347656 45.527344 33.324219 45.632812 33.304688 45.738281 C 33.300781 45.636719 33.296875 45.53125 33.289062 45.425781 C 33.0625 40.484375 32.121094 35.59375 30.46875 30.75 C 29.726562 29.097656 29.472656 28.089844 29.710938 27.722656 C 29.953125 27.355469 30.25 27.445312 30.59375 27.992188 C 33.6875 32.902344 34.613281 38.710938 33.367188 45.417969 Z M 33.554688 27.78125 C 33.632812 27.335938 33.84375 26.949219 34.183594 26.617188 C 34.613281 26.195312 35.132812 25.988281 35.738281 25.992188 C 36.339844 26.003906 36.851562 26.226562 37.273438 26.65625 C 37.695312 27.089844 37.898438 27.609375 37.890625 28.21875 C 37.878906 28.824219 37.660156 29.339844 37.226562 29.757812 C 37.148438 29.835938 37.070312 29.902344 36.988281 29.964844 C 36.609375 30.25 36.171875 30.386719 35.675781 30.378906 C 35.074219 30.371094 34.5625 30.152344 34.144531 29.71875 C 33.71875 29.285156 33.511719 28.765625 33.519531 28.152344 C 33.519531 28.027344 33.53125 27.902344 33.554688 27.78125 Z M 51.636719 29.832031 C 51.5625 29.707031 51.527344 29.566406 51.527344 29.410156 C 51.535156 29.179688 51.621094 28.984375 51.789062 28.820312 C 51.953125 28.65625 52.152344 28.578125 52.382812 28.578125 C 52.617188 28.582031 52.816406 28.667969 52.984375 28.835938 C 53.144531 29.003906 53.222656 29.203125 53.21875 29.441406 C 53.21875 29.480469 53.21875 29.519531 53.210938 29.554688 C 53.1875 29.742188 53.105469 29.902344 52.964844 30.039062 C 52.800781 30.199219 52.601562 30.28125 52.363281 30.277344 C 52.132812 30.269531 51.9375 30.179688 51.777344 30.015625 C 51.71875 29.957031 51.675781 29.898438 51.636719 29.832031 " fill-opacity="1" fill-rule="evenodd"/><path fill="#ed098c" d="M 20.980469 36.386719 C 21.214844 36.628906 21.332031 36.921875 21.328125 37.257812 C 21.324219 37.59375 21.203125 37.878906 20.964844 38.113281 C 20.722656 38.351562 20.433594 38.46875 20.097656 38.464844 C 19.761719 38.460938 19.476562 38.335938 19.242188 38.09375 C 19.007812 37.847656 18.890625 37.558594 18.894531 37.222656 C 18.898438 36.886719 19.023438 36.601562 19.265625 36.363281 C 19.503906 36.128906 19.792969 36.011719 20.125 36.015625 C 20.460938 36.019531 20.746094 36.144531 20.980469 36.386719 Z M 41.722656 36.484375 L 44.003906 36.519531 C 44.246094 36.570312 44.367188 36.691406 44.363281 36.878906 L 44.355469 37.058594 C 44.355469 37.296875 44.238281 37.414062 43.992188 37.414062 L 42.261719 37.390625 C 42.015625 37.410156 41.808594 37.382812 41.636719 37.316406 C 41.421875 37.226562 41.328125 37.066406 41.359375 36.839844 C 41.402344 36.601562 41.523438 36.480469 41.722656 36.484375 Z M 46.089844 38.496094 C 46.320312 38.527344 46.4375 38.652344 46.433594 38.863281 L 46.398438 41.320312 C 46.398438 41.554688 46.28125 41.667969 46.050781 41.664062 C 45.8125 41.664062 45.691406 41.546875 45.691406 41.308594 L 45.734375 38.851562 C 45.769531 38.613281 45.890625 38.492188 46.089844 38.496094 Z M 46.320312 34.972656 C 46.320312 35.207031 46.199219 35.324219 45.957031 35.320312 C 45.730469 35.316406 45.621094 35.195312 45.621094 34.953125 L 45.65625 32.480469 C 45.6875 32.265625 45.804688 32.160156 46.003906 32.160156 C 46.207031 32.160156 46.335938 32.339844 46.386719 32.695312 Z M 50.488281 37.332031 L 48.03125 37.292969 C 47.800781 37.289062 47.6875 37.167969 47.691406 36.933594 L 47.695312 36.757812 C 47.746094 36.519531 47.859375 36.398438 48.039062 36.398438 L 50.5 36.4375 C 50.734375 36.476562 50.851562 36.601562 50.851562 36.804688 L 50.851562 36.972656 C 50.851562 37.210938 50.730469 37.332031 50.488281 37.332031 Z M 34.75 31.441406 C 34.921875 31.265625 35.132812 31.183594 35.386719 31.191406 C 35.628906 31.195312 35.832031 31.285156 36.003906 31.457031 C 36.171875 31.636719 36.257812 31.847656 36.257812 32.089844 C 36.25 32.335938 36.160156 32.542969 35.984375 32.71875 C 35.808594 32.886719 35.597656 32.96875 35.355469 32.964844 C 35.109375 32.964844 34.902344 32.878906 34.730469 32.699219 C 34.5625 32.527344 34.480469 32.316406 34.484375 32.066406 C 34.484375 31.820312 34.570312 31.609375 34.75 31.441406 " fill-opacity="1" fill-rule="evenodd"/><path fill="#f78f2c" d="M 28.183594 46.121094 C 28.269531 46.332031 28.355469 46.546875 28.441406 46.765625 C 28.171875 46.878906 28.003906 47.09375 27.941406 47.410156 C 27.785156 47.003906 27.617188 46.605469 27.445312 46.222656 C 26.535156 44.222656 25.421875 42.542969 24.105469 41.1875 L 21.875 38.84375 C 21.886719 38.628906 22 38.519531 22.210938 38.519531 L 22.386719 38.527344 C 24.757812 39.984375 26.691406 42.515625 28.183594 46.121094 Z M 38.226562 46.238281 C 38.347656 45.992188 38.46875 45.742188 38.597656 45.496094 C 39.09375 44.53125 39.640625 43.578125 40.242188 42.636719 C 41.132812 41.242188 42.125 40 43.214844 38.910156 C 43.605469 38.511719 44.035156 38.1875 44.503906 37.9375 L 44.703125 37.941406 C 44.941406 38.003906 45.0625 38.125 45.0625 38.304688 L 45.054688 38.480469 C 44.84375 38.964844 44.066406 39.894531 42.714844 41.269531 C 41.398438 42.695312 40.320312 44.121094 39.476562 45.550781 C 39.398438 45.683594 39.324219 45.8125 39.25 45.941406 L 39.226562 45.898438 C 38.890625 45.773438 38.558594 45.886719 38.226562 46.238281 Z M 31.304688 47.589844 C 31.238281 46.964844 31.15625 46.34375 31.058594 45.730469 C 30.679688 43.367188 30.066406 41.105469 29.214844 38.949219 C 29.175781 38.523438 29.355469 38.476562 29.757812 38.800781 C 30.382812 39.503906 31.003906 41.390625 31.617188 44.457031 C 31.675781 44.898438 31.726562 45.292969 31.769531 45.636719 C 31.851562 46.292969 31.910156 46.769531 31.941406 47.0625 C 31.914062 46.972656 31.878906 46.882812 31.832031 46.796875 C 31.523438 46.914062 31.347656 47.179688 31.304688 47.589844 Z M 34.65625 45.761719 C 34.6875 45.589844 34.722656 45.421875 34.753906 45.253906 C 35.214844 42.941406 35.851562 40.863281 36.664062 39.015625 C 36.734375 38.871094 36.832031 38.777344 36.957031 38.730469 C 37.195312 38.757812 37.3125 38.867188 37.308594 39.066406 L 37.304688 39.261719 C 36.605469 41.257812 36.039062 43.269531 35.609375 45.308594 C 35.582031 45.449219 35.550781 45.589844 35.523438 45.730469 C 35.214844 45.769531 34.933594 45.992188 34.679688 46.398438 C 34.613281 46.507812 34.546875 46.628906 34.484375 46.765625 C 34.539062 46.425781 34.597656 46.089844 34.65625 45.761719 " fill-opacity="1" fill-rule="evenodd"/></svg>