<svg xmlns="http://www.w3.org/2000/svg" xmlns:xlink="http://www.w3.org/1999/xlink" width="100" zoomAndPan="magnify" viewBox="0 0 75 74.999997" height="100" preserveAspectRatio="xMidYMid meet" version="1.0"><defs><clipPath id="7deb3067ed"><path d="M 28 1.09375 L 54 1.09375 L 54 18 L 28 18 Z M 28 1.09375 " clip-rule="nonzero"/></clipPath><clipPath id="b808e27a5d"><path d="M 21 1.09375 L 54 1.09375 L 54 72 L 21 72 Z M 21 1.09375 " clip-rule="nonzero"/></clipPath><clipPath id="3326a1006b"><path d="M 20.746094 5.503906 L 56.632812 5.503906 L 56.632812 70.898438 L 20.746094 70.898438 Z M 20.746094 5.503906 " clip-rule="nonzero"/></clipPath><clipPath id="aa8f622325"><path d="M 14.675781 9.914062 L 56.632812 9.914062 L 56.632812 73.839844 L 14.675781 73.839844 Z M 14.675781 9.914062 " clip-rule="nonzero"/></clipPath><clipPath id="455d4b3e6c"><path d="M 26 9.914062 L 51.617188 9.914062 L 51.617188 73.839844 L 26 73.839844 Z M 26 9.914062 " clip-rule="nonzero"/></clipPath><clipPath id="81067be54e"><path d="M 14.652344 10 L 56 10 L 56 73.84375 L 14.652344 73.84375 Z M 14.652344 10 " clip-rule="nonzero"/></clipPath></defs><g clip-path="url(#7deb3067ed)"><path fill="#fffaec" d="M 39.019531 1.847656 L 43.125 5.527344 C 42.96875 5.53125 42.808594 5.542969 42.648438 5.566406 C 42.558594 5.574219 42.464844 5.589844 42.367188 5.609375 C 41.960938 5.691406 41.5625 5.816406 41.171875 5.988281 C 40.804688 6.144531 40.5 6.316406 40.257812 6.503906 L 37.117188 4.253906 C 37.597656 3.351562 38.1875 2.585938 38.890625 1.953125 C 38.9375 1.914062 38.980469 1.878906 39.019531 1.847656 Z M 31.59375 9.230469 L 28.152344 9.363281 C 27.988281 8.46875 27.976562 7.609375 28.117188 6.78125 C 28.128906 6.730469 28.140625 6.679688 28.152344 6.632812 L 33.054688 6.960938 C 32.953125 7.046875 32.855469 7.148438 32.753906 7.261719 C 32.695312 7.320312 32.636719 7.378906 32.582031 7.441406 C 32.335938 7.71875 32.121094 8.027344 31.941406 8.363281 C 31.777344 8.675781 31.660156 8.964844 31.59375 9.230469 Z M 49.265625 12.546875 L 53.121094 15.59375 C 53.101562 15.636719 53.078125 15.679688 53.050781 15.722656 C 52.59375 16.433594 52.003906 17.0625 51.277344 17.613281 L 48.824219 15.195312 C 48.960938 14.960938 49.070312 14.671875 49.15625 14.328125 C 49.246094 13.960938 49.292969 13.59375 49.300781 13.226562 C 49.304688 13.136719 49.308594 13.046875 49.308594 12.960938 C 49.304688 12.820312 49.289062 12.683594 49.265625 12.546875 " fill-opacity="1" fill-rule="evenodd"/></g><g clip-path="url(#b808e27a5d)"><path fill="#fef2cb" d="M 23.929688 50.253906 L 24.882812 50.359375 L 26 71.425781 L 22.488281 70.34375 L 21.015625 49.941406 L 23.734375 50.234375 Z M 45.925781 8.027344 C 46.078125 7.355469 45.984375 6.832031 45.648438 6.457031 C 45.03125 5.777344 44.1875 5.46875 43.125 5.527344 L 39.019531 1.847656 C 39.710938 1.273438 40.449219 1.09375 41.222656 1.308594 C 42.296875 1.601562 43.636719 2.636719 45.25 4.414062 C 45.820312 5.046875 46.140625 5.585938 46.207031 6.03125 C 46.222656 6.160156 46.226562 6.363281 46.214844 6.644531 C 46.207031 6.929688 46.109375 7.390625 45.925781 8.027344 Z M 33.054688 6.960938 L 28.152344 6.632812 C 28.324219 5.855469 28.742188 5.328125 29.40625 5.046875 C 30.320312 4.671875 31.828125 4.667969 33.933594 5.035156 C 34.6875 5.164062 35.210938 5.363281 35.5 5.636719 C 35.578125 5.722656 35.695312 5.867188 35.847656 6.066406 C 35.949219 6.203125 36.070312 6.421875 36.207031 6.722656 C 36.375 5.9375 36.644531 5.179688 37.011719 4.453125 C 37.042969 4.382812 37.078125 4.316406 37.117188 4.253906 L 40.257812 6.503906 C 40.207031 6.546875 40.160156 6.585938 40.117188 6.621094 C 39.664062 7.03125 39.355469 7.503906 39.1875 8.039062 C 39.054688 8.453125 38.996094 8.972656 39.007812 9.59375 C 39.023438 9.902344 39.046875 10.351562 39.082031 10.945312 L 36.960938 11.714844 C 36.976562 11.007812 36.964844 10.34375 36.929688 9.726562 C 36.855469 8.644531 36.6875 7.816406 36.421875 7.238281 C 36.421875 7.226562 36.414062 7.210938 36.398438 7.191406 C 36.332031 7.050781 36.261719 6.925781 36.1875 6.816406 C 35.957031 6.5 35.679688 6.3125 35.351562 6.257812 C 34.539062 6.113281 33.769531 6.347656 33.054688 6.960938 Z M 28.558594 14.71875 L 30.140625 14.15625 L 30.660156 13.964844 C 30.097656 13.476562 29.609375 12.875 29.195312 12.164062 C 28.707031 11.351562 28.371094 10.484375 28.179688 9.558594 C 28.175781 9.492188 28.164062 9.425781 28.152344 9.363281 L 31.59375 9.230469 C 31.578125 9.285156 31.566406 9.335938 31.558594 9.386719 C 31.460938 9.921875 31.503906 10.421875 31.6875 10.886719 C 31.820312 11.25 32.066406 11.648438 32.421875 12.078125 C 32.609375 12.296875 32.890625 12.617188 33.269531 13.039062 L 32.789062 13.207031 L 31.433594 18.714844 L 27.234375 19.917969 Z M 48.042969 27.273438 L 47.476562 31.710938 L 44.125 32.296875 L 44.332031 29.628906 L 46.441406 29.710938 L 44.460938 27.976562 L 44.460938 27.972656 Z M 49.871094 18.492188 L 48.355469 16.898438 L 47.773438 16.289062 C 48.160156 16.0625 48.484375 15.746094 48.742188 15.339844 C 48.773438 15.296875 48.800781 15.25 48.824219 15.195312 L 51.277344 17.613281 C 51.226562 17.652344 51.175781 17.691406 51.125 17.730469 C 50.726562 18.023438 50.308594 18.277344 49.871094 18.492188 Z M 53.121094 15.59375 L 49.265625 12.546875 C 49.15625 11.609375 48.757812 10.917969 48.066406 10.476562 C 47.6875 10.238281 47.214844 10.234375 46.648438 10.464844 C 47.1875 10.210938 47.578125 10.058594 47.820312 10.007812 C 48.066406 9.957031 48.246094 9.929688 48.359375 9.925781 C 48.769531 9.917969 49.292969 10.117188 49.9375 10.523438 C 51.742188 11.667969 52.855469 12.6875 53.273438 13.582031 C 53.570312 14.230469 53.519531 14.902344 53.121094 15.59375 " fill-opacity="1" fill-rule="evenodd"/></g><g clip-path="url(#3326a1006b)"><path fill="#edcfaa" d="M 24.882812 50.359375 L 23.929688 50.253906 L 23.664062 48.050781 L 25.527344 47.796875 C 25.703125 48.1875 25.871094 48.585938 26.035156 49 C 26.097656 48.679688 26.265625 48.460938 26.539062 48.347656 C 26.453125 48.128906 26.367188 47.910156 26.277344 47.695312 L 27.644531 47.511719 L 28 50.691406 L 25.09375 50.382812 Z M 41.441406 70.882812 L 41.054688 49.785156 L 42 49.613281 L 42.160156 49.585938 L 44.878906 49.09375 L 44.867188 69.550781 Z M 36.960938 11.714844 L 35.136719 12.363281 C 35.074219 11.726562 34.980469 11.179688 34.859375 10.722656 C 34.714844 10.121094 34.503906 9.589844 34.222656 9.125 C 33.820312 8.425781 33.273438 7.863281 32.582031 7.441406 C 32.636719 7.378906 32.695312 7.320312 32.753906 7.261719 C 32.855469 7.148438 32.953125 7.046875 33.054688 6.960938 C 33.769531 6.347656 34.539062 6.113281 35.351562 6.257812 C 35.679688 6.3125 35.957031 6.5 36.1875 6.816406 C 36.261719 6.925781 36.332031 7.050781 36.398438 7.191406 C 36.414062 7.210938 36.421875 7.226562 36.421875 7.238281 C 36.6875 7.816406 36.855469 8.644531 36.929688 9.726562 C 36.964844 10.34375 36.976562 11.007812 36.960938 11.714844 Z M 45.589844 13.988281 L 44.105469 12.429688 C 44.253906 12.277344 44.398438 12.132812 44.546875 11.996094 C 45.328125 11.246094 46.011719 10.742188 46.597656 10.488281 C 46.613281 10.484375 46.628906 10.476562 46.648438 10.464844 C 47.214844 10.234375 47.6875 10.238281 48.066406 10.476562 C 48.757812 10.917969 49.15625 11.609375 49.265625 12.546875 C 49.289062 12.683594 49.304688 12.820312 49.308594 12.960938 C 49.308594 13.046875 49.304688 13.136719 49.300781 13.226562 C 48.511719 13.070312 47.726562 13.113281 46.953125 13.355469 C 46.496094 13.496094 46.042969 13.707031 45.589844 13.988281 Z M 43.125 5.527344 C 44.1875 5.46875 45.03125 5.777344 45.648438 6.457031 C 45.984375 6.832031 46.078125 7.355469 45.925781 8.027344 C 45.921875 8.042969 45.917969 8.0625 45.914062 8.082031 C 45.742188 8.777344 45.3125 9.625 44.625 10.628906 C 44.335938 11.058594 44.007812 11.5 43.648438 11.949219 L 42.03125 10.25 C 42.058594 10.199219 42.082031 10.140625 42.105469 10.078125 C 42.398438 9.449219 42.582031 8.835938 42.660156 8.234375 C 42.785156 7.328125 42.6875 6.453125 42.367188 5.609375 C 42.464844 5.589844 42.558594 5.574219 42.648438 5.566406 C 42.808594 5.542969 42.96875 5.53125 43.125 5.527344 Z M 28.558594 14.71875 L 24.175781 16.289062 C 22.984375 15.5 21.863281 14.347656 20.816406 12.828125 C 21.898438 13.457031 23.0625 13.828125 24.304688 13.941406 C 23.652344 12.65625 23.726562 11.367188 24.523438 10.074219 C 24.542969 10.207031 24.582031 10.324219 24.640625 10.425781 C 25.949219 12.484375 27.785156 13.726562 30.140625 14.15625 Z M 27.351562 26.390625 L 29.875 22.796875 L 32.777344 24.691406 L 31.171875 28.804688 Z M 53.761719 22.585938 L 51.445312 20.144531 L 50.273438 25.375 L 47.074219 22.421875 L 48.355469 16.898438 L 49.871094 18.492188 L 50.738281 19.402344 C 51.9375 19.230469 53.066406 18.738281 54.121094 17.925781 C 54.207031 17.847656 54.273438 17.761719 54.328125 17.65625 C 54.601562 18.96875 54.277344 20.054688 53.355469 20.917969 C 54.414062 21.195312 55.484375 21.234375 56.566406 21.035156 C 55.609375 21.726562 54.675781 22.242188 53.761719 22.585938 " fill-opacity="1" fill-rule="evenodd"/></g><g clip-path="url(#aa8f622325)"><path fill="#72bbba" d="M 29.457031 49.179688 C 29.457031 49.230469 29.457031 49.28125 29.457031 49.332031 C 29.496094 49.875 29.535156 50.382812 29.574219 50.863281 L 28 50.691406 L 27.644531 47.511719 L 29.207031 47.300781 C 29.304688 47.921875 29.390625 48.546875 29.457031 49.179688 Z M 21.015625 49.941406 L 14.675781 49.257812 L 23.511719 48.074219 L 23.734375 50.234375 Z M 25.09375 50.382812 L 26.214844 71.496094 L 26 71.425781 L 24.882812 50.359375 Z M 40.871094 49.820312 L 41.261719 70.953125 L 33.8125 73.839844 L 33.042969 52.035156 C 33.039062 52.035156 33.039062 52.03125 33.042969 52.027344 L 33.011719 51.230469 L 33.125 51.210938 L 35.265625 50.828125 L 36.128906 50.671875 L 37.964844 50.339844 Z M 44.867188 69.550781 L 44.878906 49.09375 L 51.15625 47.96875 L 51.027344 67.167969 Z M 42.214844 47.40625 L 42.160156 49.585938 L 42 49.613281 L 42.09375 47.398438 Z M 29.929688 47.207031 L 31.480469 46.996094 C 31.484375 47.101562 31.488281 47.207031 31.492188 47.3125 C 31.515625 47.203125 31.535156 47.09375 31.554688 46.988281 L 32.851562 46.8125 L 32.871094 47.332031 C 32.808594 47.667969 32.75 48.003906 32.695312 48.347656 C 32.550781 49.253906 32.4375 50.191406 32.351562 51.160156 L 30.269531 50.9375 L 30.117188 48.6875 L 30.105469 48.648438 C 30.070312 48.351562 30.011719 47.871094 29.929688 47.207031 Z M 48.355469 16.898438 L 47.074219 22.421875 L 40.300781 16.160156 L 41.785156 9.992188 L 42.03125 10.25 L 43.648438 11.949219 L 44.105469 12.429688 L 45.589844 13.988281 L 47.773438 16.289062 Z M 20.25 21.90625 L 26.003906 20.273438 L 29.875 22.796875 L 27.351562 26.390625 Z M 39.257812 29.25 L 38.3125 33.308594 L 35.246094 31.371094 C 35.328125 31.308594 35.410156 31.242188 35.488281 31.164062 C 35.929688 30.738281 36.152344 30.21875 36.164062 29.605469 C 36.171875 28.992188 35.964844 28.46875 35.535156 28.03125 C 35.105469 27.59375 34.582031 27.367188 33.972656 27.355469 C 33.355469 27.351562 32.828125 27.5625 32.386719 27.988281 C 32.042969 28.324219 31.828125 28.71875 31.746094 29.167969 L 31.171875 28.804688 L 32.777344 24.691406 L 39.246094 28.910156 L 38.792969 29.207031 Z M 53.085938 27.972656 L 51.585938 26.589844 L 50.273438 25.375 L 51.445312 20.144531 L 53.761719 22.585938 L 56.632812 25.605469 L 55.597656 30.285156 L 55.316406 30.027344 C 55.433594 29.8125 55.492188 29.570312 55.496094 29.308594 C 55.5 28.878906 55.355469 28.507812 55.054688 28.199219 C 54.753906 27.890625 54.386719 27.734375 53.949219 27.726562 C 53.628906 27.722656 53.339844 27.804688 53.085938 27.972656 " fill-opacity="1" fill-rule="evenodd"/></g><g clip-path="url(#455d4b3e6c)"><path fill="#daf2f1" d="M 33.523438 73.746094 L 32.859375 55.003906 C 32.859375 55 32.859375 54.992188 32.859375 54.988281 L 32.722656 51.203125 L 33.011719 51.230469 L 33.042969 52.027344 C 33.039062 52.03125 33.039062 52.035156 33.042969 52.035156 L 33.8125 73.839844 Z M 41.785156 9.992188 L 40.300781 16.160156 L 47.074219 22.421875 L 50.273438 25.375 L 51.585938 26.589844 L 48.042969 27.273438 L 44.460938 27.972656 L 44.453125 27.972656 L 44.285156 27.824219 L 45.285156 25.136719 L 42.808594 26.601562 L 40.546875 24.824219 L 41.183594 27.621094 L 39.246094 28.910156 L 32.777344 24.691406 L 29.875 22.796875 L 26.003906 20.273438 L 27.234375 19.917969 L 31.433594 18.714844 L 40.023438 16.25 L 41.511719 10.078125 L 41.785156 9.992188 " fill-opacity="1" fill-rule="evenodd"/></g><g clip-path="url(#81067be54e)"><path fill="#9ddedf" d="M 39.175781 32.3125 C 39.363281 32.507812 39.597656 32.609375 39.871094 32.613281 C 40.140625 32.617188 40.375 32.523438 40.566406 32.332031 C 40.761719 32.144531 40.863281 31.914062 40.867188 31.644531 C 40.871094 31.375 40.777344 31.144531 40.589844 30.949219 C 40.402344 30.757812 40.167969 30.65625 39.894531 30.648438 C 39.625 30.644531 39.390625 30.738281 39.195312 30.925781 C 39.003906 31.117188 38.90625 31.347656 38.902344 31.617188 C 38.898438 31.890625 38.988281 32.121094 39.175781 32.3125 Z M 23.734375 50.234375 L 23.511719 48.074219 L 23.664062 48.050781 L 23.929688 50.253906 Z M 14.675781 49.257812 L 21.015625 49.941406 L 22.488281 70.34375 L 16.167969 68.398438 Z M 26.214844 71.496094 L 25.09375 50.382812 L 28 50.691406 L 29.574219 50.863281 L 30.269531 50.9375 L 32.351562 51.160156 L 32.722656 51.203125 L 32.859375 54.988281 C 32.859375 54.992188 32.859375 55 32.859375 55.003906 L 33.523438 73.746094 Z M 41.261719 70.953125 L 40.871094 49.820312 L 41.054688 49.785156 L 41.441406 70.882812 Z M 21.898438 28.371094 C 21.917969 28.136719 22.542969 27.515625 23.773438 26.511719 C 24.175781 26.253906 24.394531 26.265625 24.429688 26.542969 C 24.46875 26.820312 23.765625 27.582031 22.328125 28.832031 C 22.023438 28.769531 21.878906 28.617188 21.898438 28.371094 Z M 22.476562 30.773438 C 22.632812 30.777344 23.273438 31.441406 24.40625 32.769531 C 24.472656 33.195312 24.351562 33.378906 24.046875 33.316406 C 23.199219 32.722656 22.492188 31.992188 21.925781 31.128906 C 21.964844 30.886719 22.085938 30.769531 22.296875 30.773438 Z M 19.4375 30.917969 L 19.621094 30.925781 C 19.859375 30.957031 19.976562 31.078125 19.972656 31.289062 C 19.957031 31.457031 19.21875 32.15625 17.769531 33.386719 C 17.480469 33.335938 17.351562 33.191406 17.375 32.957031 C 17.394531 32.714844 18.082031 32.035156 19.4375 30.917969 Z M 17.703125 26.355469 C 18 26.289062 18.671875 26.886719 19.710938 28.148438 L 19.675781 28.113281 C 19.964844 28.457031 19.894531 28.683594 19.46875 28.792969 C 19.257812 28.863281 19.023438 28.746094 18.769531 28.445312 C 18.394531 28.023438 17.917969 27.476562 17.339844 26.800781 C 17.285156 26.574219 17.40625 26.425781 17.703125 26.355469 Z M 44.460938 27.976562 L 44.453125 27.972656 L 44.460938 27.972656 Z M 28.558594 14.71875 L 27.234375 19.917969 L 26.003906 20.273438 L 20.25 21.90625 L 21.449219 17.269531 L 24.175781 16.289062 Z M 33.269531 13.039062 L 35.136719 12.363281 L 36.960938 11.714844 L 39.082031 10.945312 L 41.511719 10.078125 L 40.023438 16.25 L 31.433594 18.714844 L 32.789062 13.207031 Z M 44.332031 29.628906 L 44.125 32.296875 L 38.3125 33.308594 L 39.257812 29.25 L 41.652344 29.472656 L 42.429688 32.230469 L 43.570312 29.601562 Z M 51.585938 26.589844 L 53.085938 27.972656 C 53 28.027344 52.917969 28.09375 52.839844 28.171875 C 52.527344 28.472656 52.371094 28.835938 52.363281 29.265625 C 52.359375 29.699219 52.507812 30.070312 52.808594 30.378906 C 52.941406 30.515625 53.082031 30.621094 53.242188 30.699219 L 51.765625 30.957031 C 51.769531 30.921875 51.773438 30.882812 51.773438 30.84375 C 51.777344 30.605469 51.695312 30.402344 51.53125 30.234375 C 51.363281 30.0625 51.160156 29.972656 50.921875 29.96875 C 50.683594 29.96875 50.484375 30.050781 50.3125 30.214844 C 50.144531 30.378906 50.058594 30.578125 50.050781 30.8125 C 50.050781 30.96875 50.085938 31.109375 50.160156 31.238281 L 48.644531 31.503906 C 48.652344 31.503906 48.65625 31.503906 48.660156 31.503906 C 48.921875 31.503906 49.144531 31.597656 49.324219 31.785156 C 49.507812 31.96875 49.59375 32.191406 49.589844 32.453125 C 49.585938 32.714844 49.492188 32.9375 49.308594 33.117188 C 49.121094 33.296875 48.894531 33.382812 48.636719 33.378906 C 48.375 33.371094 48.152344 33.277344 47.972656 33.09375 C 47.792969 32.90625 47.703125 32.683594 47.707031 32.429688 C 47.710938 32.167969 47.808594 31.949219 47.996094 31.769531 C 48.089844 31.675781 48.195312 31.605469 48.3125 31.5625 L 47.476562 31.710938 L 48.042969 27.273438 Z M 55.316406 30.027344 L 55.597656 30.285156 L 55.046875 30.382812 C 55.15625 30.273438 55.246094 30.152344 55.316406 30.027344 " fill-opacity="1" fill-rule="evenodd"/></g><path fill="#cdb697" d="M 40.871094 49.820312 L 37.964844 50.339844 L 38.101562 47.140625 L 42.09375 47.398438 L 42 49.613281 L 41.054688 49.785156 L 40.871094 49.820312 " fill-opacity="1" fill-rule="evenodd"/><path fill="#529094" d="M 44.878906 49.09375 L 42.160156 49.585938 L 42.214844 47.40625 L 51.15625 47.96875 Z M 38.101562 47.140625 L 37.964844 50.339844 L 36.128906 50.671875 C 36.484375 49.625 36.957031 48.574219 37.546875 47.515625 C 37.621094 47.386719 37.699219 47.253906 37.777344 47.121094 Z M 35.265625 50.828125 L 33.125 51.210938 C 33.277344 49.910156 33.484375 48.605469 33.753906 47.300781 C 33.78125 47.160156 33.8125 47.015625 33.839844 46.875 L 36.882812 47.066406 C 36.753906 47.316406 36.628906 47.5625 36.507812 47.816406 C 35.996094 48.859375 35.582031 49.863281 35.265625 50.828125 Z M 32.871094 47.332031 L 32.851562 46.8125 L 32.96875 46.820312 C 32.9375 46.992188 32.902344 47.160156 32.871094 47.332031 " fill-opacity="1" fill-rule="evenodd"/><path fill="#fbda3c" d="M 29.574219 50.863281 C 29.535156 50.382812 29.496094 49.875 29.457031 49.332031 C 29.457031 49.28125 29.457031 49.230469 29.457031 49.179688 C 29.5 48.765625 29.679688 48.5 29.992188 48.378906 C 30.039062 48.46875 30.078125 48.558594 30.105469 48.648438 L 30.117188 48.6875 L 30.269531 50.9375 Z M 32.351562 51.160156 C 32.4375 50.191406 32.550781 49.253906 32.695312 48.347656 C 32.757812 48.210938 32.824219 48.085938 32.894531 47.976562 C 33.152344 47.566406 33.4375 47.339844 33.753906 47.300781 C 33.484375 48.605469 33.277344 49.910156 33.125 51.210938 L 33.011719 51.230469 L 32.722656 51.203125 Z M 27.164062 36.050781 L 29.121094 35.429688 L 27.988281 37.140625 L 29.1875 38.804688 L 27.203125 38.261719 L 25.988281 39.90625 L 25.898438 37.867188 L 23.945312 37.222656 L 25.871094 36.503906 L 25.882812 34.457031 Z M 35.265625 50.828125 C 35.582031 49.863281 35.996094 48.859375 36.507812 47.816406 C 36.84375 47.460938 37.183594 47.34375 37.523438 47.46875 L 37.546875 47.515625 C 36.957031 48.574219 36.484375 49.625 36.128906 50.671875 Z M 35.183594 38.339844 C 35.183594 38.003906 35.304688 37.714844 35.554688 37.480469 C 35.796875 37.246094 36.089844 37.132812 36.429688 37.136719 C 36.765625 37.140625 37.054688 37.261719 37.292969 37.503906 C 37.535156 37.75 37.652344 38.042969 37.648438 38.382812 C 37.640625 38.722656 37.515625 39.011719 37.269531 39.242188 C 37.023438 39.480469 36.734375 39.59375 36.398438 39.589844 C 36.054688 39.585938 35.761719 39.460938 35.523438 39.214844 C 35.285156 38.972656 35.171875 38.683594 35.183594 38.339844 Z M 34.351562 36.613281 C 34.347656 36.863281 34.257812 37.078125 34.078125 37.257812 C 33.890625 37.433594 33.671875 37.523438 33.417969 37.523438 C 33.164062 37.519531 32.945312 37.425781 32.769531 37.238281 C 32.59375 37.058594 32.507812 36.84375 32.511719 36.589844 C 32.515625 36.335938 32.609375 36.121094 32.792969 35.945312 C 32.972656 35.765625 33.191406 35.679688 33.445312 35.683594 C 33.707031 35.6875 33.921875 35.777344 34.101562 35.957031 C 34.277344 36.140625 34.359375 36.359375 34.351562 36.613281 Z M 40.949219 35.078125 C 41.023438 34.882812 41.15625 34.785156 41.355469 34.785156 C 41.539062 34.785156 42.257812 35.507812 43.507812 36.949219 C 43.527344 37.273438 43.402344 37.445312 43.128906 37.46875 C 42.828125 37.464844 42.113281 36.796875 40.988281 35.472656 C 40.914062 35.320312 40.902344 35.1875 40.949219 35.078125 Z M 47.859375 41.875 C 47.722656 41.96875 47.5625 41.960938 47.378906 41.851562 C 47.1875 41.742188 46.589844 41.125 45.597656 40.003906 C 45.492188 39.882812 45.46875 39.742188 45.523438 39.582031 C 45.589844 39.398438 45.730469 39.3125 45.953125 39.316406 C 46.132812 39.316406 46.835938 40.035156 48.074219 41.46875 C 48.066406 41.644531 47.992188 41.78125 47.859375 41.875 Z M 47.984375 35.414062 C 47.980469 35.574219 47.3125 36.21875 45.976562 37.351562 L 45.796875 37.339844 C 45.554688 37.339844 45.433594 37.21875 45.4375 36.976562 L 45.4375 36.800781 C 45.441406 36.628906 46.105469 35.988281 47.4375 34.875 L 47.644531 34.878906 C 47.875 34.910156 47.988281 35.035156 47.984375 35.25 Z M 32.507812 29.648438 C 32.503906 29.625 32.503906 29.601562 32.507812 29.578125 C 32.511719 29.199219 32.648438 28.875 32.921875 28.609375 C 33.199219 28.34375 33.527344 28.214844 33.90625 28.21875 C 34.285156 28.226562 34.609375 28.363281 34.875 28.632812 C 35.140625 28.90625 35.269531 29.234375 35.265625 29.613281 C 35.261719 29.992188 35.121094 30.3125 34.847656 30.578125 C 34.71875 30.703125 34.582031 30.796875 34.433594 30.859375 C 34.257812 30.9375 34.070312 30.972656 33.863281 30.972656 C 33.484375 30.96875 33.164062 30.828125 32.898438 30.554688 C 32.648438 30.300781 32.519531 30 32.507812 29.648438 Z M 21.355469 31.851562 L 21.320312 34.324219 C 21.320312 34.558594 21.179688 34.679688 20.898438 34.6875 C 20.621094 34.695312 20.46875 34.511719 20.453125 34.136719 L 20.488281 31.84375 C 20.527344 31.597656 20.648438 31.476562 20.855469 31.480469 L 21.039062 31.480469 C 21.253906 31.515625 21.359375 31.640625 21.355469 31.851562 Z M 22.847656 29.367188 L 25.347656 29.40625 C 25.585938 29.433594 25.703125 29.554688 25.703125 29.769531 C 25.738281 30.074219 25.441406 30.25 24.804688 30.296875 L 23.039062 30.269531 C 22.871094 30.261719 22.6875 30.078125 22.488281 29.722656 C 22.527344 29.484375 22.644531 29.367188 22.847656 29.367188 Z M 18.910156 29.488281 C 19.152344 29.515625 19.292969 29.671875 19.332031 29.957031 C 19.378906 30.234375 19.0625 30.367188 18.378906 30.351562 C 16.824219 30.234375 16.046875 30.054688 16.050781 29.8125 C 16.082031 29.570312 16.203125 29.449219 16.414062 29.453125 Z M 20.515625 25.492188 C 20.53125 25.21875 20.675781 25.078125 20.945312 25.070312 C 21.1875 25.101562 21.308594 25.21875 21.304688 25.421875 L 21.269531 27.914062 C 21.246094 28.160156 21.097656 28.28125 20.828125 28.277344 C 20.554688 28.273438 20.402344 28.089844 20.367188 27.730469 C 20.375 27.136719 20.425781 26.390625 20.515625 25.492188 Z M 44.460938 27.976562 L 46.441406 29.710938 L 44.332031 29.628906 L 43.570312 29.601562 L 42.429688 32.230469 L 41.652344 29.472656 L 39.257812 29.25 L 38.792969 29.207031 L 39.246094 28.910156 L 41.183594 27.621094 L 40.546875 24.824219 L 42.808594 26.601562 L 45.285156 25.136719 L 44.285156 27.824219 L 44.453125 27.972656 Z M 53.242188 30.699219 C 53.082031 30.621094 52.941406 30.515625 52.808594 30.378906 C 52.507812 30.070312 52.359375 29.699219 52.363281 29.265625 C 52.371094 28.835938 52.527344 28.472656 52.839844 28.171875 C 52.917969 28.09375 53 28.027344 53.085938 27.972656 C 53.339844 27.804688 53.628906 27.722656 53.949219 27.726562 C 54.386719 27.734375 54.753906 27.890625 55.054688 28.199219 C 55.355469 28.507812 55.5 28.878906 55.496094 29.308594 C 55.492188 29.570312 55.433594 29.8125 55.316406 30.027344 C 55.246094 30.152344 55.15625 30.273438 55.046875 30.382812 C 55.039062 30.390625 55.03125 30.402344 55.019531 30.410156 C 54.710938 30.710938 54.339844 30.855469 53.910156 30.847656 C 53.664062 30.847656 53.441406 30.796875 53.242188 30.699219 " fill-opacity="1" fill-rule="evenodd"/><path fill="#ea7817" d="M 23.246094 38.046875 C 25.046875 40.539062 26.46875 43.230469 27.511719 46.121094 L 20.839844 37.453125 C 19.84375 36.136719 20.003906 35.738281 21.316406 36.261719 C 22.054688 36.671875 22.695312 37.269531 23.246094 38.046875 Z M 37.007812 42.359375 C 37.707031 41.035156 38.484375 40.253906 39.332031 40.011719 C 40.171875 39.773438 40.429688 39.855469 40.09375 40.261719 L 35.390625 46.296875 C 35.582031 45.691406 35.792969 45.117188 36.03125 44.574219 C 36.390625 43.652344 36.714844 42.914062 37.007812 42.359375 Z M 37.722656 33.832031 C 38.003906 33.835938 38.238281 33.9375 38.4375 34.136719 C 38.636719 34.339844 38.734375 34.582031 38.730469 34.867188 C 38.726562 35.144531 38.621094 35.382812 38.417969 35.582031 C 38.21875 35.777344 37.976562 35.875 37.6875 35.871094 C 37.40625 35.867188 37.164062 35.761719 36.964844 35.558594 C 36.769531 35.359375 36.675781 35.117188 36.683594 34.832031 C 36.6875 34.550781 36.789062 34.3125 36.988281 34.117188 C 37.191406 33.917969 37.4375 33.824219 37.722656 33.832031 Z M 39.175781 32.3125 C 38.988281 32.121094 38.898438 31.890625 38.902344 31.617188 C 38.90625 31.347656 39.003906 31.117188 39.195312 30.925781 C 39.390625 30.738281 39.625 30.644531 39.894531 30.648438 C 40.167969 30.65625 40.402344 30.757812 40.589844 30.949219 C 40.777344 31.144531 40.871094 31.375 40.867188 31.644531 C 40.863281 31.914062 40.761719 32.144531 40.566406 32.332031 C 40.375 32.523438 40.140625 32.617188 39.871094 32.613281 C 39.597656 32.609375 39.363281 32.507812 39.175781 32.3125 Z M 32.507812 29.648438 C 32.519531 30 32.648438 30.300781 32.898438 30.554688 C 33.164062 30.828125 33.484375 30.96875 33.863281 30.972656 C 34.070312 30.972656 34.257812 30.9375 34.433594 30.859375 C 34.582031 30.796875 34.71875 30.703125 34.847656 30.578125 C 35.121094 30.3125 35.261719 29.992188 35.265625 29.613281 C 35.269531 29.234375 35.140625 28.90625 34.875 28.632812 C 34.609375 28.363281 34.285156 28.226562 33.90625 28.21875 C 33.527344 28.214844 33.199219 28.34375 32.921875 28.609375 C 32.648438 28.875 32.511719 29.199219 32.507812 29.578125 C 32.503906 29.601562 32.503906 29.625 32.507812 29.648438 Z M 31.554688 46.988281 C 31.535156 47.09375 31.515625 47.203125 31.492188 47.3125 C 31.488281 47.207031 31.484375 47.101562 31.480469 46.996094 C 31.246094 42.003906 30.289062 37.058594 28.605469 32.167969 C 27.847656 30.496094 27.589844 29.476562 27.835938 29.109375 C 28.082031 28.738281 28.382812 28.828125 28.734375 29.378906 C 31.886719 34.339844 32.824219 40.210938 31.554688 46.988281 Z M 31.746094 29.167969 C 31.828125 28.71875 32.042969 28.324219 32.386719 27.988281 C 32.828125 27.5625 33.355469 27.351562 33.972656 27.355469 C 34.582031 27.367188 35.105469 27.59375 35.535156 28.03125 C 35.964844 28.46875 36.171875 28.992188 36.164062 29.605469 C 36.152344 30.21875 35.929688 30.738281 35.488281 31.164062 C 35.410156 31.242188 35.328125 31.308594 35.246094 31.371094 C 34.855469 31.660156 34.410156 31.796875 33.90625 31.792969 C 33.292969 31.785156 32.773438 31.5625 32.347656 31.125 C 31.914062 30.6875 31.703125 30.160156 31.710938 29.542969 C 31.714844 29.414062 31.726562 29.289062 31.746094 29.167969 Z M 50.160156 31.238281 C 50.085938 31.109375 50.050781 30.96875 50.050781 30.8125 C 50.058594 30.578125 50.144531 30.378906 50.3125 30.214844 C 50.484375 30.050781 50.683594 29.96875 50.921875 29.96875 C 51.160156 29.972656 51.363281 30.0625 51.53125 30.234375 C 51.695312 30.402344 51.777344 30.605469 51.773438 30.84375 C 51.773438 30.882812 51.769531 30.921875 51.765625 30.957031 C 51.738281 31.144531 51.65625 31.308594 51.515625 31.445312 C 51.34375 31.609375 51.140625 31.691406 50.902344 31.6875 C 50.667969 31.679688 50.46875 31.589844 50.300781 31.421875 C 50.246094 31.363281 50.199219 31.304688 50.160156 31.238281 " fill-opacity="1" fill-rule="evenodd"/><path fill="#ed098c" d="M 18.945312 37.859375 C 19.183594 38.105469 19.300781 38.402344 19.296875 38.742188 C 19.292969 39.078125 19.171875 39.367188 18.925781 39.605469 C 18.679688 39.847656 18.386719 39.960938 18.046875 39.957031 C 17.703125 39.953125 17.414062 39.828125 17.175781 39.582031 C 16.933594 39.335938 16.816406 39.046875 16.820312 38.703125 C 16.824219 38.367188 16.949219 38.078125 17.199219 37.839844 C 17.441406 37.597656 17.734375 37.484375 18.074219 37.484375 C 18.414062 37.488281 18.707031 37.613281 18.945312 37.859375 Z M 40.066406 37.960938 L 42.390625 37.996094 C 42.636719 38.046875 42.757812 38.167969 42.753906 38.359375 L 42.75 38.539062 C 42.75 38.777344 42.625 38.898438 42.378906 38.898438 L 40.613281 38.875 C 40.367188 38.894531 40.152344 38.871094 39.976562 38.800781 C 39.757812 38.707031 39.664062 38.550781 39.695312 38.320312 C 39.738281 38.078125 39.863281 37.957031 40.066406 37.960938 Z M 44.511719 39.992188 C 44.75 40.023438 44.863281 40.148438 44.859375 40.363281 L 44.824219 42.847656 C 44.824219 43.082031 44.707031 43.195312 44.472656 43.191406 C 44.230469 43.191406 44.105469 43.074219 44.105469 42.835938 L 44.148438 40.351562 C 44.1875 40.109375 44.308594 39.988281 44.511719 39.992188 Z M 44.75 36.433594 C 44.75 36.671875 44.625 36.789062 44.378906 36.785156 C 44.144531 36.78125 44.03125 36.65625 44.035156 36.414062 L 44.070312 33.914062 C 44.101562 33.699219 44.222656 33.589844 44.425781 33.589844 C 44.632812 33.589844 44.761719 33.769531 44.8125 34.128906 Z M 48.988281 38.816406 L 46.488281 38.773438 C 46.253906 38.769531 46.140625 38.648438 46.144531 38.410156 L 46.148438 38.234375 C 46.199219 37.996094 46.316406 37.875 46.496094 37.875 L 49.003906 37.914062 C 49.242188 37.953125 49.359375 38.078125 49.359375 38.28125 L 49.359375 38.453125 C 49.359375 38.695312 49.238281 38.816406 48.988281 38.816406 Z M 32.964844 32.863281 C 33.140625 32.6875 33.355469 32.605469 33.613281 32.613281 C 33.859375 32.617188 34.070312 32.707031 34.242188 32.882812 C 34.414062 33.0625 34.5 33.273438 34.5 33.519531 C 34.492188 33.765625 34.398438 33.976562 34.222656 34.152344 C 34.042969 34.324219 33.828125 34.410156 33.582031 34.40625 C 33.332031 34.40625 33.121094 34.316406 32.945312 34.136719 C 32.773438 33.960938 32.691406 33.746094 32.695312 33.496094 C 32.695312 33.246094 32.785156 33.035156 32.964844 32.863281 " fill-opacity="1" fill-rule="evenodd"/><path fill="#f78f2c" d="M 26.277344 47.695312 C 26.367188 47.910156 26.453125 48.128906 26.539062 48.347656 C 26.265625 48.460938 26.097656 48.679688 26.035156 49 C 25.871094 48.585938 25.703125 48.1875 25.527344 47.796875 C 24.597656 45.777344 23.464844 44.082031 22.128906 42.710938 L 19.855469 40.34375 C 19.867188 40.125 19.980469 40.015625 20.199219 40.015625 L 20.375 40.023438 C 22.789062 41.496094 24.757812 44.054688 26.277344 47.695312 Z M 36.507812 47.816406 C 36.628906 47.5625 36.753906 47.316406 36.882812 47.066406 C 37.386719 46.089844 37.945312 45.125 38.558594 44.175781 C 39.464844 42.765625 40.472656 41.511719 41.582031 40.410156 C 41.984375 40.007812 42.421875 39.679688 42.894531 39.425781 L 43.101562 39.433594 C 43.34375 39.496094 43.464844 39.617188 43.464844 39.800781 L 43.460938 39.976562 C 43.246094 40.464844 42.449219 41.402344 41.078125 42.792969 C 39.738281 44.234375 38.636719 45.675781 37.777344 47.121094 C 37.699219 47.253906 37.621094 47.386719 37.546875 47.515625 L 37.523438 47.46875 C 37.183594 47.34375 36.84375 47.460938 36.507812 47.816406 Z M 29.457031 49.179688 C 29.390625 48.546875 29.304688 47.921875 29.207031 47.300781 C 28.820312 44.914062 28.195312 42.628906 27.328125 40.449219 C 27.289062 40.019531 27.472656 39.972656 27.882812 40.296875 C 28.515625 41.007812 29.148438 42.914062 29.777344 46.015625 C 29.832031 46.464844 29.882812 46.859375 29.929688 47.207031 C 30.011719 47.871094 30.070312 48.351562 30.105469 48.648438 C 30.078125 48.558594 30.039062 48.46875 29.992188 48.378906 C 29.679688 48.5 29.5 48.765625 29.457031 49.179688 Z M 32.871094 47.332031 C 32.902344 47.160156 32.9375 46.992188 32.96875 46.820312 C 33.441406 44.484375 34.085938 42.382812 34.914062 40.515625 C 34.988281 40.371094 35.085938 40.273438 35.210938 40.226562 C 35.457031 40.253906 35.574219 40.367188 35.570312 40.566406 L 35.566406 40.765625 C 34.851562 42.78125 34.277344 44.816406 33.839844 46.875 C 33.8125 47.015625 33.78125 47.160156 33.753906 47.300781 C 33.4375 47.339844 33.152344 47.566406 32.894531 47.976562 C 32.824219 48.085938 32.757812 48.210938 32.695312 48.347656 C 32.75 48.003906 32.808594 47.667969 32.871094 47.332031 " fill-opacity="1" fill-rule="evenodd"/></svg>