<svg xmlns="http://www.w3.org/2000/svg" xmlns:xlink="http://www.w3.org/1999/xlink" width="1920" zoomAndPan="magnify" viewBox="0 0 1440 809.999993" height="1080" preserveAspectRatio="xMidYMid meet" version="1.0"><defs><filter x="0%" y="0%" width="100%" height="100%" id="aca020aceb"><feColorMatrix values="0 0 0 0 1 0 0 0 0 1 0 0 0 0 1 0 0 0 1 0" color-interpolation-filters="sRGB"/></filter><mask id="3e5d03f66e"><g filter="url(#aca020aceb)"><rect x="-144" width="1728" fill="#000000" y="-80.999999" height="971.999992" fill-opacity="0.68"/></g></mask><clipPath id="dedecf8221"><path d="M 0 0 L 444.574219 0 L 444.574219 412.699219 L 0 412.699219 Z M 0 0 " clip-rule="nonzero"/></clipPath><clipPath id="aead004a3e"><path d="M 0 0 L 444.574219 0 L 444.574219 408 L 0 408 Z M 0 0 " clip-rule="nonzero"/></clipPath><clipPath id="9df73ce2e8"><path d="M 0 0 L 444.574219 0 L 444.574219 412.699219 L 0 412.699219 Z M 0 0 " clip-rule="nonzero"/></clipPath><clipPath id="92bc6b395b"><rect x="0" width="551" y="0" height="414"/></clipPath><mask id="201d429081"><g filter="url(#aca020aceb)"><rect x="-144" width="1728" fill="#000000" y="-80.999999" height="971.999992" fill-opacity="0.68"/></g></mask><clipPath id="210e19813c"><path d="M 0.199219 0 L 571.46875 0 L 571.46875 429 L 0.199219 429 Z M 0.199219 0 " clip-rule="nonzero"/></clipPath><clipPath id="a19b877890"><path d="M 25 4 L 571.46875 4 L 571.46875 429 L 25 429 Z M 25 4 " clip-rule="nonzero"/></clipPath><clipPath id="674fc9ed11"><path d="M 8 0 L 571.46875 0 L 571.46875 429 L 8 429 Z M 8 0 " clip-rule="nonzero"/></clipPath><clipPath id="61a3b9b9a7"><path d="M 2 14 L 571.46875 14 L 571.46875 429 L 2 429 Z M 2 14 " clip-rule="nonzero"/></clipPath><clipPath id="a933acc391"><rect x="0" width="671" y="0" height="436"/></clipPath><mask id="fe8b65654e"><g filter="url(#aca020aceb)"><rect x="-144" width="1728" fill="#000000" y="-80.999999" height="971.999992" fill-opacity="0.68"/></g></mask><clipPath id="b993dfb52c"><path d="M 0.679688 0 L 527 0 L 527 412.699219 L 0.679688 412.699219 Z M 0.679688 0 " clip-rule="nonzero"/></clipPath><clipPath id="3494666b92"><path d="M 92 0 L 527 0 L 527 408 L 92 408 Z M 92 0 " clip-rule="nonzero"/></clipPath><clipPath id="c98ae6df53"><path d="M 42 0 L 527 0 L 527 412.699219 L 42 412.699219 Z M 42 0 " clip-rule="nonzero"/></clipPath><clipPath id="66abe789ca"><path d="M 68 0 L 527 0 L 527 412.699219 L 68 412.699219 Z M 68 0 " clip-rule="nonzero"/></clipPath><clipPath id="f7ebb9d8d5"><path d="M 90 0 L 527 0 L 527 412.699219 L 90 412.699219 Z M 90 0 " clip-rule="nonzero"/></clipPath><clipPath id="58748a8be5"><rect x="0" width="527" y="0" height="414"/></clipPath><mask id="cc43291deb"><g filter="url(#aca020aceb)"><rect x="-144" width="1728" fill="#000000" y="-80.999999" height="971.999992" fill-opacity="0.68"/></g></mask><clipPath id="1285e0c21c"><path d="M 0 0.0625 L 486.125 0.0625 L 486.125 408 L 0 408 Z M 0 0.0625 " clip-rule="nonzero"/></clipPath><clipPath id="622395227c"><path d="M 0 4 L 486.125 4 L 486.125 408 L 0 408 Z M 0 4 " clip-rule="nonzero"/></clipPath><clipPath id="561a767868"><path d="M 0 0.0625 L 486.125 0.0625 L 486.125 408 L 0 408 Z M 0 0.0625 " clip-rule="nonzero"/></clipPath><clipPath id="239f642ea1"><path d="M 0 14 L 486.125 14 L 486.125 408 L 0 408 Z M 0 14 " clip-rule="nonzero"/></clipPath><clipPath id="e5bba2e1b7"><rect x="0" width="588" y="0" height="408"/></clipPath><mask id="8b809c9086"><g filter="url(#aca020aceb)"><rect x="-144" width="1728" fill="#000000" y="-80.999999" height="971.999992" fill-opacity="0.68"/></g></mask><clipPath id="2ddfb08e6e"><path d="M 36.417969 0.0625 L 661.441406 0.0625 L 661.441406 408 L 36.417969 408 Z M 36.417969 0.0625 " clip-rule="nonzero"/></clipPath><clipPath id="014647769c"><path d="M 36.417969 0.0625 L 570 0.0625 L 570 408 L 36.417969 408 Z M 36.417969 0.0625 " clip-rule="nonzero"/></clipPath><clipPath id="855e6cb9da"><path d="M 36.417969 4 L 620 4 L 620 408 L 36.417969 408 Z M 36.417969 4 " clip-rule="nonzero"/></clipPath><clipPath id="f367584e4b"><path d="M 36.417969 0.0625 L 594 0.0625 L 594 408 L 36.417969 408 Z M 36.417969 0.0625 " clip-rule="nonzero"/></clipPath><clipPath id="04fb1a63d1"><path d="M 36.417969 14 L 572 14 L 572 408 L 36.417969 408 Z M 36.417969 14 " clip-rule="nonzero"/></clipPath><clipPath id="53389e6a72"><rect x="0" width="662" y="0" height="408"/></clipPath><mask id="50db7445a2"><g filter="url(#aca020aceb)"><rect x="-144" width="1728" fill="#000000" y="-80.999999" height="971.999992" fill-opacity="0.68"/></g></mask><clipPath id="2cb9ec705d"><path d="M 31.113281 0.71875 L 455 0.71875 L 455 413 L 31.113281 413 Z M 31.113281 0.71875 " clip-rule="nonzero"/></clipPath><clipPath id="b71af95a52"><path d="M 31.113281 4 L 455 4 L 455 413 L 31.113281 413 Z M 31.113281 4 " clip-rule="nonzero"/></clipPath><clipPath id="efc327fcef"><path d="M 31.113281 0.71875 L 455 0.71875 L 455 413 L 31.113281 413 Z M 31.113281 0.71875 " clip-rule="nonzero"/></clipPath><clipPath id="d51c848a77"><path d="M 31.113281 15 L 455 15 L 455 413 L 31.113281 413 Z M 31.113281 15 " clip-rule="nonzero"/></clipPath><clipPath id="da364ba63e"><rect x="0" width="455" y="0" height="413"/></clipPath></defs><g mask="url(#3e5d03f66e)"><g transform="matrix(1, 0, 0, 1, 0, 0.000000000000039746)"><g clip-path="url(#92bc6b395b)"><g clip-path="url(#dedecf8221)"><path fill="#ffffff" d="M 541.246094 214.75 L 467.835938 257.089844 C 463.40625 259.648438 460.675781 264.371094 460.675781 269.484375 L 460.675781 365.007812 C 460.675781 391.355469 439.292969 412.71875 412.917969 412.71875 L -62.355469 412.71875 C -88.730469 412.71875 -110.109375 391.355469 -110.109375 365.007812 L -110.109375 32.160156 C -110.109375 5.808594 -88.730469 -15.550781 -62.355469 -15.550781 L 412.917969 -15.550781 C 439.292969 -15.550781 460.675781 5.808594 460.675781 32.160156 L 460.675781 127.683594 C 460.675781 132.796875 463.40625 137.519531 467.835938 140.074219 L 541.246094 182.417969 C 553.703125 189.601562 553.703125 207.5625 541.246094 214.75 Z M 541.246094 214.75 " fill-opacity="1" fill-rule="nonzero"/></g><g clip-path="url(#aead004a3e)"><path fill="#f6d7c3" d="M 412.609375 253.820312 L 386.019531 260.046875 L 391.53125 234.320312 L 398.214844 231.84375 L 416.183594 239.847656 Z M 433.726562 315.707031 L 436.222656 320.3125 L 439.054688 321.640625 L 443.464844 316.628906 L 436.359375 313.238281 Z M 390.3125 321.714844 L 388.988281 326.417969 L 400.222656 329.878906 L 401.894531 326.851562 L 397.851562 321.132812 Z M 417.253906 403.898438 L 422.691406 403.777344 L 427.3125 385.992188 L 410.554688 386.503906 Z M 442.9375 172.382812 L 450.339844 188.957031 L 455.671875 188.558594 L 459.25 171.027344 Z M 420.898438 155.289062 L 421.660156 149.167969 L 394.246094 131.820312 L 394.257812 140.191406 Z M -0.71875 113.085938 L -19.769531 96.054688 L -24.015625 98.066406 L -24.886719 102.90625 L -24.929688 109.90625 L -11.601562 119.121094 Z M -13.730469 270.046875 L -14.742188 273.070312 L -12.449219 281.257812 L -5.0625 275.933594 Z M -87.539062 385.40625 L -90.410156 388.96875 L -93.554688 394.632812 L -88.335938 405.03125 C -86.675781 406.109375 -84.949219 407.09375 -83.15625 407.964844 L -75.191406 407.910156 L -83.074219 385.664062 Z M -6.582031 312.382812 L -8.457031 327.167969 L -1.742188 330.644531 L 9.632812 309.949219 L 6.042969 306.882812 Z M -110.109375 221.089844 L -110.109375 230.945312 L -104.09375 225.808594 L -106.019531 220.734375 Z M 276.550781 147.265625 L 290.539062 163.921875 L 299.511719 166.074219 L 310.332031 147.203125 L 281.640625 140.070312 Z M -87.640625 98.96875 L -105.152344 69.96875 L -110.109375 77.417969 L -110.109375 113.386719 L -91.628906 106.976562 Z M 96.664062 206.050781 L 95.101562 213.324219 L 105.980469 212.390625 L 100.097656 204.488281 Z M 179.988281 330.382812 L 186.519531 335.273438 L 194.105469 328.089844 L 194.265625 323.839844 L 182.402344 315.667969 Z M 31.476562 253.289062 L 25.054688 252.382812 L 21.605469 259.378906 L 37.957031 263.808594 L 32.0625 254.03125 Z M 24.851562 398.238281 L 35.453125 399.886719 L 29.210938 394.609375 Z M 44.03125 165.710938 L 41.5625 174.21875 L 58.9375 173.011719 L 52.433594 163.652344 Z M 206.304688 -2.769531 L 203.929688 2.859375 L 214.742188 1.519531 L 212.398438 -2.480469 Z M 164.945312 26.898438 L 156.90625 27.253906 L 163.679688 34.304688 Z M 103.042969 175.375 L 97.3125 166.792969 L 96.25 166.390625 L 91.359375 166.4375 L 101.402344 180 Z M 97.222656 30.820312 L 97.136719 40.332031 L 105.929688 45.683594 L 110.535156 42.023438 L 100.777344 29.136719 Z M 224.5625 92.863281 L 231.925781 97.828125 L 234.171875 88.71875 L 223.367188 89.875 Z M 126.394531 246.503906 L 130.871094 246.183594 L 135.496094 234.292969 L 130.113281 235.359375 Z M 154.683594 214.109375 L 159.023438 241.949219 L 170.398438 225.671875 L 167.21875 214.582031 Z M 10.683594 -15.355469 L 7.757812 -5.339844 L 18.078125 -5.34375 L 14.578125 -15.324219 Z M 113.007812 -5.8125 L 112.683594 7.03125 L 119.433594 0.339844 L 118.949219 -4.503906 Z M 187.207031 193.59375 L 192.59375 209.621094 L 199.828125 201.199219 L 195.839844 193.832031 Z M 341.128906 343.410156 L 350.867188 348.054688 L 351.871094 337.296875 L 339.453125 340.535156 Z M -47.722656 61.050781 L -32.382812 57.308594 L -38.320312 51.09375 Z M -47.722656 61.050781 " fill-opacity="1" fill-rule="nonzero"/></g><g clip-path="url(#9df73ce2e8)"><path fill="#b8b8ca" d="M 64.3125 316.894531 L 67.769531 322.820312 L 64.796875 325.34375 L 59.40625 326.074219 Z M -72.339844 91.503906 L -69.027344 99.84375 L -51.761719 100.914062 L -51.03125 100.941406 L -50.125 100.167969 L -44.449219 84.050781 L -70.703125 84.914062 Z M 9.980469 159.167969 L 4.789062 156.496094 L -3.027344 161.761719 L -0.292969 172.699219 L 4.5 173.21875 L 13.1875 168.144531 L 12.085938 160.851562 Z M 181.816406 407.695312 L 190.4375 412.71875 L 203.277344 412.71875 L 204.277344 412.039062 L 204.933594 411.570312 L 205.207031 409.609375 L 181.871094 396.199219 Z M 258.253906 3.007812 L 267.710938 6.265625 L 261.917969 -2.160156 Z M 348.855469 -11.136719 L 345.570312 -11.417969 L 342.527344 -6.855469 L 346.335938 -1.6875 L 349.375 -2.5625 L 352.710938 -6.929688 L 350.476562 -10.660156 Z M 167.777344 155.433594 L 173.183594 165.453125 L 176.617188 157.199219 L 175.824219 155.144531 Z M 327.375 5.25 L 323.023438 2.894531 L 312.003906 -0.46875 L 298.949219 12.226562 L 308.054688 32.390625 L 316.554688 31.785156 L 331.945312 18.625 Z M 331.558594 130.144531 L 337.21875 128.441406 L 332.136719 120.617188 Z M 504.078125 188.515625 L 500.769531 190.894531 L 502.574219 193.917969 L 508.621094 190.980469 Z M 391.089844 368.050781 L 402.175781 365.921875 L 395.527344 355.234375 Z M -83.203125 119.453125 L -85.234375 129.292969 L -76.878906 135.660156 Z M -74.5625 27.664062 L -77.886719 37.707031 L -69.597656 31.761719 Z M -37.242188 202.519531 L -26.238281 211.410156 L -23.019531 201.507812 L -29.820312 196.15625 Z M 347.433594 214.679688 L 344.644531 221.257812 L 350.328125 225.335938 L 353.136719 225.902344 L 351.277344 212.042969 Z M 247.027344 260.929688 L 246.808594 267.515625 L 256.003906 266.144531 L 252.550781 260.03125 Z M 85.617188 257.1875 L 103.746094 245.976562 L 77.179688 244.292969 Z M 85.617188 257.1875 " fill-opacity="1" fill-rule="nonzero"/><path fill="#d3a6b3" d="M -95.410156 274.644531 L -85.402344 288.890625 L -97.761719 288.96875 Z M -51.058594 -15.402344 L -64.730469 -12.015625 L -70.472656 4.273438 L -43.359375 -7.636719 Z M 24.191406 126.433594 L 31.042969 129.851562 L 31.035156 124.730469 Z M 105.894531 94.347656 L 102.160156 95.050781 L 106.894531 100.042969 L 112.121094 98.121094 L 108.773438 94.914062 Z M 43.480469 288.34375 L 49.523438 293.335938 L 48.585938 285.253906 Z M 138.953125 318.738281 L 141.894531 323.011719 L 151.976562 320.863281 L 142.382812 313.902344 Z M 151.183594 192.050781 L 138.671875 180.140625 L 131.507812 183.011719 L 137.320312 195.5625 L 150.488281 201.019531 Z M 104.484375 330.472656 L 104.257812 331.40625 L 101.855469 340.734375 L 107.46875 332.789062 L 110.613281 328.296875 L 105.402344 330.113281 Z M 51.496094 221.511719 L 50.167969 225.191406 L 53.8125 223.789062 L 56.449219 222.746094 L 52.410156 219.035156 Z M 106.335938 291.597656 L 103.292969 286.992188 L 83.203125 290.753906 L 90.585938 298.140625 L 104.546875 295.445312 Z M 353.003906 81.90625 L 358.726562 84.902344 L 361.351562 82.179688 L 354.917969 68.914062 Z M 166.257812 -15.550781 L 164.121094 -15.550781 L 162.992188 -13.792969 L 160.039062 -9.007812 L 166.746094 -11.886719 Z M -3.015625 354.140625 L 23.851562 360.90625 L 18.324219 353.226562 Z M -68.054688 318.601562 L -66.925781 329.257812 L -46.148438 325.964844 L -32.914062 309.230469 L -44.777344 304.863281 Z M -37.921875 378.472656 L -37.210938 363.921875 L -54.660156 374.769531 Z M 2.664062 69.515625 L -0.453125 66.789062 L -9.015625 71.773438 L -0.167969 72.855469 Z M 481.511719 228.640625 L 478.105469 226.953125 L 476.382812 230.28125 L 482.472656 236.5625 Z M 74.902344 -15.550781 L 72.179688 -15.550781 L 73.609375 -13.867188 Z M -17.390625 -15.550781 L -13.226562 -9.554688 L -15.804688 -15.550781 Z M -97.644531 331.511719 L -101.933594 338.164062 L -101.261719 340.628906 L -96.660156 342.765625 L -91.539062 339.769531 L -93.730469 333.964844 Z M 145.765625 282.117188 L 147.445312 277.144531 L 140.378906 277.207031 L 143.707031 280.359375 Z M 86.777344 147.515625 L 92.015625 132.40625 L 66.003906 133.59375 Z M 84.429688 112.027344 L 90.015625 88.980469 L 86.636719 84.9375 L 53.347656 84.121094 L 47.335938 91.164062 L 58.90625 112.398438 L 80.519531 118.007812 Z M 72.730469 397.164062 L 65.441406 404.636719 L 67.019531 412.71875 L 84.289062 412.71875 L 87.003906 410.554688 L 76.804688 397.453125 Z M 73.738281 38.28125 L 47.894531 57.457031 L 74.652344 44.929688 Z M 27.65625 39.335938 L 25.335938 21.9375 L 21.035156 19.628906 L 15.472656 22.847656 L 18.59375 47.371094 Z M 130.914062 411.566406 L 131.914062 411.84375 L 140.546875 405.972656 L 125.707031 409.433594 Z M 409.703125 296.9375 L 418.726562 277.632812 L 401.234375 272.835938 Z M 437.863281 261.800781 L 442.125 261.746094 L 445.277344 251.980469 L 437.734375 257.246094 Z M 435.324219 211.78125 L 430.238281 213.039062 L 436.171875 221.875 L 438.582031 217.214844 Z M 196.421875 43.355469 L 206.550781 47.757812 L 223.046875 43.738281 L 226.640625 29.132812 Z M 249.019531 155.320312 L 253.769531 148.117188 L 240.566406 150.386719 L 243.5 155.316406 Z M 350.644531 262.152344 L 357.058594 258.460938 L 352.617188 255.320312 Z M 323.078125 54.855469 L 314.90625 56.476562 L 320.988281 66.132812 Z M 317.644531 198.414062 L 332.203125 174.339844 L 314.917969 169.261719 Z M 277.816406 43.234375 L 283.761719 36.460938 L 287.382812 30.550781 L 280.609375 29.867188 L 273.441406 33.546875 L 276.679688 40.734375 Z M 454.074219 50.285156 L 431.066406 38.835938 L 425.613281 50.109375 L 433.59375 58.367188 Z M 388.480469 -9.183594 L 387.730469 4.867188 L 388.933594 15 L 397.09375 9.816406 L 402.457031 -1.890625 Z M 407.210938 65.875 L 400.308594 62.085938 L 402.765625 69.886719 Z M 368.953125 298.921875 L 377.027344 292.304688 L 362.554688 296.902344 Z M 157 358.714844 L 164.128906 374.585938 L 172.628906 370.898438 L 163.550781 358.261719 Z M 312.476562 276.152344 L 306.96875 301.878906 L 333.554688 295.652344 L 337.128906 281.679688 L 319.160156 273.675781 Z M 440.101562 141.636719 L 441.238281 151.808594 L 449.453125 146.664062 L 454.917969 134.953125 L 440.949219 127.546875 Z M 254.496094 329.941406 L 256.589844 322.753906 L 251.015625 319.300781 Z M 440.554688 12.726562 L 434.910156 2.15625 L 436.953125 20.058594 Z M 167.652344 94.84375 L 182.644531 75.398438 L 168.152344 69.300781 Z M 233.40625 369.878906 L 250.378906 375.566406 L 245.304688 369.269531 Z M 290.050781 284.464844 L 278.195312 301.113281 L 284.957031 299.375 Z M 209.910156 355.257812 L 211.71875 357.699219 L 220.9375 355.519531 L 222.546875 350.152344 L 217.003906 342.03125 Z M 270.085938 372.089844 L 270.25 377.742188 L 276.664062 394.238281 L 280.824219 395.375 L 301.554688 381.703125 L 302.269531 374.40625 L 285.941406 366.238281 Z M 265.269531 114.78125 L 264.25 126.457031 L 274.925781 123.023438 Z M 127.355469 131.152344 L 137.015625 138.484375 L 153.105469 125.757812 L 128.28125 123.898438 Z M 303.347656 342.226562 L 309.046875 341.140625 L 309.734375 330.15625 L 300.527344 338.964844 Z M 231.441406 180.070312 L 230.058594 179.648438 L 226.398438 181.308594 L 226.742188 185.5625 L 230.710938 186.726562 L 233.648438 182.976562 Z M 275.1875 201.796875 L 280.421875 203.457031 L 275.320312 177.660156 Z M 275.1875 201.796875 " fill-opacity="1" fill-rule="nonzero"/><path fill="#f6d6c9" d="M 59.851562 -1.191406 L 48.875 10.105469 L 45.835938 0.933594 Z M 122.238281 376.925781 L 122.957031 360.117188 L 106.703125 367.285156 Z M 61.808594 366.503906 L 67.761719 357.109375 L 56.085938 355.871094 Z M 273.90625 72.988281 L 295.460938 110.484375 L 298.519531 109.90625 L 306.285156 78.589844 L 298.648438 69.9375 Z M 30.128906 62.089844 L 35.257812 84.605469 L 39.402344 91.136719 L 44.6875 87.910156 L 37.539062 62.628906 Z M -72.742188 231.097656 L -66.542969 228.464844 L -66.332031 223.457031 L -76.179688 227.050781 Z M 205.296875 291.265625 L 210.925781 290.09375 L 205.078125 282.347656 Z M 128.28125 67.777344 L 128.390625 71.6875 L 132.496094 71.636719 L 135.175781 61.636719 L 131.175781 58.851562 Z M 201.027344 132.613281 L 202.375 125.113281 L 194.015625 126.707031 Z M 234.765625 412.71875 L 240.921875 412.71875 L 242.554688 403.949219 L 237.714844 400.441406 Z M 248.464844 58.785156 L 250.742188 58.53125 L 252.699219 53.375 L 245.753906 53.675781 L 247.878906 57.71875 Z M 399.917969 197.851562 L 393.371094 196.523438 L 401.449219 213.816406 Z M 15.175781 199.679688 L 21.726562 204.363281 L 26.453125 201.742188 L 16.988281 194.214844 Z M 450.664062 85.8125 L 446.570312 86.425781 L 447.125 90.609375 L 458.328125 92.191406 L 460.675781 87.777344 L 460.675781 87.75 Z M -13.214844 19.777344 L -13.417969 17.148438 L -25.035156 12.878906 L -29.261719 15.84375 L -29.121094 26.710938 Z M 377.488281 114.3125 L 378.828125 116.175781 L 383.125 115.554688 L 380.003906 110.472656 Z M 369.027344 165.269531 L 383.054688 174.730469 L 377.628906 160.152344 Z M -52.285156 271.34375 L -44.320312 267.441406 L -50.792969 261.429688 Z M -26.296875 150.128906 L -28.308594 146.199219 L -32.839844 145.527344 L -35.460938 148.640625 L -32.617188 150.28125 Z M -101.871094 5.367188 C -102.359375 6.085938 -102.832031 6.820312 -103.28125 7.570312 L -100.386719 7.1875 Z M -70.597656 175.722656 L -71.992188 172.105469 L -79.117188 166.632812 L -80.144531 171.550781 L -75.433594 176.660156 Z M -102.859375 61.871094 L -95.996094 61.558594 L -94.292969 53.636719 L -107.71875 54.167969 Z M 288.03125 247.679688 L 291.886719 246.578125 L 301.265625 234.824219 L 293.722656 229.109375 Z M 349.007812 379.925781 L 345.839844 382.054688 L 343.640625 387.949219 L 349.246094 389.878906 L 349.117188 383.136719 Z M 374.332031 32.597656 L 371.164062 29.089844 L 368.871094 32.042969 L 367.929688 40.34375 L 372.539062 38.734375 Z M 418.449219 103.40625 L 415.121094 107.867188 L 419.292969 108.660156 L 422.117188 105.984375 L 421.339844 102.246094 Z M 319.65625 412.71875 L 346.183594 412.71875 L 326.898438 406.679688 Z M 438.449219 366.410156 L 440.726562 370.648438 L 455.570312 351.167969 L 446.222656 351.480469 Z M -15.613281 408.796875 L -14.570312 412.058594 L -13.679688 412.71875 L -10.722656 412.71875 L -5.121094 409 L -9.273438 405.40625 Z M -7.738281 237.449219 L -8.542969 240.539062 L -4.910156 239.429688 L -0.898438 234.140625 L -5.824219 230.597656 Z M 231.640625 216.632812 L 234.515625 228.570312 L 247.070312 231.273438 Z M 189.3125 242.707031 L 186.277344 249.648438 L 190.765625 255.585938 L 196.699219 253.75 L 198.847656 245.984375 L 195.644531 242.40625 Z M 189.3125 242.707031 " fill-opacity="1" fill-rule="nonzero"/></g></g></g></g><g mask="url(#201d429081)"><g transform="matrix(1, 0, 0, 1, 445, 0.000000000000039746)"><g clip-path="url(#a933acc391)"><g clip-path="url(#210e19813c)"><path fill="#ffffff" d="M 660.457031 233.527344 L 586.054688 276.460938 C 581.566406 279.054688 578.796875 283.84375 578.796875 289.027344 L 578.796875 385.890625 C 578.796875 412.609375 557.128906 434.269531 530.394531 434.269531 L 48.699219 434.269531 C 21.96875 434.269531 0.300781 412.609375 0.300781 385.890625 L 0.300781 48.378906 C 0.300781 21.660156 21.96875 0 48.699219 0 L 530.394531 0 C 557.128906 0 578.796875 21.660156 578.796875 48.378906 L 578.796875 145.242188 C 578.796875 150.425781 581.566406 155.214844 586.054688 157.808594 L 660.457031 200.742188 C 673.082031 208.027344 673.082031 226.242188 660.457031 233.527344 Z M 660.457031 233.527344 " fill-opacity="1" fill-rule="nonzero"/><path fill="#bad0c6" d="M 530.082031 273.144531 L 503.132812 279.460938 L 508.71875 253.371094 L 515.496094 250.859375 L 533.707031 258.976562 Z M 551.484375 335.898438 L 554.015625 340.570312 L 556.882812 341.914062 L 561.355469 336.832031 L 554.152344 333.394531 Z M 507.484375 341.992188 L 506.140625 346.761719 L 517.527344 350.265625 L 519.222656 347.199219 L 515.125 341.402344 Z M 534.789062 425.324219 L 540.300781 425.203125 L 544.984375 407.167969 L 528 407.6875 Z M 560.820312 190.566406 L 568.320312 207.375 L 573.726562 206.96875 L 577.355469 189.191406 Z M 538.484375 173.234375 L 539.253906 167.023438 L 511.46875 149.4375 L 511.480469 157.921875 Z M 111.167969 130.4375 L 91.863281 113.167969 L 87.554688 115.210938 L 86.675781 120.117188 L 86.628906 127.214844 L 100.136719 136.558594 Z M 97.980469 289.601562 L 96.957031 292.664062 L 99.277344 300.964844 L 106.765625 295.566406 Z M 23.175781 406.574219 L 20.265625 410.1875 L 17.078125 415.929688 L 22.367188 426.472656 C 24.050781 427.566406 25.800781 428.566406 27.617188 429.445312 L 35.691406 429.394531 L 27.699219 406.835938 Z M 105.226562 332.527344 L 103.324219 347.519531 L 110.128906 351.042969 L 121.660156 330.058594 L 118.023438 326.949219 Z M 0.300781 239.957031 L 0.300781 249.949219 L 6.398438 244.738281 L 4.445312 239.597656 Z M 392.1875 165.097656 L 406.363281 181.984375 L 415.457031 184.171875 L 426.421875 165.035156 L 397.34375 157.800781 Z M 23.074219 116.125 L 5.324219 86.71875 L 0.300781 94.273438 L 0.300781 130.742188 L 19.027344 124.242188 Z M 209.867188 224.707031 L 208.285156 232.082031 L 219.308594 231.136719 L 213.347656 223.125 Z M 294.316406 350.777344 L 300.9375 355.738281 L 308.625 348.457031 L 308.789062 344.144531 L 296.761719 335.859375 Z M 143.796875 272.609375 L 137.289062 271.6875 L 133.796875 278.78125 L 150.367188 283.273438 L 144.394531 273.359375 Z M 137.082031 419.585938 L 147.828125 421.257812 L 141.503906 415.90625 Z M 156.523438 183.800781 L 154.023438 192.425781 L 171.632812 191.203125 L 165.039062 181.714844 Z M 320.992188 12.960938 L 318.582031 18.667969 L 329.542969 17.308594 L 327.164062 13.253906 Z M 279.070312 43.042969 L 270.921875 43.40625 L 277.789062 50.554688 Z M 216.335938 193.601562 L 210.523438 184.898438 L 209.445312 184.488281 L 204.492188 184.539062 L 214.671875 198.292969 Z M 210.433594 47.019531 L 210.34375 56.664062 L 219.257812 62.09375 L 223.925781 58.378906 L 214.035156 45.3125 Z M 339.496094 109.929688 L 346.957031 114.964844 L 349.230469 105.730469 L 338.28125 106.902344 Z M 240 265.722656 L 244.539062 265.402344 L 249.222656 253.34375 L 243.769531 254.421875 Z M 268.671875 232.875 L 273.066406 261.109375 L 284.597656 244.601562 L 281.378906 233.359375 Z M 122.726562 0.199219 L 119.757812 10.355469 L 130.21875 10.351562 L 126.671875 0.230469 Z M 226.429688 9.875 L 226.105469 22.898438 L 232.945312 16.113281 L 232.453125 11.203125 Z M 301.632812 212.074219 L 307.09375 228.324219 L 314.425781 219.785156 L 310.382812 212.316406 Z M 457.636719 363.988281 L 467.507812 368.699219 L 468.523438 357.792969 L 455.9375 361.074219 Z M 63.527344 77.671875 L 79.074219 73.878906 L 73.058594 67.578125 Z M 63.527344 77.671875 " fill-opacity="1" fill-rule="nonzero"/></g><g clip-path="url(#a19b877890)"><path fill="#b8b8ca" d="M 177.082031 337.101562 L 180.582031 343.113281 L 177.570312 345.667969 L 172.105469 346.410156 Z M 38.578125 108.554688 L 41.9375 117.011719 L 59.433594 118.097656 L 60.179688 118.125 L 61.09375 117.339844 L 66.847656 100.996094 L 40.238281 101.871094 Z M 122.011719 177.164062 L 116.75 174.457031 L 108.828125 179.792969 L 111.601562 190.890625 L 116.460938 191.414062 L 125.265625 186.269531 L 124.144531 178.875 Z M 296.171875 429.175781 L 304.910156 434.269531 L 317.921875 434.269531 L 318.933594 433.582031 L 319.601562 433.101562 L 319.878906 431.117188 L 296.222656 417.519531 Z M 373.640625 18.820312 L 383.226562 22.121094 L 377.351562 13.578125 Z M 465.464844 4.476562 L 462.136719 4.191406 L 459.050781 8.816406 L 462.914062 14.058594 L 465.996094 13.167969 L 469.375 8.742188 L 467.109375 4.960938 Z M 281.941406 173.382812 L 287.421875 183.539062 L 290.902344 175.171875 L 290.097656 173.085938 Z M 443.695312 21.09375 L 439.289062 18.703125 L 428.117188 15.292969 L 414.886719 28.167969 L 424.117188 48.613281 L 432.730469 48 L 448.328125 34.652344 Z M 447.9375 147.738281 L 453.675781 146.011719 L 448.523438 138.074219 Z M 622.789062 206.925781 L 619.433594 209.335938 L 621.265625 212.402344 L 627.394531 209.425781 Z M 508.269531 388.976562 L 519.507812 386.816406 L 512.769531 375.980469 Z M 27.570312 136.894531 L 25.511719 146.875 L 33.980469 153.332031 Z M 36.328125 43.820312 L 32.957031 54.003906 L 41.359375 47.972656 Z M 74.152344 221.128906 L 85.304688 230.140625 L 88.566406 220.097656 L 81.671875 214.671875 Z M 464.023438 233.457031 L 461.199219 240.125 L 466.960938 244.261719 L 469.808594 244.835938 L 467.921875 230.78125 Z M 362.265625 280.351562 L 362.042969 287.03125 L 371.363281 285.640625 L 367.859375 279.441406 Z M 198.671875 276.558594 L 217.042969 265.1875 L 190.121094 263.484375 Z M 198.671875 276.558594 " fill-opacity="1" fill-rule="nonzero"/></g><g clip-path="url(#674fc9ed11)"><path fill="#d3a6b3" d="M 15.199219 294.257812 L 25.339844 308.707031 L 12.8125 308.785156 Z M 60.148438 0.152344 L 46.292969 3.582031 L 40.472656 20.101562 L 67.949219 8.027344 Z M 136.414062 143.972656 L 143.359375 147.4375 L 143.351562 142.246094 Z M 219.222656 111.4375 L 215.4375 112.148438 L 220.238281 117.210938 L 225.535156 115.261719 L 222.140625 112.011719 Z M 155.964844 308.152344 L 162.089844 313.214844 L 161.140625 305.019531 Z M 252.730469 338.972656 L 255.707031 343.308594 L 265.925781 341.125 L 256.203125 334.066406 Z M 265.125 210.511719 L 252.445312 198.433594 L 245.183594 201.34375 L 251.074219 214.070312 L 264.421875 219.601562 Z M 217.792969 350.871094 L 217.5625 351.816406 L 215.128906 361.277344 L 220.820312 353.21875 L 224.007812 348.664062 L 218.726562 350.507812 Z M 164.089844 240.382812 L 162.742188 244.117188 L 166.4375 242.695312 L 169.109375 241.636719 L 165.015625 237.871094 Z M 219.667969 311.449219 L 216.585938 306.78125 L 196.226562 310.597656 L 203.707031 318.085938 L 217.859375 315.351562 Z M 469.671875 98.824219 L 475.46875 101.859375 L 478.132812 99.097656 L 471.609375 85.648438 Z M 280.398438 0 L 278.234375 0 L 277.09375 1.78125 L 274.097656 6.632812 L 280.894531 3.714844 Z M 108.839844 374.871094 L 136.070312 381.730469 L 130.46875 373.945312 Z M 42.921875 338.835938 L 44.066406 349.640625 L 65.125 346.296875 L 78.539062 329.332031 L 66.515625 324.902344 Z M 73.460938 399.542969 L 74.183594 384.789062 L 56.496094 395.789062 Z M 114.597656 86.257812 L 111.4375 83.492188 L 102.757812 88.546875 L 111.726562 89.644531 Z M 599.917969 247.613281 L 596.464844 245.902344 L 594.714844 249.277344 L 600.890625 255.644531 Z M 187.8125 0 L 185.054688 0 L 186.503906 1.707031 Z M 94.273438 0 L 98.492188 6.078125 L 95.878906 0 Z M 12.933594 351.925781 L 8.585938 358.671875 L 9.265625 361.171875 L 13.929688 363.335938 L 19.121094 360.296875 L 16.898438 354.414062 Z M 259.632812 301.839844 L 261.335938 296.792969 L 254.175781 296.855469 L 257.546875 300.054688 Z M 199.847656 165.351562 L 205.15625 150.027344 L 178.792969 151.230469 Z M 197.46875 129.367188 L 203.128906 105.996094 L 199.703125 101.894531 L 165.964844 101.070312 L 159.871094 108.210938 L 171.601562 129.742188 L 193.503906 135.429688 Z M 185.609375 418.5 L 178.222656 426.074219 L 179.824219 434.269531 L 197.324219 434.269531 L 200.078125 432.074219 L 189.738281 418.792969 Z M 186.632812 54.585938 L 160.4375 74.03125 L 187.558594 61.328125 Z M 139.925781 55.65625 L 137.574219 38.015625 L 133.214844 35.671875 L 127.578125 38.9375 L 130.742188 63.804688 Z M 244.582031 433.101562 L 245.597656 433.382812 L 254.34375 427.429688 L 239.300781 430.9375 Z M 527.136719 316.867188 L 536.285156 297.289062 L 518.554688 292.425781 Z M 555.679688 281.234375 L 559.996094 281.183594 L 563.195312 271.28125 L 555.542969 276.617188 Z M 553.105469 230.515625 L 547.949219 231.792969 L 553.960938 240.75 L 556.40625 236.027344 Z M 310.972656 59.730469 L 321.238281 64.195312 L 337.957031 60.117188 L 341.601562 45.308594 Z M 364.28125 173.265625 L 369.097656 165.960938 L 355.714844 168.261719 L 358.6875 173.257812 Z M 467.28125 281.59375 L 473.78125 277.851562 L 469.277344 274.664062 Z M 439.339844 71.394531 L 431.058594 73.039062 L 437.222656 82.828125 Z M 433.832031 216.964844 L 448.589844 192.550781 L 431.070312 187.402344 Z M 393.464844 59.609375 L 399.492188 52.742188 L 403.164062 46.746094 L 396.296875 46.054688 L 389.035156 49.785156 L 392.316406 57.074219 Z M 572.105469 66.757812 L 548.785156 55.144531 L 543.261719 66.582031 L 551.351562 74.953125 Z M 505.625 6.457031 L 504.867188 20.703125 L 506.085938 30.976562 L 514.355469 25.722656 L 519.792969 13.851562 Z M 524.613281 82.566406 L 517.613281 78.726562 L 520.105469 86.636719 Z M 485.835938 318.878906 L 494.019531 312.167969 L 479.351562 316.828125 Z M 271.019531 379.507812 L 278.246094 395.601562 L 286.859375 391.863281 L 277.660156 379.050781 Z M 428.597656 295.789062 L 423.011719 321.878906 L 449.960938 315.5625 L 453.582031 301.394531 L 435.371094 293.277344 Z M 557.945312 159.390625 L 559.097656 169.703125 L 567.425781 164.488281 L 572.960938 152.613281 L 558.804688 145.101562 Z M 369.832031 350.332031 L 371.957031 343.042969 L 366.304688 339.542969 Z M 558.402344 28.671875 L 552.683594 17.957031 L 554.753906 36.109375 Z M 281.816406 111.941406 L 297.007812 92.222656 L 282.324219 86.039062 Z M 348.460938 390.828125 L 365.660156 396.597656 L 360.515625 390.210938 Z M 405.867188 304.21875 L 393.855469 321.101562 L 400.703125 319.335938 Z M 324.644531 376.003906 L 326.476562 378.476562 L 335.820312 376.269531 L 337.449219 370.828125 L 331.832031 362.59375 Z M 385.632812 393.074219 L 385.800781 398.804688 L 392.296875 415.527344 L 396.515625 416.679688 L 417.523438 402.820312 L 418.253906 395.421875 L 401.703125 387.136719 Z M 380.75 132.160156 L 379.71875 143.996094 L 390.539062 140.515625 Z M 240.976562 148.757812 L 250.765625 156.195312 L 267.070312 143.289062 L 241.914062 141.402344 Z M 419.34375 362.792969 L 425.121094 361.6875 L 425.816406 350.546875 L 416.484375 359.480469 Z M 346.464844 198.359375 L 345.0625 197.933594 L 341.355469 199.617188 L 341.703125 203.929688 L 345.726562 205.109375 L 348.703125 201.308594 Z M 390.800781 220.394531 L 396.109375 222.078125 L 390.9375 195.914062 Z M 390.800781 220.394531 " fill-opacity="1" fill-rule="nonzero"/></g><g clip-path="url(#61a3b9b9a7)"><path fill="#f6d6c9" d="M 172.558594 14.5625 L 161.433594 26.015625 L 158.355469 16.714844 Z M 235.789062 397.972656 L 236.515625 380.929688 L 220.042969 388.199219 Z M 174.539062 387.40625 L 180.574219 377.878906 L 168.738281 376.625 Z M 389.507812 89.777344 L 411.351562 127.800781 L 414.453125 127.214844 L 422.320312 95.460938 L 414.582031 86.683594 Z M 142.433594 78.726562 L 147.632812 101.558594 L 151.832031 108.179688 L 157.1875 104.910156 L 149.945312 79.277344 Z M 38.171875 250.101562 L 44.453125 247.433594 L 44.667969 242.355469 L 34.6875 246 Z M 319.96875 311.113281 L 325.675781 309.925781 L 319.75 302.074219 Z M 241.914062 84.496094 L 242.023438 88.460938 L 246.183594 88.410156 L 248.898438 78.269531 L 244.84375 75.441406 Z M 315.640625 150.238281 L 317.007812 142.636719 L 308.535156 144.25 Z M 349.835938 434.269531 L 356.074219 434.269531 L 357.730469 425.375 L 352.824219 421.820312 Z M 363.71875 75.375 L 366.027344 75.121094 L 368.011719 69.890625 L 360.972656 70.195312 L 363.128906 74.296875 Z M 517.21875 216.394531 L 510.585938 215.042969 L 518.773438 232.582031 Z M 127.28125 218.246094 L 133.917969 222.992188 L 138.707031 220.339844 L 129.117188 212.703125 Z M 568.648438 102.78125 L 564.5 103.402344 L 565.0625 107.648438 L 576.417969 109.25 L 578.796875 104.773438 L 578.796875 104.746094 Z M 98.503906 35.824219 L 98.296875 33.15625 L 86.527344 28.828125 L 82.242188 31.835938 L 82.382812 42.851562 Z M 494.488281 131.683594 L 495.847656 133.570312 L 500.199219 132.941406 L 497.039062 127.789062 Z M 485.914062 183.355469 L 500.128906 192.949219 L 494.628906 178.164062 Z M 58.90625 290.914062 L 66.976562 286.957031 L 60.417969 280.859375 Z M 85.242188 168 L 83.207031 164.015625 L 78.613281 163.335938 L 75.957031 166.488281 L 78.839844 168.152344 Z M 8.652344 21.210938 C 8.152344 21.941406 7.675781 22.6875 7.21875 23.445312 L 10.15625 23.058594 Z M 40.347656 193.953125 L 38.933594 190.285156 L 31.710938 184.738281 L 30.671875 189.722656 L 35.441406 194.902344 Z M 7.648438 78.503906 L 14.601562 78.1875 L 16.332031 70.15625 L 2.722656 70.695312 Z M 403.820312 266.917969 L 407.726562 265.800781 L 417.234375 253.882812 L 409.589844 248.089844 Z M 465.621094 401.015625 L 462.414062 403.175781 L 460.183594 409.152344 L 465.863281 411.109375 L 465.730469 404.273438 Z M 491.289062 48.824219 L 488.078125 45.265625 L 485.753906 48.261719 L 484.796875 56.675781 L 489.46875 55.046875 Z M 536 120.625 L 532.628906 125.148438 L 536.855469 125.953125 L 539.71875 123.238281 L 538.929688 119.445312 Z M 435.871094 434.269531 L 462.761719 434.269531 L 443.210938 428.148438 Z M 556.273438 387.3125 L 558.578125 391.609375 L 573.625 371.855469 L 564.148438 372.171875 Z M 96.070312 430.292969 L 97.132812 433.597656 L 98.03125 434.269531 L 101.027344 434.269531 L 106.707031 430.5 L 102.5 426.855469 Z M 104.054688 256.546875 L 103.238281 259.675781 L 106.921875 258.554688 L 110.984375 253.191406 L 105.996094 249.597656 Z M 346.667969 235.4375 L 349.582031 247.539062 L 362.304688 250.28125 Z M 303.765625 261.875 L 300.691406 268.914062 L 305.242188 274.9375 L 311.253906 273.070312 L 313.429688 265.195312 L 310.1875 261.570312 Z M 303.765625 261.875 " fill-opacity="1" fill-rule="nonzero"/></g></g></g></g><g mask="url(#fe8b65654e)"><g transform="matrix(1, 0, 0, 1, 913, 0.000000000000039746)"><g clip-path="url(#58748a8be5)"><g clip-path="url(#b993dfb52c)"><path fill="#ffffff" d="M 10.046875 214.75 L 83.457031 257.089844 C 87.886719 259.648438 90.617188 264.371094 90.617188 269.484375 L 90.617188 365.007812 C 90.617188 391.355469 112 412.71875 138.375 412.71875 L 613.648438 412.71875 C 640.023438 412.71875 661.402344 391.355469 661.402344 365.007812 L 661.402344 32.160156 C 661.402344 5.808594 640.023438 -15.550781 613.648438 -15.550781 L 138.375 -15.550781 C 112 -15.550781 90.617188 5.808594 90.617188 32.160156 L 90.617188 127.683594 C 90.617188 132.796875 87.886719 137.519531 83.457031 140.074219 L 10.046875 182.417969 C -2.410156 189.601562 -2.410156 207.5625 10.046875 214.75 Z M 10.046875 214.75 " fill-opacity="1" fill-rule="nonzero"/></g><g clip-path="url(#3494666b92)"><path fill="#bad0c6" d="M 138.683594 253.820312 L 165.273438 260.046875 L 159.761719 234.320312 L 153.078125 231.84375 L 135.109375 239.847656 Z M 117.566406 315.707031 L 115.070312 320.3125 L 112.238281 321.640625 L 107.828125 316.628906 L 114.933594 313.238281 Z M 160.980469 321.714844 L 162.304688 326.417969 L 151.070312 329.878906 L 149.398438 326.851562 L 153.441406 321.132812 Z M 134.039062 403.898438 L 128.601562 403.777344 L 123.980469 385.992188 L 140.738281 386.503906 Z M 108.355469 172.382812 L 100.953125 188.957031 L 95.621094 188.558594 L 92.042969 171.027344 Z M 130.394531 155.289062 L 129.632812 149.167969 L 157.046875 131.820312 L 157.035156 140.191406 Z M 552.011719 113.085938 L 571.0625 96.054688 L 575.3125 98.066406 L 576.179688 102.90625 L 576.222656 109.90625 L 562.894531 119.121094 Z M 565.023438 270.046875 L 566.035156 273.070312 L 563.742188 281.257812 L 556.355469 275.933594 Z M 638.832031 385.40625 L 641.703125 388.96875 L 644.847656 394.632812 L 639.628906 405.03125 C 637.96875 406.109375 636.242188 407.09375 634.449219 407.964844 L 626.484375 407.910156 L 634.367188 385.664062 Z M 557.875 312.382812 L 559.75 327.167969 L 553.035156 330.644531 L 541.660156 309.949219 L 545.25 306.882812 Z M 661.402344 221.089844 L 661.402344 230.945312 L 655.386719 225.808594 L 657.3125 220.734375 Z M 274.742188 147.265625 L 260.753906 163.921875 L 251.78125 166.074219 L 240.960938 147.203125 L 269.652344 140.070312 Z M 638.933594 98.96875 L 656.445312 69.96875 L 661.402344 77.417969 L 661.402344 113.386719 L 642.925781 106.976562 Z M 454.628906 206.050781 L 456.191406 213.324219 L 445.316406 212.390625 L 451.195312 204.488281 Z M 371.304688 330.382812 L 364.773438 335.273438 L 357.1875 328.089844 L 357.027344 323.839844 L 368.890625 315.667969 Z M 519.816406 253.289062 L 526.238281 252.382812 L 529.6875 259.378906 L 513.335938 263.808594 L 519.230469 254.03125 Z M 526.441406 398.238281 L 515.839844 399.886719 L 522.082031 394.609375 Z M 507.261719 165.710938 L 509.730469 174.21875 L 492.355469 173.011719 L 498.859375 163.652344 Z M 344.988281 -2.769531 L 347.363281 2.859375 L 336.550781 1.519531 L 338.894531 -2.480469 Z M 386.347656 26.898438 L 394.386719 27.253906 L 387.613281 34.304688 Z M 448.25 175.375 L 453.980469 166.792969 L 455.042969 166.390625 L 459.933594 166.4375 L 449.890625 180 Z M 454.070312 30.820312 L 454.15625 40.332031 L 445.363281 45.683594 L 440.757812 42.023438 L 450.515625 29.136719 Z M 326.730469 92.863281 L 319.367188 97.828125 L 317.121094 88.71875 L 327.925781 89.875 Z M 424.898438 246.503906 L 420.421875 246.183594 L 415.796875 234.292969 L 421.179688 235.359375 Z M 396.609375 214.109375 L 392.269531 241.949219 L 380.894531 225.671875 L 384.074219 214.582031 Z M 540.609375 -15.355469 L 543.535156 -5.339844 L 533.214844 -5.34375 L 536.714844 -15.324219 Z M 438.285156 -5.8125 L 438.609375 7.03125 L 431.859375 0.339844 L 432.34375 -4.503906 Z M 364.085938 193.59375 L 358.699219 209.621094 L 351.464844 201.199219 L 355.453125 193.832031 Z M 210.164062 343.410156 L 200.425781 348.054688 L 199.421875 337.296875 L 211.839844 340.535156 Z M 599.015625 61.050781 L 583.675781 57.308594 L 589.613281 51.09375 Z M 599.015625 61.050781 " fill-opacity="1" fill-rule="nonzero"/></g><g clip-path="url(#c98ae6df53)"><path fill="#b8b8ca" d="M 486.980469 316.894531 L 483.523438 322.820312 L 486.496094 325.34375 L 491.886719 326.074219 Z M 623.632812 91.503906 L 620.320312 99.84375 L 603.054688 100.914062 L 602.324219 100.941406 L 601.417969 100.167969 L 595.742188 84.050781 L 621.996094 84.914062 Z M 541.3125 159.167969 L 546.503906 156.496094 L 554.324219 161.761719 L 551.585938 172.699219 L 546.792969 173.21875 L 538.105469 168.144531 L 539.207031 160.851562 Z M 369.476562 407.695312 L 360.855469 412.71875 L 348.015625 412.71875 L 347.015625 412.039062 L 346.359375 411.570312 L 346.085938 409.609375 L 369.421875 396.199219 Z M 293.039062 3.007812 L 283.582031 6.265625 L 289.375 -2.160156 Z M 202.4375 -11.136719 L 205.722656 -11.417969 L 208.765625 -6.855469 L 204.957031 -1.6875 L 201.917969 -2.5625 L 198.582031 -6.929688 L 200.816406 -10.660156 Z M 383.515625 155.433594 L 378.109375 165.453125 L 374.675781 157.199219 L 375.46875 155.144531 Z M 223.917969 5.25 L 228.269531 2.894531 L 239.289062 -0.46875 L 252.34375 12.226562 L 243.238281 32.390625 L 234.738281 31.785156 L 219.347656 18.625 Z M 219.734375 130.144531 L 214.074219 128.441406 L 219.15625 120.617188 Z M 47.214844 188.515625 L 50.523438 190.894531 L 48.71875 193.917969 L 42.671875 190.980469 Z M 160.203125 368.050781 L 149.117188 365.921875 L 155.765625 355.234375 Z M 634.496094 119.453125 L 636.527344 129.292969 L 628.171875 135.660156 Z M 625.855469 27.664062 L 629.179688 37.707031 L 620.890625 31.761719 Z M 588.535156 202.519531 L 577.53125 211.410156 L 574.3125 201.507812 L 581.113281 196.15625 Z M 203.859375 214.679688 L 206.648438 221.257812 L 200.964844 225.335938 L 198.15625 225.902344 L 200.015625 212.042969 Z M 304.265625 260.929688 L 304.484375 267.515625 L 295.289062 266.144531 L 298.742188 260.03125 Z M 465.675781 257.1875 L 447.546875 245.976562 L 474.113281 244.292969 Z M 465.675781 257.1875 " fill-opacity="1" fill-rule="nonzero"/></g><g clip-path="url(#66abe789ca)"><path fill="#edddac" d="M 646.703125 274.644531 L 636.695312 288.890625 L 649.054688 288.96875 Z M 602.351562 -15.402344 L 616.023438 -12.015625 L 621.765625 4.273438 L 594.652344 -7.636719 Z M 527.101562 126.433594 L 520.25 129.851562 L 520.257812 124.730469 Z M 445.398438 94.347656 L 449.132812 95.050781 L 444.398438 100.042969 L 439.171875 98.121094 L 442.519531 94.914062 Z M 507.8125 288.34375 L 501.769531 293.335938 L 502.707031 285.253906 Z M 412.339844 318.738281 L 409.398438 323.011719 L 399.316406 320.863281 L 408.910156 313.902344 Z M 400.109375 192.050781 L 412.621094 180.140625 L 419.785156 183.011719 L 413.972656 195.5625 L 400.804688 201.019531 Z M 446.808594 330.472656 L 447.035156 331.40625 L 449.4375 340.734375 L 443.824219 332.789062 L 440.679688 328.296875 L 445.890625 330.113281 Z M 499.796875 221.511719 L 501.125 225.191406 L 497.480469 223.789062 L 494.84375 222.746094 L 498.882812 219.035156 Z M 444.957031 291.597656 L 448 286.992188 L 468.089844 290.753906 L 460.707031 298.140625 L 446.746094 295.445312 Z M 198.289062 81.90625 L 192.566406 84.902344 L 189.941406 82.179688 L 196.375 68.914062 Z M 385.035156 -15.550781 L 387.171875 -15.550781 L 388.300781 -13.792969 L 391.253906 -9.007812 L 384.546875 -11.886719 Z M 554.308594 354.140625 L 527.441406 360.90625 L 532.96875 353.226562 Z M 619.347656 318.601562 L 618.21875 329.257812 L 597.441406 325.964844 L 584.207031 309.230469 L 596.070312 304.863281 Z M 589.214844 378.472656 L 588.503906 363.921875 L 605.953125 374.769531 Z M 548.628906 69.515625 L 551.746094 66.789062 L 560.308594 71.773438 L 551.460938 72.855469 Z M 69.78125 228.640625 L 73.1875 226.953125 L 74.910156 230.28125 L 68.820312 236.5625 Z M 476.390625 -15.550781 L 479.113281 -15.550781 L 477.683594 -13.867188 Z M 568.683594 -15.550781 L 564.519531 -9.554688 L 567.097656 -15.550781 Z M 648.9375 331.511719 L 653.226562 338.164062 L 652.554688 340.628906 L 647.953125 342.765625 L 642.832031 339.769531 L 645.023438 333.964844 Z M 405.527344 282.117188 L 403.847656 277.144531 L 410.914062 277.207031 L 407.585938 280.359375 Z M 464.515625 147.515625 L 459.277344 132.40625 L 485.289062 133.59375 Z M 466.863281 112.027344 L 461.277344 88.980469 L 464.65625 84.9375 L 497.945312 84.121094 L 503.957031 91.164062 L 492.386719 112.398438 L 470.773438 118.007812 Z M 478.5625 397.164062 L 485.851562 404.636719 L 484.273438 412.71875 L 467.003906 412.71875 L 464.289062 410.554688 L 474.492188 397.453125 Z M 477.554688 38.28125 L 503.398438 57.457031 L 476.640625 44.929688 Z M 523.636719 39.335938 L 525.957031 21.9375 L 530.257812 19.628906 L 535.820312 22.847656 L 532.699219 47.371094 Z M 420.378906 411.566406 L 419.378906 411.84375 L 410.746094 405.972656 L 425.585938 409.433594 Z M 141.589844 296.9375 L 132.566406 277.632812 L 150.058594 272.835938 Z M 113.429688 261.800781 L 109.167969 261.746094 L 106.015625 251.980469 L 113.558594 257.246094 Z M 115.96875 211.78125 L 121.054688 213.039062 L 115.121094 221.875 L 112.710938 217.214844 Z M 354.871094 43.355469 L 344.742188 47.757812 L 328.246094 43.738281 L 324.652344 29.132812 Z M 302.273438 155.320312 L 297.523438 148.117188 L 310.726562 150.386719 L 307.792969 155.316406 Z M 200.648438 262.152344 L 194.234375 258.460938 L 198.675781 255.320312 Z M 228.214844 54.855469 L 236.386719 56.476562 L 230.304688 66.132812 Z M 233.648438 198.414062 L 219.089844 174.339844 L 236.375 169.261719 Z M 273.476562 43.234375 L 267.53125 36.460938 L 263.910156 30.550781 L 270.683594 29.867188 L 277.851562 33.546875 L 274.613281 40.734375 Z M 97.21875 50.285156 L 120.230469 38.835938 L 125.679688 50.109375 L 117.699219 58.367188 Z M 162.8125 -9.183594 L 163.5625 4.867188 L 162.359375 15 L 154.199219 9.816406 L 148.835938 -1.890625 Z M 144.082031 65.875 L 150.984375 62.085938 L 148.527344 69.886719 Z M 182.339844 298.921875 L 174.265625 292.304688 L 188.738281 296.902344 Z M 394.292969 358.714844 L 387.164062 374.585938 L 378.664062 370.898438 L 387.742188 358.261719 Z M 238.816406 276.152344 L 244.324219 301.878906 L 217.738281 295.652344 L 214.164062 281.679688 L 232.132812 273.675781 Z M 111.191406 141.636719 L 110.054688 151.808594 L 101.839844 146.664062 L 96.375 134.953125 L 110.34375 127.546875 Z M 296.796875 329.941406 L 294.703125 322.753906 L 300.277344 319.300781 Z M 110.738281 12.726562 L 116.382812 2.15625 L 114.339844 20.058594 Z M 383.640625 94.84375 L 368.648438 75.398438 L 383.140625 69.300781 Z M 317.886719 369.878906 L 300.914062 375.566406 L 305.988281 369.269531 Z M 261.242188 284.464844 L 273.097656 301.113281 L 266.335938 299.375 Z M 341.382812 355.257812 L 339.574219 357.699219 L 330.355469 355.519531 L 328.746094 350.152344 L 334.289062 342.03125 Z M 281.207031 372.089844 L 281.042969 377.742188 L 274.628906 394.238281 L 270.46875 395.375 L 249.738281 381.703125 L 249.023438 374.40625 L 265.351562 366.238281 Z M 286.023438 114.78125 L 287.042969 126.457031 L 276.367188 123.023438 Z M 423.9375 131.152344 L 414.277344 138.484375 L 398.1875 125.757812 L 423.011719 123.898438 Z M 247.945312 342.226562 L 242.246094 341.140625 L 241.558594 330.15625 L 250.765625 338.964844 Z M 319.851562 180.070312 L 321.234375 179.648438 L 324.894531 181.308594 L 324.550781 185.5625 L 320.582031 186.726562 L 317.644531 182.976562 Z M 276.105469 201.796875 L 270.871094 203.457031 L 275.972656 177.660156 Z M 276.105469 201.796875 " fill-opacity="1" fill-rule="nonzero"/></g><g clip-path="url(#f7ebb9d8d5)"><path fill="#f6d6c9" d="M 491.441406 -1.191406 L 502.417969 10.105469 L 505.457031 0.933594 Z M 429.054688 376.925781 L 428.335938 360.117188 L 444.589844 367.285156 Z M 489.484375 366.503906 L 483.53125 357.109375 L 495.210938 355.871094 Z M 277.386719 72.988281 L 255.832031 110.484375 L 252.773438 109.90625 L 245.007812 78.589844 L 252.644531 69.9375 Z M 521.164062 62.089844 L 516.035156 84.605469 L 511.890625 91.136719 L 506.605469 87.910156 L 513.753906 62.628906 Z M 624.035156 231.097656 L 617.835938 228.464844 L 617.625 223.457031 L 627.472656 227.050781 Z M 345.996094 291.265625 L 340.367188 290.09375 L 346.214844 282.347656 Z M 423.011719 67.777344 L 422.902344 71.6875 L 418.796875 71.636719 L 416.117188 61.636719 L 420.117188 58.851562 Z M 350.265625 132.613281 L 348.917969 125.113281 L 357.277344 126.707031 Z M 316.527344 412.71875 L 310.371094 412.71875 L 308.738281 403.949219 L 313.578125 400.441406 Z M 302.828125 58.785156 L 300.550781 58.53125 L 298.59375 53.375 L 305.539062 53.675781 L 303.414062 57.71875 Z M 151.375 197.851562 L 157.921875 196.523438 L 149.84375 213.816406 Z M 536.117188 199.679688 L 529.566406 204.363281 L 524.839844 201.742188 L 534.304688 194.214844 Z M 100.628906 85.8125 L 104.722656 86.425781 L 104.167969 90.609375 L 92.964844 92.191406 L 90.617188 87.777344 L 90.617188 87.75 Z M 564.507812 19.777344 L 564.710938 17.148438 L 576.328125 12.878906 L 580.554688 15.84375 L 580.414062 26.710938 Z M 173.804688 114.3125 L 172.464844 116.175781 L 168.167969 115.554688 L 171.289062 110.472656 Z M 182.265625 165.269531 L 168.238281 174.730469 L 173.664062 160.152344 Z M 603.578125 271.34375 L 595.613281 267.441406 L 602.085938 261.429688 Z M 577.589844 150.128906 L 579.601562 146.199219 L 584.132812 145.527344 L 586.753906 148.640625 L 583.910156 150.28125 Z M 653.164062 5.367188 C 653.652344 6.085938 654.125 6.820312 654.574219 7.570312 L 651.679688 7.1875 Z M 621.890625 175.722656 L 623.285156 172.105469 L 630.410156 166.632812 L 631.4375 171.550781 L 626.726562 176.660156 Z M 654.152344 61.871094 L 647.289062 61.558594 L 645.585938 53.636719 L 659.011719 54.167969 Z M 263.261719 247.679688 L 259.40625 246.578125 L 250.027344 234.824219 L 257.570312 229.109375 Z M 202.285156 379.925781 L 205.453125 382.054688 L 207.652344 387.949219 L 202.046875 389.878906 L 202.175781 383.136719 Z M 176.960938 32.597656 L 180.128906 29.089844 L 182.421875 32.042969 L 183.363281 40.34375 L 178.753906 38.734375 Z M 132.84375 103.40625 L 136.171875 107.867188 L 132 108.660156 L 129.175781 105.984375 L 129.953125 102.246094 Z M 231.636719 412.71875 L 205.109375 412.71875 L 224.394531 406.679688 Z M 112.84375 366.410156 L 110.566406 370.648438 L 95.722656 351.167969 L 105.070312 351.480469 Z M 566.90625 408.796875 L 565.863281 412.058594 L 564.972656 412.71875 L 562.015625 412.71875 L 556.414062 409 L 560.566406 405.40625 Z M 559.03125 237.449219 L 559.835938 240.539062 L 556.203125 239.429688 L 552.191406 234.140625 L 557.117188 230.597656 Z M 319.652344 216.632812 L 316.777344 228.570312 L 304.222656 231.273438 Z M 361.984375 242.707031 L 365.015625 249.648438 L 360.527344 255.585938 L 354.59375 253.75 L 352.445312 245.984375 L 355.648438 242.40625 Z M 361.984375 242.707031 " fill-opacity="1" fill-rule="nonzero"/></g></g></g></g><g mask="url(#cc43291deb)"><g transform="matrix(1, 0, 0, 1, 0, 402)"><g clip-path="url(#e5bba2e1b7)"><g clip-path="url(#1285e0c21c)"><path fill="#ffffff" d="M 578.296875 230.359375 L 504.886719 272.703125 C 500.457031 275.257812 497.726562 279.984375 497.726562 285.09375 L 497.726562 380.617188 C 497.726562 406.96875 476.34375 428.328125 449.96875 428.328125 L -25.304688 428.328125 C -51.679688 428.328125 -73.058594 406.96875 -73.058594 380.617188 L -73.058594 47.773438 C -73.058594 21.421875 -51.679688 0.0625 -25.304688 0.0625 L 449.96875 0.0625 C 476.34375 0.0625 497.726562 21.421875 497.726562 47.773438 L 497.726562 143.296875 C 497.726562 148.40625 500.457031 153.132812 504.886719 155.6875 L 578.296875 198.03125 C 590.753906 205.214844 590.753906 223.175781 578.296875 230.359375 Z M 578.296875 230.359375 " fill-opacity="1" fill-rule="nonzero"/><path fill="#bad0c6" d="M 449.660156 269.429688 L 423.070312 275.660156 L 428.582031 249.933594 L 435.265625 247.457031 L 453.234375 255.460938 Z M 470.773438 331.320312 L 473.273438 335.925781 L 476.105469 337.25 L 480.515625 332.242188 L 473.410156 328.851562 Z M 427.363281 337.328125 L 426.039062 342.03125 L 437.273438 345.488281 L 438.941406 342.464844 L 434.902344 336.746094 Z M 454.304688 419.511719 L 459.742188 419.386719 L 464.363281 401.605469 L 447.605469 402.113281 Z M 479.984375 187.996094 L 487.390625 204.570312 L 492.722656 204.167969 L 496.300781 186.640625 Z M 457.949219 170.902344 L 458.710938 164.777344 L 431.296875 147.433594 L 431.308594 155.804688 Z M 36.328125 128.699219 L 17.28125 111.667969 L 13.03125 113.679688 L 12.164062 118.519531 L 12.121094 125.519531 L 25.445312 134.730469 Z M 23.320312 285.660156 L 22.308594 288.679688 L 24.597656 296.867188 L 31.984375 291.542969 Z M -50.488281 401.019531 L -53.363281 404.582031 L -56.503906 410.246094 L -51.285156 420.640625 C -49.625 421.71875 -47.898438 422.707031 -46.105469 423.574219 L -38.140625 423.523438 L -46.027344 401.277344 Z M 30.46875 327.996094 L 28.59375 342.78125 L 35.308594 346.253906 L 46.683594 325.558594 L 43.09375 322.492188 Z M -73.058594 236.699219 L -73.058594 246.558594 L -67.042969 241.417969 L -68.96875 236.347656 Z M 313.601562 162.878906 L 327.589844 179.53125 L 336.5625 181.6875 L 347.382812 162.816406 L 318.691406 155.679688 Z M -50.589844 114.582031 L -68.101562 85.582031 L -73.058594 93.03125 L -73.058594 129 L -54.582031 122.585938 Z M 133.714844 221.660156 L 132.152344 228.9375 L 143.027344 228.003906 L 137.148438 220.101562 Z M 217.035156 345.992188 L 223.570312 350.886719 L 231.15625 343.703125 L 231.316406 339.453125 L 219.453125 331.277344 Z M 68.527344 268.902344 L 62.101562 267.996094 L 58.65625 274.988281 L 75.007812 279.417969 L 69.113281 269.644531 Z M 61.902344 413.851562 L 72.5 415.5 L 66.261719 410.222656 Z M 81.082031 181.324219 L 78.613281 189.828125 L 95.988281 188.621094 L 89.484375 179.265625 Z M 243.355469 12.84375 L 240.980469 18.472656 L 251.792969 17.128906 L 249.449219 13.132812 Z M 201.996094 42.507812 L 193.957031 42.867188 L 200.730469 49.917969 Z M 140.09375 190.988281 L 134.359375 182.40625 L 133.296875 182 L 128.410156 182.050781 L 138.453125 195.613281 Z M 134.273438 46.429688 L 134.183594 55.945312 L 142.980469 61.296875 L 147.582031 57.632812 L 137.828125 44.75 Z M 261.613281 108.472656 L 268.976562 113.4375 L 271.21875 104.332031 L 260.417969 105.488281 Z M 163.445312 262.113281 L 167.921875 261.796875 L 172.546875 249.902344 L 167.164062 250.96875 Z M 191.734375 229.71875 L 196.070312 257.5625 L 207.449219 241.28125 L 204.269531 230.195312 Z M 47.734375 0.257812 L 44.804688 10.273438 L 55.128906 10.269531 L 51.625 0.289062 Z M 150.058594 9.800781 L 149.734375 22.644531 L 156.484375 15.949219 L 156 11.109375 Z M 224.257812 209.207031 L 229.644531 225.230469 L 236.875 216.808594 L 232.890625 209.441406 Z M 378.179688 359.023438 L 387.917969 363.667969 L 388.921875 352.910156 L 376.503906 356.148438 Z M -10.671875 76.660156 L 4.667969 72.921875 L -1.269531 66.707031 Z M -10.671875 76.660156 " fill-opacity="1" fill-rule="nonzero"/></g><g clip-path="url(#622395227c)"><path fill="#b8b8ca" d="M 101.363281 332.503906 L 104.820312 338.433594 L 101.847656 340.953125 L 96.453125 341.683594 Z M -35.289062 107.117188 L -31.976562 115.453125 L -14.710938 116.527344 L -13.980469 116.554688 L -13.074219 115.78125 L -7.398438 99.660156 L -33.652344 100.523438 Z M 47.03125 174.777344 L 41.835938 172.105469 L 34.019531 177.371094 L 36.757812 188.3125 L 41.550781 188.832031 L 50.238281 183.757812 L 49.132812 176.464844 Z M 218.867188 423.308594 L 227.488281 428.328125 L 240.328125 428.328125 L 241.328125 427.652344 L 241.984375 427.179688 L 242.257812 425.21875 L 218.917969 411.8125 Z M 295.304688 18.621094 L 304.761719 21.875 L 298.964844 13.453125 Z M 385.90625 4.476562 L 382.621094 4.195312 L 379.578125 8.753906 L 383.386719 13.925781 L 386.425781 13.046875 L 389.761719 8.683594 L 387.523438 4.953125 Z M 204.828125 171.046875 L 210.234375 181.066406 L 213.667969 172.8125 L 212.875 170.757812 Z M 364.425781 20.863281 L 360.074219 18.507812 L 349.054688 15.140625 L 335.996094 27.839844 L 345.105469 48.003906 L 353.605469 47.398438 L 368.992188 34.234375 Z M 368.609375 145.757812 L 374.269531 144.054688 L 369.1875 136.230469 Z M 541.128906 204.128906 L 537.820312 206.503906 L 539.625 209.53125 L 545.671875 206.59375 Z M 428.140625 383.664062 L 439.226562 381.535156 L 432.578125 370.847656 Z M -46.152344 135.066406 L -48.183594 144.90625 L -39.828125 151.273438 Z M -37.511719 43.277344 L -40.835938 53.316406 L -32.546875 47.371094 Z M -0.191406 218.132812 L 10.8125 227.023438 L 14.03125 217.117188 L 7.226562 211.769531 Z M 384.484375 230.292969 L 381.695312 236.871094 L 387.378906 240.949219 L 390.1875 241.511719 L 388.328125 227.65625 Z M 284.078125 276.539062 L 283.859375 283.125 L 293.054688 281.753906 L 289.597656 275.644531 Z M 122.667969 272.800781 L 140.796875 261.585938 L 114.230469 259.90625 Z M 122.667969 272.800781 " fill-opacity="1" fill-rule="nonzero"/></g><g clip-path="url(#561a767868)"><path fill="#edddac" d="M -58.359375 290.253906 L -48.351562 304.503906 L -60.714844 304.582031 Z M -14.007812 0.210938 L -27.679688 3.59375 L -33.421875 19.882812 L -6.3125 7.976562 Z M 61.238281 142.042969 L 68.09375 145.460938 L 68.085938 140.34375 Z M 142.945312 109.960938 L 139.210938 110.660156 L 143.945312 115.652344 L 149.171875 113.730469 L 145.824219 110.527344 Z M 80.53125 303.957031 L 86.574219 308.949219 L 85.636719 300.867188 Z M 176.003906 334.347656 L 178.945312 338.625 L 189.023438 336.476562 L 179.429688 329.511719 Z M 188.234375 207.664062 L 175.722656 195.753906 L 168.558594 198.625 L 174.371094 211.175781 L 187.539062 216.628906 Z M 141.535156 346.085938 L 141.308594 347.019531 L 138.902344 356.347656 L 144.519531 348.398438 L 147.664062 343.910156 L 142.453125 345.726562 Z M 88.546875 237.121094 L 87.214844 240.804688 L 90.863281 239.402344 L 93.5 238.359375 L 89.460938 234.644531 Z M 143.386719 307.207031 L 140.34375 302.605469 L 120.253906 306.367188 L 127.636719 313.753906 L 141.597656 311.054688 Z M 390.054688 97.519531 L 395.777344 100.511719 L 398.402344 97.789062 L 391.964844 84.527344 Z M 203.304688 0.0625 L 201.171875 0.0625 L 200.042969 1.816406 L 197.089844 6.601562 L 203.796875 3.722656 Z M 34.035156 369.753906 L 60.902344 376.519531 L 55.375 368.839844 Z M -31.003906 334.214844 L -29.875 344.871094 L -9.097656 341.574219 L 4.136719 324.84375 L -7.726562 320.472656 Z M -0.871094 394.082031 L -0.160156 379.53125 L -17.609375 390.378906 Z M 39.710938 85.128906 L 36.597656 82.402344 L 28.03125 87.382812 L 36.882812 88.46875 Z M 518.5625 244.253906 L 515.15625 242.5625 L 513.429688 245.894531 L 519.523438 252.175781 Z M 111.953125 0.0625 L 109.230469 0.0625 L 110.660156 1.746094 Z M 19.660156 0.0625 L 23.824219 6.058594 L 21.246094 0.0625 Z M -60.59375 347.125 L -64.886719 353.777344 L -64.214844 356.242188 L -59.613281 358.378906 L -54.488281 355.382812 L -56.679688 349.578125 Z M 182.816406 297.730469 L 184.496094 292.753906 L 177.429688 292.816406 L 180.757812 295.96875 Z M 123.828125 163.128906 L 129.066406 148.015625 L 103.054688 149.203125 Z M 121.480469 127.640625 L 127.0625 104.589844 L 123.6875 100.550781 L 90.398438 99.734375 L 84.386719 106.777344 L 95.957031 128.011719 L 117.570312 133.617188 Z M 109.777344 412.777344 L 102.492188 420.25 L 104.070312 428.328125 L 121.339844 428.328125 L 124.054688 426.164062 L 113.851562 413.066406 Z M 110.789062 53.890625 L 84.945312 73.070312 L 111.703125 60.542969 Z M 64.707031 54.949219 L 62.386719 37.550781 L 58.085938 35.242188 L 52.523438 38.460938 L 55.644531 62.984375 Z M 167.964844 427.179688 L 168.964844 427.457031 L 177.597656 421.582031 L 162.753906 425.046875 Z M 446.753906 312.550781 L 455.777344 293.242188 L 438.285156 288.445312 Z M 474.914062 277.410156 L 479.171875 277.359375 L 482.328125 267.59375 L 474.78125 272.855469 Z M 472.375 227.394531 L 467.285156 228.652344 L 473.222656 237.484375 L 475.632812 232.828125 Z M 233.472656 58.964844 L 243.601562 63.367188 L 260.097656 59.347656 L 263.691406 44.742188 Z M 286.070312 170.929688 L 290.820312 163.730469 L 277.617188 166 L 280.550781 170.925781 Z M 387.695312 277.761719 L 394.109375 274.074219 L 389.667969 270.933594 Z M 360.128906 70.46875 L 351.957031 72.089844 L 358.039062 81.746094 Z M 354.695312 214.027344 L 369.253906 189.953125 L 351.96875 184.875 Z M 314.867188 58.84375 L 320.8125 52.074219 L 324.429688 46.160156 L 317.65625 45.480469 L 310.492188 49.160156 L 313.730469 56.347656 Z M 491.121094 65.898438 L 468.113281 54.445312 L 462.664062 65.722656 L 470.644531 73.980469 Z M 425.53125 6.429688 L 424.78125 20.480469 L 425.984375 30.609375 L 434.140625 25.425781 L 439.507812 13.722656 Z M 444.261719 81.484375 L 437.359375 77.699219 L 439.816406 85.5 Z M 406.003906 314.53125 L 414.078125 307.917969 L 399.601562 312.511719 Z M 194.050781 374.324219 L 201.179688 390.199219 L 209.679688 386.511719 L 200.601562 373.875 Z M 349.527344 291.765625 L 344.015625 317.492188 L 370.605469 311.261719 L 374.179688 297.292969 L 356.210938 289.289062 Z M 477.148438 157.246094 L 478.289062 167.417969 L 486.503906 162.277344 L 491.964844 150.566406 L 477.996094 143.160156 Z M 291.542969 345.554688 L 293.640625 338.363281 L 288.066406 334.914062 Z M 477.601562 28.339844 L 471.960938 17.769531 L 474.003906 35.671875 Z M 204.703125 110.453125 L 219.691406 91.007812 L 205.203125 84.914062 Z M 270.457031 385.488281 L 287.429688 391.179688 L 282.355469 384.878906 Z M 327.101562 300.078125 L 315.246094 316.722656 L 322.007812 314.988281 Z M 246.960938 370.871094 L 248.769531 373.308594 L 257.984375 371.132812 L 259.59375 365.765625 L 254.050781 357.644531 Z M 307.136719 387.703125 L 307.300781 393.355469 L 313.710938 409.847656 L 317.875 410.984375 L 338.601562 397.3125 L 339.320312 390.019531 L 322.992188 381.851562 Z M 302.320312 130.394531 L 301.300781 142.066406 L 311.976562 138.636719 Z M 164.40625 146.765625 L 174.066406 154.097656 L 190.15625 141.367188 L 165.332031 139.511719 Z M 340.398438 357.839844 L 346.097656 356.75 L 346.785156 345.765625 L 337.578125 354.574219 Z M 268.488281 195.679688 L 267.105469 195.261719 L 263.449219 196.921875 L 263.792969 201.175781 L 267.761719 202.335938 L 270.699219 198.589844 Z M 312.234375 217.410156 L 317.472656 219.070312 L 312.371094 193.269531 Z M 312.234375 217.410156 " fill-opacity="1" fill-rule="nonzero"/></g><g clip-path="url(#239f642ea1)"><path fill="#f6d6c9" d="M 96.902344 14.421875 L 85.925781 25.71875 L 82.886719 16.542969 Z M 159.289062 392.535156 L 160.007812 375.726562 L 143.753906 382.898438 Z M 98.855469 382.113281 L 104.8125 372.71875 L 93.132812 371.480469 Z M 310.957031 88.597656 L 332.511719 126.097656 L 335.570312 125.515625 L 343.332031 94.203125 L 335.699219 85.546875 Z M 67.179688 77.703125 L 72.308594 100.21875 L 76.453125 106.746094 L 81.738281 103.523438 L 74.589844 78.242188 Z M -35.691406 246.707031 L -29.496094 244.078125 L -29.285156 239.066406 L -39.128906 242.660156 Z M 242.347656 306.875 L 247.976562 305.703125 L 242.128906 297.960938 Z M 165.332031 83.390625 L 165.441406 87.300781 L 169.542969 87.25 L 172.222656 77.25 L 168.222656 74.460938 Z M 238.074219 148.222656 L 239.425781 140.726562 L 231.066406 142.320312 Z M 271.816406 428.328125 L 277.972656 428.328125 L 279.605469 419.558594 L 274.765625 416.054688 Z M 285.515625 74.398438 L 287.789062 74.144531 L 289.75 68.988281 L 282.804688 69.289062 L 284.929688 73.332031 Z M 436.964844 213.464844 L 430.421875 212.132812 L 438.5 229.429688 Z M 52.226562 215.292969 L 58.777344 219.972656 L 63.5 217.355469 L 54.039062 209.828125 Z M 487.710938 101.421875 L 483.621094 102.035156 L 484.175781 106.222656 L 495.378906 107.800781 L 497.726562 103.386719 L 497.726562 103.359375 Z M 23.835938 35.390625 L 23.632812 32.761719 L 12.015625 28.492188 L 7.789062 31.457031 L 7.929688 42.320312 Z M 414.539062 129.925781 L 415.878906 131.785156 L 420.175781 131.164062 L 417.054688 126.085938 Z M 406.078125 180.882812 L 420.105469 190.34375 L 414.679688 175.761719 Z M -15.234375 286.957031 L -7.269531 283.050781 L -13.742188 277.042969 Z M 10.75 165.742188 L 8.742188 161.8125 L 4.210938 161.140625 L 1.589844 164.25 L 4.433594 165.890625 Z M -64.820312 20.976562 C -65.3125 21.699219 -65.78125 22.433594 -66.234375 23.183594 L -63.335938 22.800781 Z M -33.546875 191.335938 L -34.941406 187.71875 L -42.066406 182.246094 L -43.09375 187.160156 L -38.386719 192.273438 Z M -65.808594 77.480469 L -58.945312 77.167969 L -57.242188 69.25 L -70.667969 69.78125 Z M 325.082031 263.289062 L 328.9375 262.1875 L 338.316406 250.4375 L 330.773438 244.722656 Z M 386.058594 395.539062 L 382.890625 397.664062 L 380.691406 403.558594 L 386.296875 405.492188 L 386.167969 398.75 Z M 411.382812 48.210938 L 408.214844 44.703125 L 405.921875 47.65625 L 404.980469 55.953125 L 409.589844 54.347656 Z M 455.5 119.019531 L 452.171875 123.480469 L 456.34375 124.273438 L 459.167969 121.597656 L 458.386719 117.859375 Z M 356.707031 428.328125 L 383.234375 428.328125 L 363.945312 422.292969 Z M 475.5 382.019531 L 477.777344 386.257812 L 492.621094 366.78125 L 483.273438 367.089844 Z M 21.4375 424.40625 L 22.480469 427.667969 L 23.371094 428.328125 L 26.328125 428.328125 L 31.929688 424.613281 L 27.777344 421.019531 Z M 29.3125 253.0625 L 28.503906 256.148438 L 32.140625 255.042969 L 36.148438 249.753906 L 31.226562 246.210938 Z M 268.691406 232.246094 L 271.566406 244.179688 L 284.121094 246.882812 Z M 226.359375 258.316406 L 223.328125 265.261719 L 227.816406 271.199219 L 233.75 269.359375 L 235.898438 261.59375 L 232.695312 258.015625 Z M 226.359375 258.316406 " fill-opacity="1" fill-rule="nonzero"/></g></g></g></g><g mask="url(#8b809c9086)"><g transform="matrix(1, 0, 0, 1, 450, 402)"><g clip-path="url(#53389e6a72)"><g clip-path="url(#2ddfb08e6e)"><path fill="#ffffff" d="M 651.949219 230.359375 L 578.539062 272.703125 C 574.109375 275.257812 571.378906 279.984375 571.378906 285.09375 L 571.378906 380.617188 C 571.378906 406.96875 549.996094 428.328125 523.621094 428.328125 L 48.347656 428.328125 C 21.972656 428.328125 0.59375 406.96875 0.59375 380.617188 L 0.59375 47.773438 C 0.59375 21.421875 21.972656 0.0625 48.347656 0.0625 L 523.621094 0.0625 C 549.996094 0.0625 571.378906 21.421875 571.378906 47.773438 L 571.378906 143.296875 C 571.378906 148.40625 574.109375 153.132812 578.539062 155.6875 L 651.949219 198.03125 C 664.40625 205.214844 664.40625 223.175781 651.949219 230.359375 Z M 651.949219 230.359375 " fill-opacity="1" fill-rule="nonzero"/></g><g clip-path="url(#014647769c)"><path fill="#bad0c6" d="M 523.3125 269.429688 L 496.722656 275.660156 L 502.234375 249.933594 L 508.917969 247.457031 L 526.886719 255.460938 Z M 544.429688 331.320312 L 546.925781 335.925781 L 549.757812 337.25 L 554.171875 332.242188 L 547.0625 328.851562 Z M 501.019531 337.328125 L 499.691406 342.03125 L 510.925781 345.488281 L 512.597656 342.464844 L 508.554688 336.746094 Z M 527.957031 419.511719 L 533.394531 419.386719 L 538.015625 401.605469 L 521.257812 402.113281 Z M 553.640625 187.996094 L 561.042969 204.570312 L 566.375 204.167969 L 569.953125 186.640625 Z M 531.601562 170.902344 L 532.363281 164.777344 L 504.949219 147.433594 L 504.960938 155.804688 Z M 109.984375 128.699219 L 90.9375 111.667969 L 86.6875 113.679688 L 85.816406 118.519531 L 85.773438 125.519531 L 99.101562 134.730469 Z M 96.972656 285.660156 L 95.960938 288.679688 L 98.253906 296.867188 L 105.640625 291.542969 Z M 23.164062 401.019531 L 20.292969 404.582031 L 17.148438 410.246094 L 22.367188 420.640625 C 24.027344 421.71875 25.753906 422.707031 27.546875 423.574219 L 35.515625 423.523438 L 27.628906 401.277344 Z M 104.125 327.996094 L 102.246094 342.78125 L 108.960938 346.253906 L 120.335938 325.558594 L 116.746094 322.492188 Z M 0.59375 236.699219 L 0.59375 246.558594 L 6.609375 241.417969 L 4.683594 236.347656 Z M 387.257812 162.878906 L 401.242188 179.53125 L 410.214844 181.6875 L 421.035156 162.816406 L 392.34375 155.679688 Z M 23.0625 114.582031 L 5.550781 85.582031 L 0.59375 93.03125 L 0.59375 129 L 19.074219 122.585938 Z M 207.367188 221.660156 L 205.808594 228.9375 L 216.683594 228.003906 L 210.800781 220.101562 Z M 290.691406 345.992188 L 297.222656 350.886719 L 304.808594 343.703125 L 304.96875 339.453125 L 293.105469 331.277344 Z M 142.179688 268.902344 L 135.757812 267.996094 L 132.308594 274.988281 L 148.660156 279.417969 L 142.765625 269.644531 Z M 135.554688 413.851562 L 146.15625 415.5 L 139.914062 410.222656 Z M 154.734375 181.324219 L 152.269531 189.828125 L 169.640625 188.621094 L 163.136719 179.265625 Z M 317.011719 12.84375 L 314.632812 18.472656 L 325.445312 17.128906 L 323.101562 13.132812 Z M 275.648438 42.507812 L 267.609375 42.867188 L 274.382812 49.917969 Z M 213.746094 190.988281 L 208.015625 182.40625 L 206.953125 182 L 202.0625 182.050781 L 212.109375 195.613281 Z M 207.929688 46.429688 L 207.839844 55.945312 L 216.632812 61.296875 L 221.238281 57.632812 L 211.480469 44.75 Z M 335.269531 108.472656 L 342.628906 113.4375 L 344.875 104.332031 L 334.070312 105.488281 Z M 237.097656 262.113281 L 241.578125 261.796875 L 246.199219 249.902344 L 240.816406 250.96875 Z M 265.386719 229.71875 L 269.726562 257.5625 L 281.101562 241.28125 L 277.921875 230.195312 Z M 121.386719 0.257812 L 118.460938 10.273438 L 128.78125 10.269531 L 125.28125 0.289062 Z M 223.710938 9.800781 L 223.386719 22.644531 L 230.136719 15.949219 L 229.652344 11.109375 Z M 297.910156 209.207031 L 303.300781 225.230469 L 310.53125 216.808594 L 306.542969 209.441406 Z M 451.835938 359.023438 L 461.570312 363.667969 L 462.574219 352.910156 L 450.15625 356.148438 Z M 62.980469 76.660156 L 78.320312 72.921875 L 72.382812 66.707031 Z M 62.980469 76.660156 " fill-opacity="1" fill-rule="nonzero"/></g><g clip-path="url(#855e6cb9da)"><path fill="#b8b8ca" d="M 175.015625 332.503906 L 178.472656 338.433594 L 175.5 340.953125 L 170.109375 341.683594 Z M 38.363281 107.117188 L 41.675781 115.453125 L 58.941406 116.527344 L 59.675781 116.554688 L 60.578125 115.78125 L 66.253906 99.660156 L 40 100.523438 Z M 120.683594 174.777344 L 115.492188 172.105469 L 107.675781 177.371094 L 110.414062 188.3125 L 115.207031 188.832031 L 123.890625 183.757812 L 122.789062 176.464844 Z M 292.519531 423.308594 L 301.140625 428.328125 L 313.980469 428.328125 L 314.980469 427.652344 L 315.636719 427.179688 L 315.910156 425.21875 L 292.574219 411.8125 Z M 368.957031 18.621094 L 378.414062 21.875 L 372.621094 13.453125 Z M 459.558594 4.476562 L 456.273438 4.195312 L 453.230469 8.753906 L 457.039062 13.925781 L 460.078125 13.046875 L 463.414062 8.683594 L 461.179688 4.953125 Z M 278.480469 171.046875 L 283.886719 181.066406 L 287.320312 172.8125 L 286.527344 170.757812 Z M 438.078125 20.863281 L 433.730469 18.507812 L 422.707031 15.140625 L 409.652344 27.839844 L 418.757812 48.003906 L 427.257812 47.398438 L 442.648438 34.234375 Z M 442.265625 145.757812 L 447.925781 144.054688 L 442.839844 136.230469 Z M 614.78125 204.128906 L 611.472656 206.503906 L 613.28125 209.53125 L 619.324219 206.59375 Z M 501.792969 383.664062 L 512.878906 381.535156 L 506.230469 370.847656 Z M 27.5 135.066406 L 25.46875 144.90625 L 33.824219 151.273438 Z M 36.140625 43.277344 L 32.816406 53.316406 L 41.105469 47.371094 Z M 73.460938 218.132812 L 84.46875 227.023438 L 87.683594 217.117188 L 80.882812 211.769531 Z M 458.136719 230.292969 L 455.347656 236.871094 L 461.03125 240.949219 L 463.839844 241.511719 L 461.980469 227.65625 Z M 357.734375 276.539062 L 357.515625 283.125 L 366.707031 281.753906 L 363.253906 275.644531 Z M 196.320312 272.800781 L 214.449219 261.585938 L 187.882812 259.90625 Z M 196.320312 272.800781 " fill-opacity="1" fill-rule="nonzero"/></g><g clip-path="url(#f367584e4b)"><path fill="#f6d7c3" d="M 15.292969 290.253906 L 25.300781 304.503906 L 12.941406 304.582031 Z M 59.644531 0.210938 L 45.972656 3.59375 L 40.230469 19.882812 L 67.34375 7.976562 Z M 134.894531 142.042969 L 141.746094 145.460938 L 141.738281 140.34375 Z M 216.597656 109.960938 L 212.863281 110.660156 L 217.597656 115.652344 L 222.824219 113.730469 L 219.476562 110.527344 Z M 154.183594 303.957031 L 160.226562 308.949219 L 159.289062 300.867188 Z M 249.660156 334.347656 L 252.597656 338.625 L 262.679688 336.476562 L 253.085938 329.511719 Z M 261.886719 207.664062 L 249.375 195.753906 L 242.210938 198.625 L 248.023438 211.175781 L 261.195312 216.628906 Z M 215.1875 346.085938 L 214.960938 347.019531 L 212.558594 356.347656 L 218.171875 348.398438 L 221.320312 343.910156 L 216.109375 345.726562 Z M 162.199219 237.121094 L 160.871094 240.804688 L 164.515625 239.402344 L 167.15625 238.359375 L 163.113281 234.644531 Z M 217.039062 307.207031 L 213.996094 302.605469 L 193.90625 306.367188 L 201.289062 313.753906 L 215.25 311.054688 Z M 463.710938 97.519531 L 469.429688 100.511719 L 472.054688 97.789062 L 465.621094 84.527344 Z M 276.960938 0.0625 L 274.824219 0.0625 L 273.699219 1.816406 L 270.742188 6.601562 L 277.449219 3.722656 Z M 107.6875 369.753906 L 134.554688 376.519531 L 129.027344 368.839844 Z M 42.648438 334.214844 L 43.777344 344.871094 L 64.554688 341.574219 L 77.792969 324.84375 L 65.925781 320.472656 Z M 72.78125 394.082031 L 73.492188 379.53125 L 56.042969 390.378906 Z M 113.367188 85.128906 L 110.25 82.402344 L 101.6875 87.382812 L 110.535156 88.46875 Z M 592.21875 244.253906 L 588.808594 242.5625 L 587.085938 245.894531 L 593.175781 252.175781 Z M 185.605469 0.0625 L 182.882812 0.0625 L 184.3125 1.746094 Z M 93.3125 0.0625 L 97.476562 6.058594 L 94.898438 0.0625 Z M 13.058594 347.125 L 8.769531 353.777344 L 9.441406 356.242188 L 14.042969 358.378906 L 19.164062 355.382812 L 16.972656 349.578125 Z M 256.46875 297.730469 L 258.148438 292.753906 L 251.082031 292.816406 L 254.414062 295.96875 Z M 197.480469 163.128906 L 202.71875 148.015625 L 176.707031 149.203125 Z M 195.132812 127.640625 L 200.71875 104.589844 L 197.339844 100.550781 L 164.050781 99.734375 L 158.039062 106.777344 L 169.609375 128.011719 L 191.222656 133.617188 Z M 183.433594 412.777344 L 176.144531 420.25 L 177.722656 428.328125 L 194.992188 428.328125 L 197.707031 426.164062 L 187.507812 413.066406 Z M 184.441406 53.890625 L 158.597656 73.070312 L 185.355469 60.542969 Z M 138.359375 54.949219 L 136.039062 37.550781 L 131.738281 35.242188 L 126.175781 38.460938 L 129.296875 62.984375 Z M 241.617188 427.179688 L 242.621094 427.457031 L 251.25 421.582031 L 236.410156 425.046875 Z M 520.40625 312.550781 L 529.433594 293.242188 L 511.9375 288.445312 Z M 548.566406 277.410156 L 552.828125 277.359375 L 555.984375 267.59375 L 548.4375 272.855469 Z M 546.027344 227.394531 L 540.941406 228.652344 L 546.875 237.484375 L 549.285156 232.828125 Z M 307.125 58.964844 L 317.253906 63.367188 L 333.75 59.347656 L 337.347656 44.742188 Z M 359.722656 170.929688 L 364.476562 163.730469 L 351.269531 166 L 354.203125 170.925781 Z M 461.347656 277.761719 L 467.761719 274.074219 L 463.320312 270.933594 Z M 433.78125 70.46875 L 425.609375 72.089844 L 431.691406 81.746094 Z M 428.347656 214.027344 L 442.90625 189.953125 L 425.621094 184.875 Z M 388.519531 58.84375 L 394.464844 52.074219 L 398.085938 46.160156 L 391.3125 45.480469 L 384.144531 49.160156 L 387.382812 56.347656 Z M 564.777344 65.898438 L 541.769531 54.445312 L 536.316406 65.722656 L 544.296875 73.980469 Z M 499.183594 6.429688 L 498.433594 20.480469 L 499.636719 30.609375 L 507.796875 25.425781 L 513.160156 13.722656 Z M 517.914062 81.484375 L 511.011719 77.699219 L 513.46875 85.5 Z M 479.65625 314.53125 L 487.730469 307.917969 L 473.257812 312.511719 Z M 267.703125 374.324219 L 274.832031 390.199219 L 283.335938 386.511719 L 274.253906 373.875 Z M 423.179688 291.765625 L 417.671875 317.492188 L 444.257812 311.261719 L 447.835938 297.292969 L 429.863281 289.289062 Z M 550.804688 157.246094 L 551.941406 167.417969 L 560.15625 162.277344 L 565.621094 150.566406 L 551.652344 143.160156 Z M 365.199219 345.554688 L 367.292969 338.363281 L 361.71875 334.914062 Z M 551.257812 28.339844 L 545.613281 17.769531 L 547.65625 35.671875 Z M 278.355469 110.453125 L 293.347656 91.007812 L 278.855469 84.914062 Z M 344.113281 385.488281 L 361.082031 391.179688 L 356.007812 384.878906 Z M 400.753906 300.078125 L 388.902344 316.722656 L 395.660156 314.988281 Z M 320.613281 370.871094 L 322.421875 373.308594 L 331.640625 371.132812 L 333.25 365.765625 L 327.707031 357.644531 Z M 380.789062 387.703125 L 380.953125 393.355469 L 387.367188 409.847656 L 391.527344 410.984375 L 412.257812 397.3125 L 412.972656 390.019531 L 396.644531 381.851562 Z M 375.972656 130.394531 L 374.953125 142.066406 L 385.628906 138.636719 Z M 238.058594 146.765625 L 247.71875 154.097656 L 263.808594 141.367188 L 238.984375 139.511719 Z M 414.050781 357.839844 L 419.75 356.75 L 420.4375 345.765625 L 411.230469 354.574219 Z M 342.144531 195.679688 L 340.761719 195.261719 L 337.101562 196.921875 L 337.445312 201.175781 L 341.417969 202.335938 L 344.351562 198.589844 Z M 385.890625 217.410156 L 391.128906 219.070312 L 386.023438 193.269531 Z M 385.890625 217.410156 " fill-opacity="1" fill-rule="nonzero"/></g><g clip-path="url(#04fb1a63d1)"><path fill="#f6d6c9" d="M 170.558594 14.421875 L 159.578125 25.71875 L 156.542969 16.542969 Z M 232.941406 392.535156 L 233.660156 375.726562 L 217.40625 382.898438 Z M 172.511719 382.113281 L 178.464844 372.71875 L 166.789062 371.480469 Z M 384.609375 88.597656 L 406.164062 126.097656 L 409.226562 125.515625 L 416.988281 94.203125 L 409.351562 85.546875 Z M 140.832031 77.703125 L 145.964844 100.21875 L 150.105469 106.746094 L 155.390625 103.523438 L 148.242188 78.242188 Z M 37.960938 246.707031 L 44.160156 244.078125 L 44.371094 239.066406 L 34.523438 242.660156 Z M 316.003906 306.875 L 321.628906 305.703125 L 315.785156 297.960938 Z M 238.988281 83.390625 L 239.09375 87.300781 L 243.199219 87.25 L 245.878906 77.25 L 241.878906 74.460938 Z M 311.730469 148.222656 L 313.078125 140.726562 L 304.71875 142.320312 Z M 345.46875 428.328125 L 351.625 428.328125 L 353.257812 419.558594 L 348.417969 416.054688 Z M 359.167969 74.398438 L 361.445312 74.144531 L 363.402344 68.988281 L 356.457031 69.289062 L 358.585938 73.332031 Z M 510.621094 213.464844 L 504.074219 212.132812 L 512.15625 229.429688 Z M 125.882812 215.292969 L 132.429688 219.972656 L 137.15625 217.355469 L 127.691406 209.828125 Z M 561.367188 101.421875 L 557.273438 102.035156 L 557.828125 106.222656 L 569.03125 107.800781 L 571.378906 103.386719 L 571.378906 103.359375 Z M 97.488281 35.390625 L 97.285156 32.761719 L 85.671875 28.492188 L 81.441406 31.457031 L 81.582031 42.320312 Z M 488.195312 129.925781 L 489.535156 131.785156 L 493.828125 131.164062 L 490.710938 126.085938 Z M 479.730469 180.882812 L 493.761719 190.34375 L 488.335938 175.761719 Z M 58.417969 286.957031 L 66.382812 283.050781 L 59.914062 277.042969 Z M 84.40625 165.742188 L 82.398438 161.8125 L 77.863281 161.140625 L 75.242188 164.25 L 78.085938 165.890625 Z M 8.832031 20.976562 C 8.34375 21.699219 7.871094 22.433594 7.421875 23.183594 L 10.316406 22.800781 Z M 40.109375 191.335938 L 38.710938 187.71875 L 31.585938 182.246094 L 30.558594 187.160156 L 35.269531 192.273438 Z M 7.84375 77.480469 L 14.707031 77.167969 L 16.410156 69.25 L 2.984375 69.78125 Z M 398.734375 263.289062 L 402.589844 262.1875 L 411.96875 250.4375 L 404.425781 244.722656 Z M 459.710938 395.539062 L 456.546875 397.664062 L 454.347656 403.558594 L 459.949219 405.492188 L 459.820312 398.75 Z M 485.035156 48.210938 L 481.871094 44.703125 L 479.574219 47.65625 L 478.632812 55.953125 L 483.242188 54.347656 Z M 529.152344 119.019531 L 525.824219 123.480469 L 529.996094 124.273438 L 532.820312 121.597656 L 532.042969 117.859375 Z M 430.359375 428.328125 L 456.890625 428.328125 L 437.601562 422.292969 Z M 549.152344 382.019531 L 551.429688 386.257812 L 566.273438 366.78125 L 556.925781 367.089844 Z M 95.089844 424.40625 L 96.132812 427.667969 L 97.023438 428.328125 L 99.980469 428.328125 L 105.585938 424.613281 L 101.429688 421.019531 Z M 102.96875 253.0625 L 102.160156 256.148438 L 105.792969 255.042969 L 109.804688 249.753906 L 104.878906 246.210938 Z M 342.34375 232.246094 L 345.21875 244.179688 L 357.773438 246.882812 Z M 300.015625 258.316406 L 296.980469 265.261719 L 301.46875 271.199219 L 307.402344 269.359375 L 309.550781 261.59375 L 306.347656 258.015625 Z M 300.015625 258.316406 " fill-opacity="1" fill-rule="nonzero"/></g></g></g></g><g mask="url(#50db7445a2)"><g transform="matrix(1, 0, 0, 1, 985, 397)"><g clip-path="url(#da364ba63e)"><g clip-path="url(#2cb9ec705d)"><path fill="#ffffff" d="M 651.742188 231.019531 L 578.332031 273.359375 C 573.902344 275.917969 571.171875 280.640625 571.171875 285.753906 L 571.171875 381.277344 C 571.171875 407.625 549.789062 428.988281 523.414062 428.988281 L 48.140625 428.988281 C 21.765625 428.988281 0.386719 407.625 0.386719 381.277344 L 0.386719 48.429688 C 0.386719 22.082031 21.765625 0.71875 48.140625 0.71875 L 523.414062 0.71875 C 549.789062 0.71875 571.171875 22.082031 571.171875 48.429688 L 571.171875 143.953125 C 571.171875 149.066406 573.902344 153.789062 578.332031 156.347656 L 651.742188 198.6875 C 664.199219 205.875 664.199219 223.835938 651.742188 231.019531 Z M 651.742188 231.019531 " fill-opacity="1" fill-rule="nonzero"/><path fill="#bad0c6" d="M 523.105469 270.089844 L 496.515625 276.316406 L 502.027344 250.589844 L 508.710938 248.113281 L 526.679688 256.117188 Z M 544.222656 331.976562 L 546.71875 336.582031 L 549.550781 337.910156 L 553.964844 332.898438 L 546.855469 329.507812 Z M 500.8125 337.984375 L 499.484375 342.6875 L 510.71875 346.148438 L 512.390625 343.121094 L 508.347656 337.402344 Z M 527.75 420.167969 L 533.1875 420.046875 L 537.808594 402.261719 L 521.050781 402.773438 Z M 553.433594 188.652344 L 560.835938 205.226562 L 566.167969 204.828125 L 569.746094 187.296875 Z M 531.394531 171.558594 L 532.15625 165.4375 L 504.742188 148.089844 L 504.753906 156.460938 Z M 109.777344 129.355469 L 90.730469 112.324219 L 86.480469 114.335938 L 85.609375 119.175781 L 85.566406 126.175781 L 98.894531 135.390625 Z M 96.765625 286.320312 L 95.753906 289.339844 L 98.046875 297.527344 L 105.433594 292.203125 Z M 22.957031 401.675781 L 20.085938 405.242188 L 16.941406 410.902344 L 22.160156 421.300781 C 23.820312 422.378906 25.546875 423.363281 27.339844 424.234375 L 35.308594 424.183594 L 27.421875 401.9375 Z M 103.917969 328.652344 L 102.039062 343.4375 L 108.753906 346.914062 L 120.128906 326.21875 L 116.539062 323.152344 Z M 0.386719 237.359375 L 0.386719 247.21875 L 6.402344 242.078125 L 4.476562 237.007812 Z M 387.050781 163.535156 L 401.035156 180.191406 L 410.007812 182.347656 L 420.828125 163.472656 L 392.136719 156.339844 Z M 22.855469 115.238281 L 5.34375 86.242188 L 0.386719 93.6875 L 0.386719 129.65625 L 18.867188 123.246094 Z M 207.160156 222.320312 L 205.597656 229.59375 L 216.476562 228.664062 L 210.59375 220.761719 Z M 290.484375 346.652344 L 297.015625 351.542969 L 304.601562 344.359375 L 304.761719 340.109375 L 292.898438 331.9375 Z M 141.972656 269.558594 L 135.550781 268.652344 L 132.101562 275.648438 L 148.453125 280.078125 L 142.558594 270.304688 Z M 135.347656 414.507812 L 145.949219 416.15625 L 139.707031 410.878906 Z M 154.527344 181.984375 L 152.0625 190.488281 L 169.433594 189.28125 L 162.929688 179.921875 Z M 316.804688 13.5 L 314.425781 19.132812 L 325.238281 17.789062 L 322.894531 13.789062 Z M 275.441406 43.167969 L 267.402344 43.527344 L 274.175781 50.574219 Z M 213.539062 191.648438 L 207.808594 183.0625 L 206.746094 182.660156 L 201.855469 182.707031 L 211.902344 196.269531 Z M 207.722656 47.089844 L 207.632812 56.601562 L 216.425781 61.953125 L 221.03125 58.292969 L 211.273438 45.40625 Z M 335.0625 109.132812 L 342.421875 114.097656 L 344.667969 104.992188 L 333.863281 106.144531 Z M 236.890625 262.773438 L 241.367188 262.457031 L 245.992188 250.5625 L 240.609375 251.628906 Z M 265.179688 230.378906 L 269.519531 258.222656 L 280.894531 241.941406 L 277.714844 230.851562 Z M 121.179688 0.914062 L 118.253906 10.929688 L 128.574219 10.929688 L 125.074219 0.945312 Z M 223.503906 10.457031 L 223.179688 23.300781 L 229.929688 16.609375 L 229.445312 11.769531 Z M 297.703125 209.863281 L 303.089844 225.890625 L 310.324219 217.46875 L 306.335938 210.101562 Z M 451.628906 359.679688 L 461.363281 364.324219 L 462.367188 353.570312 L 449.949219 356.808594 Z M 62.773438 77.320312 L 78.113281 73.578125 L 72.175781 67.363281 Z M 62.773438 77.320312 " fill-opacity="1" fill-rule="nonzero"/></g><g clip-path="url(#b71af95a52)"><path fill="#b8b8ca" d="M 174.808594 333.164062 L 178.265625 339.089844 L 175.292969 341.613281 L 169.902344 342.34375 Z M 38.15625 107.773438 L 41.46875 116.113281 L 58.734375 117.183594 L 59.464844 117.214844 L 60.371094 116.4375 L 66.046875 100.320312 L 39.792969 101.183594 Z M 120.476562 175.4375 L 115.285156 172.765625 L 107.46875 178.03125 L 110.207031 188.972656 L 115 189.488281 L 123.683594 184.414062 L 122.582031 177.121094 Z M 292.3125 423.964844 L 300.933594 428.988281 L 313.773438 428.988281 L 314.773438 428.3125 L 315.429688 427.839844 L 315.703125 425.878906 L 292.367188 412.472656 Z M 368.75 19.277344 L 378.207031 22.535156 L 372.414062 14.113281 Z M 459.351562 5.132812 L 456.066406 4.851562 L 453.023438 9.414062 L 456.832031 14.585938 L 459.871094 13.707031 L 463.207031 9.339844 L 460.972656 5.613281 Z M 278.273438 171.707031 L 283.679688 181.722656 L 287.113281 173.472656 L 286.320312 171.414062 Z M 437.871094 21.523438 L 433.519531 19.164062 L 422.5 15.800781 L 409.445312 28.496094 L 418.550781 48.660156 L 427.050781 48.054688 L 442.441406 34.894531 Z M 442.058594 146.414062 L 447.71875 144.714844 L 442.632812 136.886719 Z M 614.574219 204.789062 L 611.265625 207.164062 L 613.074219 210.1875 L 619.117188 207.25 Z M 501.585938 384.320312 L 512.671875 382.191406 L 506.023438 371.507812 Z M 27.292969 135.722656 L 25.261719 145.566406 L 33.617188 151.933594 Z M 35.933594 43.9375 L 32.609375 53.976562 L 40.898438 48.03125 Z M 73.253906 218.792969 L 84.261719 227.679688 L 87.476562 217.777344 L 80.675781 212.425781 Z M 457.929688 230.949219 L 455.140625 237.527344 L 460.824219 241.605469 L 463.632812 242.171875 L 461.773438 228.3125 Z M 357.523438 277.199219 L 357.308594 283.785156 L 366.5 282.414062 L 363.046875 276.300781 Z M 196.113281 273.457031 L 214.242188 262.246094 L 187.675781 260.5625 Z M 196.113281 273.457031 " fill-opacity="1" fill-rule="nonzero"/></g><g clip-path="url(#efc327fcef)"><path fill="#f6d7c3" d="M 15.085938 290.914062 L 25.09375 305.160156 L 12.734375 305.238281 Z M 59.4375 0.867188 L 45.765625 4.253906 L 40.023438 20.542969 L 67.136719 8.632812 Z M 134.6875 142.703125 L 141.539062 146.121094 L 141.53125 141 Z M 216.390625 110.617188 L 212.65625 111.320312 L 217.390625 116.3125 L 222.617188 114.390625 L 219.269531 111.183594 Z M 153.976562 304.613281 L 160.019531 309.609375 L 159.082031 301.523438 Z M 249.449219 335.007812 L 252.390625 339.28125 L 262.472656 337.132812 L 252.878906 330.171875 Z M 261.679688 208.324219 L 249.167969 196.410156 L 242.003906 199.28125 L 247.816406 211.832031 L 260.988281 217.289062 Z M 214.980469 346.742188 L 214.753906 347.675781 L 212.351562 357.007812 L 217.964844 349.058594 L 221.113281 344.566406 L 215.902344 346.382812 Z M 161.992188 237.78125 L 160.664062 241.460938 L 164.308594 240.058594 L 166.949219 239.019531 L 162.90625 235.304688 Z M 216.832031 307.867188 L 213.789062 303.265625 L 193.699219 307.023438 L 201.082031 314.410156 L 215.042969 311.714844 Z M 463.503906 98.179688 L 469.222656 101.171875 L 471.847656 98.449219 L 465.414062 85.1875 Z M 276.753906 0.71875 L 274.617188 0.71875 L 273.492188 2.476562 L 270.535156 7.261719 L 277.242188 4.382812 Z M 107.480469 370.410156 L 134.347656 377.175781 L 128.820312 369.496094 Z M 42.441406 334.875 L 43.570312 345.527344 L 64.347656 342.234375 L 77.582031 325.5 L 65.71875 321.132812 Z M 72.574219 394.742188 L 73.285156 380.191406 L 55.835938 391.039062 Z M 113.160156 85.785156 L 110.042969 83.058594 L 101.480469 88.042969 L 110.328125 89.125 Z M 592.011719 244.910156 L 588.601562 243.222656 L 586.878906 246.550781 L 592.96875 252.832031 Z M 185.398438 0.71875 L 182.675781 0.71875 L 184.105469 2.402344 Z M 93.105469 0.71875 L 97.269531 6.714844 L 94.691406 0.71875 Z M 12.851562 347.785156 L 8.5625 354.433594 L 9.234375 356.898438 L 13.835938 359.035156 L 18.957031 356.039062 L 16.765625 350.234375 Z M 256.261719 298.386719 L 257.941406 293.414062 L 250.875 293.476562 L 254.207031 296.628906 Z M 197.273438 163.789062 L 202.511719 148.675781 L 176.5 149.863281 Z M 194.925781 128.296875 L 200.511719 105.25 L 197.132812 101.207031 L 163.84375 100.390625 L 157.832031 107.433594 L 169.402344 128.667969 L 191.015625 134.277344 Z M 183.226562 413.4375 L 175.9375 420.90625 L 177.515625 428.988281 L 194.785156 428.988281 L 197.5 426.824219 L 187.300781 413.726562 Z M 184.234375 54.550781 L 158.390625 73.726562 L 185.148438 61.199219 Z M 138.152344 55.605469 L 135.832031 38.210938 L 131.53125 35.898438 L 125.96875 39.117188 L 129.089844 63.640625 Z M 241.410156 427.835938 L 242.414062 428.113281 L 251.042969 422.242188 L 236.203125 425.703125 Z M 520.199219 313.207031 L 529.226562 293.902344 L 511.730469 289.105469 Z M 548.359375 278.070312 L 552.621094 278.015625 L 555.777344 268.25 L 548.230469 273.515625 Z M 545.820312 228.050781 L 540.734375 229.308594 L 546.667969 238.144531 L 549.078125 233.484375 Z M 306.917969 59.625 L 317.046875 64.027344 L 333.542969 60.007812 L 337.140625 45.402344 Z M 359.515625 171.589844 L 364.265625 164.386719 L 351.0625 166.65625 L 353.996094 171.585938 Z M 461.140625 278.421875 L 467.554688 274.730469 L 463.113281 271.589844 Z M 433.574219 71.125 L 425.402344 72.746094 L 431.484375 82.40625 Z M 428.140625 214.683594 L 442.699219 190.609375 L 425.414062 185.53125 Z M 388.3125 59.503906 L 394.257812 52.730469 L 397.878906 46.820312 L 391.105469 46.136719 L 383.9375 49.816406 L 387.175781 57.003906 Z M 564.570312 66.554688 L 541.5625 55.105469 L 536.109375 66.382812 L 544.089844 74.640625 Z M 498.976562 7.089844 L 498.226562 21.136719 L 499.429688 31.269531 L 507.589844 26.085938 L 512.953125 14.378906 Z M 517.707031 82.144531 L 510.804688 78.359375 L 513.261719 86.160156 Z M 479.449219 315.191406 L 487.523438 308.574219 L 473.050781 313.171875 Z M 267.496094 374.984375 L 274.625 390.855469 L 283.128906 387.167969 L 274.046875 374.53125 Z M 422.972656 292.421875 L 417.464844 318.148438 L 444.050781 311.921875 L 447.628906 297.949219 L 429.65625 289.945312 Z M 550.597656 157.90625 L 551.734375 168.078125 L 559.949219 162.933594 L 565.414062 151.222656 L 551.445312 143.816406 Z M 364.992188 346.210938 L 367.085938 339.023438 L 361.511719 335.574219 Z M 551.050781 28.996094 L 545.40625 18.429688 L 547.449219 36.328125 Z M 278.148438 111.113281 L 293.140625 91.667969 L 278.648438 85.570312 Z M 343.90625 386.148438 L 360.875 391.835938 L 355.800781 385.539062 Z M 400.546875 300.734375 L 388.695312 317.382812 L 395.453125 315.644531 Z M 320.40625 371.527344 L 322.214844 373.96875 L 331.433594 371.789062 L 333.042969 366.421875 L 327.5 358.300781 Z M 380.582031 388.359375 L 380.746094 394.011719 L 387.160156 410.507812 L 391.320312 411.644531 L 412.050781 397.972656 L 412.765625 390.675781 L 396.4375 382.507812 Z M 375.765625 131.050781 L 374.746094 142.726562 L 385.421875 139.296875 Z M 237.851562 147.425781 L 247.511719 154.757812 L 263.601562 142.027344 L 238.777344 140.167969 Z M 413.84375 358.5 L 419.542969 357.410156 L 420.230469 346.425781 L 411.023438 355.234375 Z M 341.9375 196.339844 L 340.554688 195.917969 L 336.894531 197.582031 L 337.238281 201.832031 L 341.210938 202.996094 L 344.144531 199.246094 Z M 385.683594 218.066406 L 390.921875 219.726562 L 385.816406 193.929688 Z M 385.683594 218.066406 " fill-opacity="1" fill-rule="nonzero"/></g><g clip-path="url(#d51c848a77)"><path fill="#f6d6c9" d="M 170.351562 15.078125 L 159.371094 26.375 L 156.332031 17.203125 Z M 232.734375 393.195312 L 233.453125 376.386719 L 217.199219 383.554688 Z M 172.304688 382.773438 L 178.257812 373.378906 L 166.582031 372.140625 Z M 384.402344 89.257812 L 405.957031 126.757812 L 409.019531 126.175781 L 416.78125 94.859375 L 409.144531 86.207031 Z M 140.625 78.359375 L 145.757812 100.875 L 149.898438 107.40625 L 155.183594 104.179688 L 148.035156 78.898438 Z M 37.753906 247.367188 L 43.953125 244.734375 L 44.164062 239.726562 L 34.316406 243.320312 Z M 315.792969 307.535156 L 321.421875 306.363281 L 315.578125 298.617188 Z M 238.78125 84.046875 L 238.886719 87.957031 L 242.992188 87.90625 L 245.671875 77.90625 L 241.671875 75.121094 Z M 311.523438 148.882812 L 312.871094 141.382812 L 304.511719 142.976562 Z M 345.261719 428.988281 L 351.417969 428.988281 L 353.050781 420.21875 L 348.210938 416.710938 Z M 358.960938 75.054688 L 361.238281 74.800781 L 363.195312 69.644531 L 356.25 69.945312 L 358.375 73.988281 Z M 510.414062 214.125 L 503.867188 212.792969 L 511.949219 230.089844 Z M 125.675781 215.949219 L 132.222656 220.632812 L 136.949219 218.015625 L 127.484375 210.484375 Z M 561.160156 102.082031 L 557.066406 102.695312 L 557.621094 106.882812 L 568.824219 108.460938 L 571.171875 104.046875 L 571.171875 104.019531 Z M 97.28125 36.046875 L 97.078125 33.417969 L 85.464844 29.148438 L 81.234375 32.117188 L 81.375 42.980469 Z M 487.988281 130.582031 L 489.328125 132.445312 L 493.621094 131.824219 L 490.503906 126.742188 Z M 479.523438 181.539062 L 493.554688 191 L 488.128906 176.421875 Z M 58.210938 287.613281 L 66.175781 283.710938 L 59.707031 277.699219 Z M 84.199219 166.398438 L 82.191406 162.46875 L 77.65625 161.796875 L 75.035156 164.910156 L 77.878906 166.550781 Z M 8.625 21.636719 C 8.136719 22.355469 7.664062 23.09375 7.214844 23.839844 L 10.109375 23.457031 Z M 39.902344 191.992188 L 38.503906 188.375 L 31.378906 182.90625 L 30.351562 187.820312 L 35.0625 192.929688 Z M 7.636719 78.140625 L 14.5 77.828125 L 16.203125 69.90625 L 2.777344 70.4375 Z M 398.527344 263.949219 L 402.382812 262.847656 L 411.761719 251.09375 L 404.21875 245.378906 Z M 459.503906 396.195312 L 456.339844 398.324219 L 454.140625 404.21875 L 459.742188 406.148438 L 459.613281 399.40625 Z M 484.828125 48.867188 L 481.664062 45.359375 L 479.367188 48.3125 L 478.425781 56.613281 L 483.035156 55.003906 Z M 528.945312 119.675781 L 525.617188 124.136719 L 529.789062 124.929688 L 532.613281 122.257812 L 531.835938 118.515625 Z M 430.152344 428.988281 L 456.683594 428.988281 L 437.394531 422.949219 Z M 548.945312 382.679688 L 551.222656 386.917969 L 566.066406 367.4375 L 556.71875 367.75 Z M 94.882812 425.066406 L 95.925781 428.328125 L 96.816406 428.988281 L 99.773438 428.988281 L 105.375 425.269531 L 101.222656 421.675781 Z M 102.761719 253.71875 L 101.953125 256.808594 L 105.585938 255.703125 L 109.597656 250.410156 L 104.671875 246.867188 Z M 342.136719 232.902344 L 345.011719 244.839844 L 357.566406 247.542969 Z M 299.808594 258.976562 L 296.773438 265.917969 L 301.261719 271.859375 L 307.195312 270.019531 L 309.34375 262.253906 L 306.140625 258.675781 Z M 299.808594 258.976562 " fill-opacity="1" fill-rule="nonzero"/></g></g></g></g></svg>