<svg xmlns="http://www.w3.org/2000/svg" xmlns:xlink="http://www.w3.org/1999/xlink" width="300" zoomAndPan="magnify" viewBox="0 0 224.87999 225" height="300" preserveAspectRatio="xMidYMid meet" version="1.0"><defs><clipPath id="4cd2b6917d"><path d="M 4.589844 38.878906 L 220.472656 38.878906 L 220.472656 193 L 4.589844 193 Z M 4.589844 38.878906 " clip-rule="nonzero"/></clipPath><clipPath id="76dd3269c3"><path d="M 4.589844 197 L 220.472656 197 L 220.472656 217 L 4.589844 217 Z M 4.589844 197 " clip-rule="nonzero"/></clipPath></defs><g clip-path="url(#4cd2b6917d)"><path fill="#00c80e" d="M 210.03125 38.878906 L 14.84375 38.878906 C 9.191406 38.878906 4.589844 43.480469 4.589844 49.132812 L 4.589844 182.300781 C 4.589844 187.957031 9.191406 192.554688 14.84375 192.554688 L 210.03125 192.554688 C 215.6875 192.554688 220.285156 187.957031 220.285156 182.300781 L 220.285156 49.132812 C 220.285156 43.480469 215.6875 38.878906 210.03125 38.878906 Z M 216.863281 182.300781 C 216.863281 186.066406 213.800781 189.132812 210.03125 189.132812 L 14.84375 189.132812 C 11.078125 189.132812 8.011719 186.066406 8.011719 182.300781 L 8.011719 49.132812 C 8.011719 45.367188 11.078125 42.304688 14.84375 42.304688 L 210.03125 42.304688 C 213.800781 42.304688 216.863281 45.367188 216.863281 49.132812 Z M 216.863281 182.300781 " fill-opacity="1" fill-rule="nonzero"/></g><path fill="#00c80e" d="M 197.792969 51.070312 L 27.082031 51.070312 C 21.429688 51.070312 16.828125 55.667969 16.828125 61.324219 L 16.828125 170.113281 C 16.828125 175.769531 21.429688 180.367188 27.082031 180.367188 L 197.792969 180.367188 C 203.445312 180.367188 208.046875 175.769531 208.046875 170.113281 L 208.046875 61.324219 C 208.046875 55.667969 203.445312 51.070312 197.792969 51.070312 Z M 78.804688 132.582031 C 77.429688 133.53125 74.742188 133.066406 72.871094 130.796875 C 71.667969 129.484375 68.347656 126.410156 63.507812 126.1875 C 60.914062 126.097656 58.683594 126.664062 56.890625 127.878906 C 55.246094 128.984375 54.003906 130.597656 53.394531 132.429688 C 52.703125 134.542969 50.953125 136.082031 48.933594 136.351562 C 47.207031 136.597656 44.890625 134.515625 42.847656 132.683594 C 39.054688 129.269531 37.570312 128.550781 35.300781 128.238281 C 35.253906 128.230469 35.207031 128.234375 35.164062 128.226562 C 39.375 124.238281 42.136719 121.210938 44.246094 118.894531 C 47.59375 115.214844 48.847656 113.835938 51.515625 113.332031 C 55.296875 112.628906 58.175781 114.230469 64.917969 119.394531 L 64.933594 119.410156 L 67.242188 121.195312 C 70.578125 123.78125 74.699219 126.96875 79.925781 130.683594 C 79.742188 131.367188 79.421875 132.152344 78.804688 132.582031 Z M 122.3125 119.886719 C 122.363281 119.070312 121.828125 118.332031 121.035156 118.125 C 120.246094 117.917969 119.414062 118.304688 119.0625 119.042969 C 117.015625 123.289062 114.355469 127.25 111.160156 130.816406 C 109.285156 132.917969 107.257812 134.828125 104.964844 136.664062 C 103.546875 137.796875 102.042969 138.863281 100.386719 139.902344 C 94.339844 136.3125 88.433594 132.492188 82.8125 128.535156 C 77.203125 124.585938 72.84375 121.203125 69.339844 118.488281 L 67.953125 117.414062 C 71.019531 108.101562 83.707031 101.191406 98.140625 101.191406 C 111.339844 101.191406 122.921875 106.707031 127.308594 114.976562 C 125.027344 120.457031 124.964844 125.375 125.160156 127.878906 C 125.226562 128.726562 125.988281 129.402344 126.839844 129.457031 C 126.84375 129.457031 126.847656 129.457031 126.855469 129.457031 C 125.777344 131.234375 124.328125 132.90625 122.5625 134.425781 C 122.03125 130.910156 121.941406 126.050781 122.3125 119.886719 Z M 204.625 163.601562 C 199.953125 161.066406 195.382812 158.175781 191.019531 154.9375 C 185.578125 150.914062 182.582031 147.972656 180.398438 145.820312 C 177.558594 143.03125 175.839844 141.34375 172.023438 140.441406 C 165.5625 138.929688 159.957031 141.273438 155.011719 143.339844 C 149.972656 145.445312 146.746094 146.644531 144.019531 144.753906 C 142.996094 144.046875 142.476562 143.210938 141.867188 142.246094 C 140.976562 140.816406 139.964844 139.195312 137.421875 138.445312 C 134.046875 137.445312 131.226562 138.648438 128.964844 139.613281 C 127.457031 140.257812 126.152344 140.8125 125.242188 140.492188 C 124.4375 140.210938 123.851562 139.183594 123.445312 138.109375 C 126.714844 135.621094 129.203125 132.664062 130.738281 129.445312 C 134.566406 129.179688 139.871094 128.039062 145.21875 124.339844 C 153.484375 118.609375 156.382812 110.585938 157.210938 107.613281 L 162.5 102.355469 C 172.054688 93.5 180.640625 84.101562 188.105469 74.304688 C 195.03125 65.121094 197.015625 61.746094 195.121094 59.847656 C 193.339844 58.089844 190.335938 59.542969 180.511719 66.90625 C 170.765625 74.253906 161.308594 82.796875 152.410156 92.300781 L 147.121094 97.554688 C 144.140625 98.378906 136.070312 101.277344 130.308594 109.492188 C 129.878906 110.101562 129.492188 110.738281 129.113281 111.375 C 123.476562 103.132812 111.523438 97.769531 98.144531 97.769531 C 82.566406 97.769531 69.191406 104.984375 65.089844 115.230469 C 59.804688 111.28125 55.929688 109.03125 50.886719 109.96875 C 47.089844 110.683594 45.292969 112.660156 41.71875 116.589844 C 39.15625 119.40625 35.652344 123.257812 29.664062 128.652344 L 27.535156 130.542969 C 25.144531 132.617188 22.726562 134.59375 20.253906 136.554688 L 20.253906 61.324219 C 20.253906 57.558594 23.316406 54.492188 27.082031 54.492188 L 197.792969 54.492188 C 201.558594 54.492188 204.625 57.558594 204.625 61.324219 Z M 142.757812 111.953125 C 143.089844 112.289062 143.53125 112.457031 143.96875 112.457031 C 144.40625 112.457031 144.84375 112.292969 145.179688 111.957031 L 151.84375 105.320312 L 153.757812 107.222656 C 152.859375 110.167969 150.183594 116.730469 143.269531 121.523438 C 138.097656 125.105469 132.957031 125.980469 129.535156 126.082031 C 129.167969 126.097656 128.828125 126.105469 128.511719 126.097656 C 128.492188 123.574219 128.867188 119.734375 130.757812 115.574219 C 131.398438 114.15625 132.191406 112.769531 133.113281 111.453125 C 137.9375 104.578125 144.554688 101.902344 147.511719 101.003906 L 149.417969 102.902344 L 142.761719 109.53125 C 142.09375 110.199219 142.089844 111.28125 142.757812 111.953125 Z M 150.4375 99.085938 L 153.625 95.921875 L 158.871094 101.140625 L 155.683594 104.308594 L 153.058594 101.695312 Z M 150.4375 99.085938 " fill-opacity="1" fill-rule="nonzero"/><g clip-path="url(#76dd3269c3)"><path fill="#00c80e" d="M 211.726562 197.246094 L 13.148438 197.246094 C 8.429688 197.246094 4.589844 201.085938 4.589844 205.804688 L 4.589844 208.355469 C 4.589844 213.078125 8.429688 216.917969 13.148438 216.917969 L 211.726562 216.917969 C 216.449219 216.917969 220.285156 213.078125 220.285156 208.355469 L 220.285156 205.804688 C 220.285156 201.085938 216.449219 197.246094 211.726562 197.246094 Z M 216.863281 208.355469 C 216.863281 211.1875 214.558594 213.492188 211.726562 213.492188 L 13.148438 213.492188 C 10.316406 213.492188 8.011719 211.1875 8.011719 208.355469 L 8.011719 205.804688 C 8.011719 202.976562 10.316406 200.671875 13.148438 200.671875 L 92.359375 200.671875 L 92.359375 207.089844 C 92.359375 208.035156 93.125 208.800781 94.070312 208.800781 L 130.808594 208.800781 C 131.75 208.800781 132.519531 208.035156 132.519531 207.089844 L 132.519531 200.671875 L 211.726562 200.671875 C 214.558594 200.671875 216.863281 202.976562 216.863281 205.804688 Z M 216.863281 208.355469 " fill-opacity="1" fill-rule="nonzero"/></g></svg>