<svg xmlns="http://www.w3.org/2000/svg" xmlns:xlink="http://www.w3.org/1999/xlink" width="300" zoomAndPan="magnify" viewBox="0 0 224.87999 225" height="300" preserveAspectRatio="xMidYMid meet" version="1.0"><defs><clipPath id="dbed86d980"><path d="M 8.054688 8.113281 L 217 8.113281 L 217 217 L 8.054688 217 Z M 8.054688 8.113281 " clip-rule="nonzero"/></clipPath></defs><g clip-path="url(#dbed86d980)"><path fill="#00c80e" d="M 216.816406 112.496094 C 216.816406 89.300781 209.34375 67.394531 195.296875 48.964844 L 195.296875 35.046875 C 195.296875 34.402344 194.652344 33.757812 194.007812 33.757812 L 180.992188 33.757812 C 162.050781 17.265625 137.695312 8.113281 112.4375 8.113281 C 90.269531 8.113281 69.136719 14.945312 51.351562 27.832031 L 28.800781 27.832031 C 24.550781 27.832031 21.199219 31.179688 21.199219 35.433594 C 21.199219 47.289062 21.199219 53.863281 21.199219 61.59375 C 12.566406 77.058594 8.054688 94.710938 8.054688 112.496094 C 8.054688 169.839844 54.703125 216.878906 112.4375 216.878906 C 139.753906 216.878906 165.398438 206.441406 184.988281 187.496094 L 196.714844 187.496094 C 200.066406 187.496094 202.898438 184.789062 202.898438 181.3125 L 202.898438 164.429688 C 212.050781 148.835938 216.816406 130.796875 216.816406 112.496094 Z M 189.371094 36.335938 L 163.082031 52.574219 L 136.921875 36.335938 Z M 133.699219 37.367188 L 160.761719 53.992188 L 133.699219 70.613281 Z M 163.210938 55.664062 L 189.5 71.902344 L 136.921875 71.902344 Z M 165.65625 54.121094 L 192.71875 37.496094 L 192.71875 70.871094 Z M 112.4375 10.691406 C 136.019531 10.691406 158.828125 18.9375 176.996094 33.757812 L 132.410156 33.757812 C 131.765625 33.757812 131.121094 34.402344 131.121094 35.046875 L 131.121094 73.0625 C 131.121094 73.707031 131.636719 74.351562 132.410156 74.351562 L 194.007812 74.351562 C 194.652344 74.351562 195.296875 73.835938 195.296875 73.0625 L 195.296875 53.347656 C 207.667969 70.613281 214.242188 90.976562 214.242188 112.496094 C 214.242188 128.734375 210.375 144.839844 202.898438 159.144531 C 202.898438 145.355469 202.898438 107.082031 202.898438 93.292969 C 202.898438 89.945312 200.195312 87.109375 196.714844 87.109375 L 117.074219 87.109375 C 117.074219 84.402344 117.074219 108.757812 117.074219 35.433594 C 117.074219 31.179688 113.722656 27.832031 109.472656 27.832031 L 55.863281 27.832031 C 72.617188 16.621094 92.074219 10.691406 112.4375 10.691406 Z M 73.90625 93.292969 C 73.90625 111.464844 73.90625 144.96875 73.90625 162.882812 L 28.929688 162.882812 C 26.09375 162.882812 23.90625 160.691406 23.90625 157.855469 L 23.90625 44.839844 L 114.496094 44.839844 L 114.496094 87.109375 L 79.960938 87.109375 C 76.609375 87.238281 73.90625 89.945312 73.90625 93.292969 Z M 23.90625 35.5625 C 23.90625 32.726562 26.222656 30.535156 28.929688 30.535156 L 109.472656 30.535156 C 112.179688 30.535156 114.496094 32.726562 114.496094 35.5625 L 114.496094 42.394531 L 23.90625 42.394531 Z M 76.480469 93.292969 C 76.480469 91.363281 78.027344 89.6875 80.089844 89.6875 L 196.84375 89.6875 C 198.777344 89.6875 200.453125 91.234375 200.453125 93.292969 L 200.453125 101.15625 L 76.480469 101.15625 Z M 21.328125 67.265625 L 21.328125 157.726562 C 14.496094 144.066406 10.632812 128.734375 10.632812 112.496094 C 10.632812 96.773438 14.238281 81.179688 21.328125 67.265625 Z M 24.9375 164.429688 C 26.09375 165.074219 27.382812 165.589844 28.929688 165.589844 L 73.90625 165.589844 L 73.90625 181.441406 C 73.90625 182.726562 74.292969 184.015625 75.066406 185.046875 L 41.042969 185.046875 C 34.859375 178.863281 29.445312 171.902344 24.9375 164.429688 Z M 43.75 187.496094 L 181.378906 187.496094 C 162.4375 204.765625 138.082031 214.300781 112.4375 214.300781 C 86.019531 214.300781 61.792969 204.121094 43.75 187.496094 Z M 196.714844 184.917969 C 187.4375 184.917969 96.070312 184.917969 79.960938 184.917969 C 78.027344 184.917969 76.351562 183.371094 76.351562 181.3125 L 76.351562 103.863281 L 200.324219 103.863281 L 200.324219 181.441406 C 200.324219 183.371094 198.777344 184.917969 196.714844 184.917969 Z M 196.714844 184.917969 " fill-opacity="1" fill-rule="nonzero"/></g><path fill="#00c80e" d="M 31.507812 85.820312 L 36.40625 85.820312 C 37.179688 85.820312 37.695312 85.304688 37.695312 84.53125 C 37.695312 83.757812 37.179688 83.242188 36.40625 83.242188 L 31.507812 83.242188 C 30.734375 83.242188 30.21875 83.757812 30.21875 84.53125 C 30.21875 85.175781 30.863281 85.820312 31.507812 85.820312 Z M 31.507812 85.820312 " fill-opacity="1" fill-rule="nonzero"/><path fill="#00c80e" d="M 40.785156 85.820312 L 48.132812 85.820312 C 48.90625 85.820312 49.421875 85.304688 49.421875 84.53125 C 49.421875 83.757812 48.90625 83.242188 48.132812 83.242188 L 40.785156 83.242188 C 40.011719 83.242188 39.496094 83.757812 39.496094 84.53125 C 39.496094 85.175781 40.011719 85.820312 40.785156 85.820312 Z M 40.785156 85.820312 " fill-opacity="1" fill-rule="nonzero"/><path fill="#00c80e" d="M 37.695312 89.945312 C 37.695312 89.171875 37.179688 88.65625 36.40625 88.65625 L 31.507812 88.65625 C 30.734375 88.65625 30.21875 89.171875 30.21875 89.945312 C 30.21875 90.71875 30.734375 91.234375 31.507812 91.234375 L 36.40625 91.234375 C 37.179688 91.234375 37.695312 90.71875 37.695312 89.945312 Z M 37.695312 89.945312 " fill-opacity="1" fill-rule="nonzero"/><path fill="#00c80e" d="M 40.785156 91.234375 L 48.132812 91.234375 C 48.90625 91.234375 49.421875 90.71875 49.421875 89.945312 C 49.421875 89.171875 48.90625 88.65625 48.132812 88.65625 L 40.785156 88.65625 C 40.011719 88.65625 39.496094 89.171875 39.496094 89.945312 C 39.496094 90.71875 40.011719 91.234375 40.785156 91.234375 Z M 40.785156 91.234375 " fill-opacity="1" fill-rule="nonzero"/><path fill="#00c80e" d="M 61.664062 95.355469 L 45.167969 95.355469 C 44.394531 95.355469 43.878906 95.871094 43.878906 96.644531 C 43.878906 97.417969 44.394531 97.933594 45.167969 97.933594 L 61.792969 97.933594 C 62.566406 97.933594 63.082031 97.417969 63.082031 96.644531 C 62.953125 95.871094 62.4375 95.355469 61.664062 95.355469 Z M 61.664062 95.355469 " fill-opacity="1" fill-rule="nonzero"/><path fill="#00c80e" d="M 61.664062 101.542969 L 45.167969 101.542969 C 44.394531 101.542969 43.878906 102.058594 43.878906 102.832031 C 43.878906 103.605469 44.394531 104.121094 45.167969 104.121094 L 61.792969 104.121094 C 62.566406 104.121094 63.082031 103.605469 63.082031 102.832031 C 62.953125 102.058594 62.4375 101.542969 61.664062 101.542969 Z M 61.664062 101.542969 " fill-opacity="1" fill-rule="nonzero"/><path fill="#00c80e" d="M 45.167969 110.304688 L 61.792969 110.304688 C 62.566406 110.304688 63.082031 109.789062 63.082031 109.015625 C 63.082031 108.242188 62.566406 107.726562 61.792969 107.726562 L 45.167969 107.726562 C 44.394531 107.726562 43.878906 108.242188 43.878906 109.015625 C 43.878906 109.660156 44.394531 110.304688 45.167969 110.304688 Z M 45.167969 110.304688 " fill-opacity="1" fill-rule="nonzero"/><path fill="#00c80e" d="M 109.472656 195.355469 C 109.472656 194.582031 108.957031 194.070312 108.183594 194.070312 L 76.996094 194.070312 C 76.222656 194.070312 75.710938 194.582031 75.710938 195.355469 C 75.710938 196.128906 76.222656 196.644531 76.996094 196.644531 L 108.183594 196.644531 C 108.828125 196.644531 109.472656 196 109.472656 195.355469 Z M 109.472656 195.355469 " fill-opacity="1" fill-rule="nonzero"/><path fill="#00c80e" d="M 119.652344 195.355469 C 119.652344 194.582031 119.136719 194.070312 118.363281 194.070312 L 113.210938 194.070312 C 112.4375 194.070312 111.921875 194.582031 111.921875 195.355469 C 111.921875 196.128906 112.4375 196.644531 113.210938 196.644531 L 118.363281 196.644531 C 119.007812 196.644531 119.652344 196 119.652344 195.355469 Z M 119.652344 195.355469 " fill-opacity="1" fill-rule="nonzero"/><path fill="#00c80e" d="M 122.746094 196.644531 L 126.097656 196.644531 C 126.867188 196.644531 127.382812 196.128906 127.382812 195.355469 C 127.382812 194.582031 126.867188 194.070312 126.097656 194.070312 L 122.746094 194.070312 C 121.972656 194.070312 121.457031 194.582031 121.457031 195.355469 C 121.457031 196 121.972656 196.644531 122.746094 196.644531 Z M 122.746094 196.644531 " fill-opacity="1" fill-rule="nonzero"/><path fill="#00c80e" d="M 147.875 200.382812 L 116.6875 200.382812 C 115.914062 200.382812 115.398438 200.898438 115.398438 201.671875 C 115.398438 202.445312 115.914062 202.960938 116.6875 202.960938 L 147.875 202.960938 C 148.648438 202.960938 149.164062 202.445312 149.164062 201.671875 C 149.164062 200.898438 148.648438 200.382812 147.875 200.382812 Z M 147.875 200.382812 " fill-opacity="1" fill-rule="nonzero"/><path fill="#00c80e" d="M 111.664062 200.382812 L 106.507812 200.382812 C 105.734375 200.382812 105.21875 200.898438 105.21875 201.671875 C 105.21875 202.445312 105.734375 202.960938 106.507812 202.960938 L 111.664062 202.960938 C 112.4375 202.960938 112.953125 202.445312 112.953125 201.671875 C 112.953125 200.898438 112.4375 200.382812 111.664062 200.382812 Z M 111.664062 200.382812 " fill-opacity="1" fill-rule="nonzero"/><path fill="#00c80e" d="M 102.125 200.382812 L 98.777344 200.382812 C 98.003906 200.382812 97.488281 200.898438 97.488281 201.671875 C 97.488281 202.445312 98.003906 202.960938 98.777344 202.960938 L 102.125 202.960938 C 102.898438 202.960938 103.414062 202.445312 103.414062 201.671875 C 103.414062 200.898438 102.898438 200.382812 102.125 200.382812 Z M 102.125 200.382812 " fill-opacity="1" fill-rule="nonzero"/><path fill="#00c80e" d="M 32.410156 32.726562 C 30.347656 32.726562 28.800781 34.402344 28.800781 36.335938 C 28.800781 38.398438 30.476562 39.945312 32.410156 39.945312 C 34.472656 39.945312 36.019531 38.269531 36.019531 36.335938 C 36.019531 34.402344 34.472656 32.726562 32.410156 32.726562 Z M 32.410156 37.496094 C 31.765625 37.496094 31.378906 36.980469 31.378906 36.464844 C 31.378906 35.820312 31.894531 35.433594 32.410156 35.433594 C 33.054688 35.433594 33.441406 35.949219 33.441406 36.464844 C 33.441406 36.980469 33.054688 37.496094 32.410156 37.496094 Z M 32.410156 37.496094 " fill-opacity="1" fill-rule="nonzero"/><path fill="#00c80e" d="M 41.300781 32.726562 C 39.238281 32.726562 37.695312 34.402344 37.695312 36.335938 C 37.695312 38.398438 39.367188 39.945312 41.300781 39.945312 C 43.363281 39.945312 44.910156 38.269531 44.910156 36.335938 C 45.039062 34.402344 43.363281 32.726562 41.300781 32.726562 Z M 41.300781 37.496094 C 40.65625 37.496094 40.269531 36.980469 40.269531 36.464844 C 40.269531 35.820312 40.785156 35.433594 41.300781 35.433594 C 41.945312 35.433594 42.332031 35.949219 42.332031 36.464844 C 42.460938 36.980469 41.945312 37.496094 41.300781 37.496094 Z M 41.300781 37.496094 " fill-opacity="1" fill-rule="nonzero"/><path fill="#00c80e" d="M 50.324219 32.726562 C 48.261719 32.726562 46.714844 34.402344 46.714844 36.335938 C 46.714844 38.398438 48.390625 39.945312 50.324219 39.945312 C 52.382812 39.945312 53.929688 38.269531 53.929688 36.335938 C 53.929688 34.402344 52.253906 32.726562 50.324219 32.726562 Z M 50.324219 37.496094 C 49.679688 37.496094 49.292969 36.980469 49.292969 36.464844 C 49.292969 35.820312 49.808594 35.433594 50.324219 35.433594 C 50.964844 35.433594 51.351562 35.949219 51.351562 36.464844 C 51.351562 36.980469 50.835938 37.496094 50.324219 37.496094 Z M 50.324219 37.496094 " fill-opacity="1" fill-rule="nonzero"/><path fill="#00c80e" d="M 105.863281 32.726562 L 61.019531 32.726562 C 58.957031 32.726562 57.410156 34.402344 57.410156 36.335938 C 57.410156 38.398438 59.085938 39.945312 61.019531 39.945312 L 105.863281 39.945312 C 107.925781 39.945312 109.472656 38.269531 109.472656 36.335938 C 109.472656 34.402344 107.925781 32.726562 105.863281 32.726562 Z M 105.863281 37.496094 L 61.019531 37.496094 C 60.375 37.496094 59.988281 36.980469 59.988281 36.464844 C 59.988281 35.820312 60.503906 35.433594 61.019531 35.433594 L 105.863281 35.433594 C 106.507812 35.433594 106.894531 35.949219 106.894531 36.464844 C 106.894531 36.980469 106.507812 37.496094 105.863281 37.496094 Z M 105.863281 37.496094 " fill-opacity="1" fill-rule="nonzero"/><path fill="#00c80e" d="M 32.410156 141.492188 L 42.074219 145.871094 L 42.074219 143.554688 L 34.859375 140.203125 L 34.859375 140.074219 L 42.074219 136.722656 L 42.074219 134.402344 L 32.410156 138.914062 Z M 32.410156 141.492188 " fill-opacity="1" fill-rule="nonzero"/><path fill="#00c80e" d="M 44.136719 150.640625 L 46.199219 150.640625 L 55.089844 131.695312 L 53.027344 131.695312 Z M 44.136719 150.640625 " fill-opacity="1" fill-rule="nonzero"/><path fill="#00c80e" d="M 57.152344 136.722656 L 64.367188 140.074219 L 64.367188 140.203125 L 57.152344 143.554688 L 57.152344 145.871094 L 66.816406 141.492188 L 66.816406 138.914062 L 57.152344 134.402344 Z M 57.152344 136.722656 " fill-opacity="1" fill-rule="nonzero"/><path fill="#00c80e" d="M 117.71875 154.121094 L 85.890625 154.121094 C 85.117188 154.121094 84.601562 154.636719 84.601562 155.410156 L 84.601562 167.394531 C 84.601562 168.167969 85.117188 168.683594 85.890625 168.683594 L 117.71875 168.683594 C 118.492188 168.683594 119.007812 168.167969 119.007812 167.394531 L 119.007812 155.410156 C 119.007812 154.636719 118.363281 154.121094 117.71875 154.121094 Z M 116.429688 166.105469 L 87.179688 166.105469 L 87.179688 156.695312 L 116.429688 156.695312 Z M 116.429688 166.105469 " fill-opacity="1" fill-rule="nonzero"/><path fill="#00c80e" d="M 154.316406 154.121094 L 122.488281 154.121094 C 121.714844 154.121094 121.199219 154.636719 121.199219 155.410156 L 121.199219 167.394531 C 121.199219 168.167969 121.714844 168.683594 122.488281 168.683594 L 154.316406 168.683594 C 155.089844 168.683594 155.605469 168.167969 155.605469 167.394531 L 155.605469 155.410156 C 155.605469 154.636719 154.960938 154.121094 154.316406 154.121094 Z M 153.027344 166.105469 L 123.777344 166.105469 L 123.777344 156.695312 L 153.027344 156.695312 Z M 153.027344 166.105469 " fill-opacity="1" fill-rule="nonzero"/><path fill="#00c80e" d="M 190.914062 154.121094 L 159.085938 154.121094 C 158.3125 154.121094 157.796875 154.636719 157.796875 155.410156 L 157.796875 167.394531 C 157.796875 168.167969 158.3125 168.683594 159.085938 168.683594 L 190.914062 168.683594 C 191.6875 168.683594 192.203125 168.167969 192.203125 167.394531 L 192.203125 155.410156 C 192.203125 154.636719 191.558594 154.121094 190.914062 154.121094 Z M 189.625 166.105469 L 160.375 166.105469 L 160.375 156.695312 L 189.625 156.695312 Z M 189.625 166.105469 " fill-opacity="1" fill-rule="nonzero"/><path fill="#00c80e" d="M 85.632812 91.363281 C 83.3125 91.363281 81.507812 93.164062 81.507812 95.484375 C 81.507812 97.804688 83.3125 99.609375 85.632812 99.609375 C 87.953125 99.609375 89.753906 97.804688 89.753906 95.484375 C 89.753906 93.164062 87.953125 91.363281 85.632812 91.363281 Z M 85.632812 97.160156 C 84.730469 97.160156 84.085938 96.515625 84.085938 95.613281 C 84.085938 94.710938 84.730469 94.066406 85.632812 94.066406 C 86.535156 94.066406 87.179688 94.710938 87.179688 95.613281 C 87.179688 96.386719 86.535156 97.160156 85.632812 97.160156 Z M 85.632812 97.160156 " fill-opacity="1" fill-rule="nonzero"/><path fill="#00c80e" d="M 95.554688 91.363281 C 93.234375 91.363281 91.429688 93.164062 91.429688 95.484375 C 91.429688 97.804688 93.234375 99.609375 95.554688 99.609375 C 97.875 99.609375 99.679688 97.804688 99.679688 95.484375 C 99.808594 93.164062 97.875 91.363281 95.554688 91.363281 Z M 95.554688 97.160156 C 94.652344 97.160156 94.007812 96.515625 94.007812 95.613281 C 94.007812 94.710938 94.652344 94.066406 95.554688 94.066406 C 96.457031 94.066406 97.101562 94.710938 97.101562 95.613281 C 97.230469 96.386719 96.457031 97.160156 95.554688 97.160156 Z M 95.554688 97.160156 " fill-opacity="1" fill-rule="nonzero"/><path fill="#00c80e" d="M 105.476562 91.363281 C 103.15625 91.363281 101.351562 93.164062 101.351562 95.484375 C 101.351562 97.804688 103.15625 99.609375 105.476562 99.609375 C 107.796875 99.609375 109.601562 97.804688 109.601562 95.484375 C 109.730469 93.164062 107.796875 91.363281 105.476562 91.363281 Z M 105.476562 97.160156 C 104.574219 97.160156 103.929688 96.515625 103.929688 95.613281 C 103.929688 94.710938 104.574219 94.066406 105.476562 94.066406 C 106.378906 94.066406 107.023438 94.710938 107.023438 95.613281 C 107.152344 96.386719 106.378906 97.160156 105.476562 97.160156 Z M 105.476562 97.160156 " fill-opacity="1" fill-rule="nonzero"/><path fill="#00c80e" d="M 191.042969 91.363281 L 119.394531 91.363281 C 117.074219 91.363281 115.269531 93.164062 115.269531 95.484375 C 115.269531 97.804688 117.074219 99.609375 119.394531 99.609375 L 191.042969 99.609375 C 193.363281 99.609375 195.167969 97.804688 195.167969 95.484375 C 195.296875 93.164062 193.363281 91.363281 191.042969 91.363281 Z M 191.042969 97.160156 L 119.394531 97.160156 C 118.492188 97.160156 117.847656 96.515625 117.847656 95.613281 C 117.847656 94.710938 118.492188 94.066406 119.394531 94.066406 L 191.042969 94.066406 C 191.945312 94.066406 192.589844 94.710938 192.589844 95.613281 C 192.71875 96.386719 191.945312 97.160156 191.042969 97.160156 Z M 191.042969 97.160156 " fill-opacity="1" fill-rule="nonzero"/><path fill="#00c80e" d="M 85.890625 149.867188 L 121.972656 149.867188 C 122.746094 149.867188 123.261719 149.351562 123.261719 148.578125 L 123.261719 112.496094 C 123.261719 111.722656 122.746094 111.207031 121.972656 111.207031 L 85.890625 111.207031 C 85.117188 111.207031 84.601562 111.722656 84.601562 112.496094 L 84.601562 148.578125 C 84.601562 149.222656 85.117188 149.867188 85.890625 149.867188 Z M 87.179688 113.785156 L 120.683594 113.785156 L 120.683594 147.289062 L 87.179688 147.289062 Z M 87.179688 113.785156 " fill-opacity="1" fill-rule="nonzero"/><path fill="#00c80e" d="M 118.363281 127.058594 L 115.527344 126.414062 C 115.398438 126.027344 115.140625 125.511719 115.011719 125.125 L 116.558594 122.675781 C 116.816406 122.160156 116.816406 121.515625 116.429688 121.128906 L 113.339844 118.039062 C 112.953125 117.652344 112.308594 117.523438 111.792969 117.910156 L 109.34375 119.453125 C 108.957031 119.195312 108.441406 119.066406 108.054688 118.9375 L 107.410156 116.105469 C 107.28125 115.460938 106.765625 115.074219 106.121094 115.074219 L 101.738281 115.074219 C 101.09375 115.074219 100.582031 115.460938 100.453125 116.105469 L 99.808594 118.808594 C 99.421875 118.9375 98.90625 119.195312 98.519531 119.324219 L 96.070312 117.78125 C 95.554688 117.394531 94.910156 117.523438 94.523438 117.910156 L 91.429688 121 C 91.042969 121.386719 90.914062 122.03125 91.300781 122.546875 L 92.847656 124.996094 C 92.589844 125.382812 92.460938 125.898438 92.332031 126.285156 L 89.625 126.929688 C 88.980469 127.058594 88.59375 127.574219 88.59375 128.21875 L 88.59375 132.597656 C 88.59375 133.242188 88.980469 133.757812 89.625 133.886719 L 92.332031 134.53125 C 92.460938 135.046875 92.71875 135.433594 92.847656 135.820312 L 91.300781 138.269531 C 91.042969 138.785156 91.042969 139.429688 91.429688 139.816406 L 94.523438 142.910156 C 94.910156 143.296875 95.554688 143.425781 96.070312 143.039062 L 98.519531 141.492188 C 98.90625 141.75 99.421875 141.878906 99.808594 142.007812 L 100.453125 144.710938 C 100.582031 145.355469 101.09375 145.742188 101.738281 145.742188 L 106.121094 145.742188 C 106.765625 145.742188 107.28125 145.355469 107.410156 144.710938 L 108.054688 142.007812 C 108.570312 141.878906 108.957031 141.621094 109.34375 141.492188 L 111.792969 143.039062 C 112.308594 143.296875 112.953125 143.296875 113.339844 142.910156 L 116.429688 139.816406 C 116.816406 139.429688 116.945312 138.785156 116.558594 138.269531 L 115.011719 135.820312 C 115.269531 135.433594 115.398438 134.917969 115.527344 134.53125 L 118.234375 133.886719 C 118.878906 133.757812 119.265625 133.242188 119.265625 132.597656 L 119.265625 128.21875 C 119.394531 127.703125 119.007812 127.1875 118.363281 127.058594 Z M 116.816406 131.695312 L 114.367188 132.210938 C 113.851562 132.339844 113.597656 132.726562 113.46875 133.113281 C 113.210938 133.886719 112.953125 134.660156 112.566406 135.304688 C 112.308594 135.691406 112.308594 136.207031 112.566406 136.59375 L 113.980469 138.785156 L 112.308594 140.460938 L 110.117188 139.042969 C 109.730469 138.785156 109.214844 138.785156 108.828125 139.042969 C 108.183594 139.429688 107.410156 139.6875 106.636719 139.945312 C 106.25 140.074219 105.863281 140.460938 105.734375 140.847656 L 105.21875 143.296875 L 102.898438 143.296875 L 102.382812 140.847656 C 102.253906 140.332031 101.996094 140.074219 101.480469 139.945312 C 100.710938 139.6875 99.9375 139.429688 99.292969 139.042969 C 98.90625 138.785156 98.390625 138.785156 98.003906 139.042969 L 95.8125 140.460938 L 94.136719 138.785156 L 95.554688 136.59375 C 95.8125 136.207031 95.8125 135.691406 95.554688 135.304688 C 95.167969 134.660156 94.910156 133.886719 94.652344 133.113281 C 94.523438 132.726562 94.136719 132.339844 93.75 132.210938 L 91.300781 131.695312 L 91.300781 129.378906 L 93.75 128.863281 C 94.265625 128.734375 94.523438 128.476562 94.652344 127.960938 C 94.910156 127.1875 95.167969 126.414062 95.554688 125.769531 C 95.8125 125.382812 95.8125 124.867188 95.554688 124.480469 L 94.136719 122.289062 L 95.8125 120.613281 L 98.003906 122.03125 C 98.390625 122.289062 98.90625 122.289062 99.292969 122.03125 C 100.066406 121.644531 100.710938 121.386719 101.480469 121.128906 C 101.996094 121 102.253906 120.613281 102.382812 120.226562 L 102.898438 117.78125 L 105.21875 117.78125 L 105.734375 120.226562 C 105.863281 120.742188 106.25 121 106.636719 121.128906 C 107.410156 121.386719 108.183594 121.644531 108.828125 122.03125 C 109.214844 122.289062 109.730469 122.289062 110.117188 122.03125 L 112.308594 120.613281 L 113.980469 122.289062 L 112.566406 124.480469 C 112.308594 124.867188 112.308594 125.382812 112.566406 125.769531 C 112.953125 126.542969 113.210938 127.1875 113.46875 127.960938 C 113.597656 128.476562 113.980469 128.734375 114.367188 128.863281 L 116.816406 129.378906 Z M 116.816406 131.695312 " fill-opacity="1" fill-rule="nonzero"/><path fill="#00c80e" d="M 103.929688 123.964844 C 100.324219 123.964844 97.359375 126.929688 97.359375 130.539062 C 97.359375 134.144531 100.324219 137.109375 103.929688 137.109375 C 107.539062 137.109375 110.503906 134.144531 110.503906 130.539062 C 110.503906 126.929688 107.539062 123.964844 103.929688 123.964844 Z M 103.929688 134.53125 C 101.738281 134.53125 99.9375 132.726562 99.9375 130.539062 C 99.9375 128.347656 101.738281 126.542969 103.929688 126.542969 C 106.121094 126.542969 107.925781 128.347656 107.925781 130.539062 C 107.925781 132.726562 106.121094 134.53125 103.929688 134.53125 Z M 103.929688 134.53125 " fill-opacity="1" fill-rule="nonzero"/><path fill="#00c80e" d="M 130.347656 125.769531 L 183.3125 125.769531 C 184.085938 125.769531 184.601562 125.253906 184.601562 124.480469 L 184.601562 112.496094 C 184.601562 111.722656 184.085938 111.207031 183.3125 111.207031 L 130.347656 111.207031 C 129.574219 111.207031 129.058594 111.722656 129.058594 112.496094 L 129.058594 124.480469 C 129.058594 125.125 129.703125 125.769531 130.347656 125.769531 Z M 131.636719 113.785156 L 182.023438 113.785156 L 182.023438 123.191406 L 131.636719 123.191406 Z M 131.636719 113.785156 " fill-opacity="1" fill-rule="nonzero"/><path fill="#00c80e" d="M 31.507812 51.027344 L 36.40625 51.027344 C 37.179688 51.027344 37.695312 50.511719 37.695312 49.738281 C 37.695312 48.964844 37.179688 48.449219 36.40625 48.449219 L 31.507812 48.449219 C 30.734375 48.449219 30.21875 48.964844 30.21875 49.738281 C 30.21875 50.511719 30.863281 51.027344 31.507812 51.027344 Z M 31.507812 51.027344 " fill-opacity="1" fill-rule="nonzero"/><path fill="#00c80e" d="M 40.785156 51.027344 L 48.132812 51.027344 C 48.90625 51.027344 49.421875 50.511719 49.421875 49.738281 C 49.421875 48.964844 48.90625 48.449219 48.132812 48.449219 L 40.785156 48.449219 C 40.011719 48.449219 39.496094 48.964844 39.496094 49.738281 C 39.496094 50.511719 40.011719 51.027344 40.785156 51.027344 Z M 40.785156 51.027344 " fill-opacity="1" fill-rule="nonzero"/><path fill="#00c80e" d="M 31.507812 56.566406 L 36.40625 56.566406 C 37.179688 56.566406 37.695312 56.050781 37.695312 55.277344 C 37.695312 54.507812 37.179688 53.992188 36.40625 53.992188 L 31.507812 53.992188 C 30.734375 53.992188 30.21875 54.507812 30.21875 55.277344 C 30.21875 55.921875 30.863281 56.566406 31.507812 56.566406 Z M 31.507812 56.566406 " fill-opacity="1" fill-rule="nonzero"/><path fill="#00c80e" d="M 40.785156 56.566406 L 48.132812 56.566406 C 48.90625 56.566406 49.421875 56.050781 49.421875 55.277344 C 49.421875 54.507812 48.90625 53.992188 48.132812 53.992188 L 40.785156 53.992188 C 40.011719 53.992188 39.496094 54.507812 39.496094 55.277344 C 39.496094 55.921875 40.011719 56.566406 40.785156 56.566406 Z M 40.785156 56.566406 " fill-opacity="1" fill-rule="nonzero"/><path fill="#00c80e" d="M 43.878906 61.851562 C 43.878906 62.625 44.394531 63.140625 45.167969 63.140625 L 61.792969 63.140625 C 62.566406 63.140625 63.082031 62.625 63.082031 61.851562 C 63.082031 61.078125 62.566406 60.5625 61.792969 60.5625 L 45.167969 60.5625 C 44.394531 60.5625 43.878906 61.207031 43.878906 61.851562 Z M 43.878906 61.851562 " fill-opacity="1" fill-rule="nonzero"/><path fill="#00c80e" d="M 66.300781 63.140625 L 82.925781 63.140625 C 83.699219 63.140625 84.214844 62.625 84.214844 61.851562 C 84.214844 61.078125 83.699219 60.5625 82.925781 60.5625 L 66.300781 60.5625 C 65.527344 60.5625 65.011719 61.078125 65.011719 61.851562 C 65.011719 62.625 65.65625 63.140625 66.300781 63.140625 Z M 66.300781 63.140625 " fill-opacity="1" fill-rule="nonzero"/><path fill="#00c80e" d="M 87.566406 63.140625 L 104.1875 63.140625 C 104.960938 63.140625 105.476562 62.625 105.476562 61.851562 C 105.476562 61.078125 104.960938 60.5625 104.1875 60.5625 L 87.566406 60.5625 C 86.792969 60.5625 86.277344 61.078125 86.277344 61.851562 C 86.277344 62.625 86.792969 63.140625 87.566406 63.140625 Z M 87.566406 63.140625 " fill-opacity="1" fill-rule="nonzero"/><path fill="#00c80e" d="M 61.664062 66.75 L 45.167969 66.75 C 44.394531 66.75 43.878906 67.265625 43.878906 68.035156 C 43.878906 68.808594 44.394531 69.324219 45.167969 69.324219 L 61.792969 69.324219 C 62.566406 69.324219 63.082031 68.808594 63.082031 68.035156 C 63.082031 67.265625 62.4375 66.75 61.664062 66.75 Z M 61.664062 66.75 " fill-opacity="1" fill-rule="nonzero"/><path fill="#00c80e" d="M 66.300781 69.324219 L 82.925781 69.324219 C 83.699219 69.324219 84.214844 68.808594 84.214844 68.035156 C 84.214844 67.265625 83.699219 66.75 82.925781 66.75 L 66.300781 66.75 C 65.527344 66.75 65.011719 67.265625 65.011719 68.035156 C 65.011719 68.808594 65.65625 69.324219 66.300781 69.324219 Z M 66.300781 69.324219 " fill-opacity="1" fill-rule="nonzero"/><path fill="#00c80e" d="M 87.566406 69.324219 L 104.1875 69.324219 C 104.960938 69.324219 105.476562 68.808594 105.476562 68.035156 C 105.476562 67.265625 104.960938 66.75 104.1875 66.75 L 87.566406 66.75 C 86.792969 66.75 86.277344 67.265625 86.277344 68.035156 C 86.277344 68.808594 86.792969 69.324219 87.566406 69.324219 Z M 87.566406 69.324219 " fill-opacity="1" fill-rule="nonzero"/><path fill="#00c80e" d="M 61.664062 72.933594 L 45.167969 72.933594 C 44.394531 72.933594 43.878906 73.449219 43.878906 74.222656 C 43.878906 74.996094 44.394531 75.511719 45.167969 75.511719 L 61.792969 75.511719 C 62.566406 75.511719 63.082031 74.996094 63.082031 74.222656 C 62.953125 73.578125 62.4375 72.933594 61.664062 72.933594 Z M 61.664062 72.933594 " fill-opacity="1" fill-rule="nonzero"/><path fill="#00c80e" d="M 84.214844 74.222656 C 84.214844 73.449219 83.699219 72.933594 82.925781 72.933594 L 66.300781 72.933594 C 65.527344 72.933594 65.011719 73.449219 65.011719 74.222656 C 65.011719 74.996094 65.527344 75.511719 66.300781 75.511719 L 82.925781 75.511719 C 83.570312 75.511719 84.214844 74.996094 84.214844 74.222656 Z M 84.214844 74.222656 " fill-opacity="1" fill-rule="nonzero"/><path fill="#00c80e" d="M 87.566406 75.511719 L 104.1875 75.511719 C 104.960938 75.511719 105.476562 74.996094 105.476562 74.222656 C 105.476562 73.449219 104.960938 72.933594 104.1875 72.933594 L 87.566406 72.933594 C 86.792969 72.933594 86.277344 73.449219 86.277344 74.222656 C 86.277344 74.996094 86.792969 75.511719 87.566406 75.511719 Z M 87.566406 75.511719 " fill-opacity="1" fill-rule="nonzero"/><path fill="#00c80e" d="M 117.71875 171.257812 L 85.890625 171.257812 C 85.117188 171.257812 84.601562 171.773438 84.601562 172.546875 C 84.601562 173.320312 85.117188 173.835938 85.890625 173.835938 L 117.71875 173.835938 C 118.492188 173.835938 119.007812 173.320312 119.007812 172.546875 C 119.007812 171.773438 118.363281 171.257812 117.71875 171.257812 Z M 117.71875 171.257812 " fill-opacity="1" fill-rule="nonzero"/><path fill="#00c80e" d="M 100.324219 176.414062 L 85.890625 176.414062 C 85.117188 176.414062 84.601562 176.929688 84.601562 177.703125 C 84.601562 178.476562 85.117188 178.992188 85.890625 178.992188 L 100.324219 178.992188 C 101.09375 178.992188 101.609375 178.476562 101.609375 177.703125 C 101.609375 176.929688 100.96875 176.414062 100.324219 176.414062 Z M 100.324219 176.414062 " fill-opacity="1" fill-rule="nonzero"/><path fill="#00c80e" d="M 136.792969 176.414062 L 122.488281 176.414062 C 121.714844 176.414062 121.199219 176.929688 121.199219 177.703125 C 121.199219 178.476562 121.714844 178.992188 122.488281 178.992188 L 136.921875 178.992188 C 137.695312 178.992188 138.210938 178.476562 138.210938 177.703125 C 138.082031 176.929688 137.566406 176.414062 136.792969 176.414062 Z M 136.792969 176.414062 " fill-opacity="1" fill-rule="nonzero"/><path fill="#00c80e" d="M 190.914062 171.257812 L 159.085938 171.257812 C 158.3125 171.257812 157.796875 171.773438 157.796875 172.546875 C 157.796875 173.320312 158.3125 173.835938 159.085938 173.835938 L 190.914062 173.835938 C 191.6875 173.835938 192.203125 173.320312 192.203125 172.546875 C 192.203125 171.773438 191.558594 171.257812 190.914062 171.257812 Z M 190.914062 171.257812 " fill-opacity="1" fill-rule="nonzero"/><path fill="#00c80e" d="M 173.390625 176.414062 L 158.957031 176.414062 C 158.183594 176.414062 157.667969 176.929688 157.667969 177.703125 C 157.667969 178.476562 158.183594 178.992188 158.957031 178.992188 L 173.390625 178.992188 C 174.164062 178.992188 174.679688 178.476562 174.679688 177.703125 C 174.679688 176.929688 174.164062 176.414062 173.390625 176.414062 Z M 173.390625 176.414062 " fill-opacity="1" fill-rule="nonzero"/><path fill="#00c80e" d="M 154.316406 171.257812 L 122.488281 171.257812 C 121.714844 171.257812 121.199219 171.773438 121.199219 172.546875 C 121.199219 173.320312 121.714844 173.835938 122.488281 173.835938 L 154.316406 173.835938 C 155.089844 173.835938 155.605469 173.320312 155.605469 172.546875 C 155.605469 171.773438 154.960938 171.257812 154.316406 171.257812 Z M 154.316406 171.257812 " fill-opacity="1" fill-rule="nonzero"/><path fill="#00c80e" d="M 130.347656 133.5 L 171.84375 133.5 C 172.617188 133.5 173.132812 132.984375 173.132812 132.210938 C 173.132812 131.4375 172.617188 130.925781 171.84375 130.925781 L 130.347656 130.925781 C 129.574219 130.925781 129.058594 131.4375 129.058594 132.210938 C 129.058594 132.855469 129.703125 133.5 130.347656 133.5 Z M 130.347656 133.5 " fill-opacity="1" fill-rule="nonzero"/><path fill="#00c80e" d="M 154.703125 138.65625 L 130.347656 138.65625 C 129.574219 138.65625 129.058594 139.171875 129.058594 139.945312 C 129.058594 140.71875 129.574219 141.234375 130.347656 141.234375 L 154.574219 141.234375 C 155.347656 141.234375 155.863281 140.71875 155.863281 139.945312 C 155.992188 139.171875 155.347656 138.65625 154.703125 138.65625 Z M 154.703125 138.65625 " fill-opacity="1" fill-rule="nonzero"/></svg>