<svg xmlns="http://www.w3.org/2000/svg" xmlns:xlink="http://www.w3.org/1999/xlink" width="1000" zoomAndPan="magnify" viewBox="0 0 750 374.999991" height="500" preserveAspectRatio="xMidYMid meet" version="1.0"><defs><filter x="0%" y="0%" width="100%" height="100%" id="3369cab856"><feColorMatrix values="0 0 0 0 1 0 0 0 0 1 0 0 0 0 1 0 0 0 1 0" color-interpolation-filters="sRGB"/></filter><mask id="f9c60a9c51"><g filter="url(#3369cab856)"><rect x="-75" width="900" fill="#000000" y="-37.499999" height="449.999989" fill-opacity="0.42"/></g></mask><clipPath id="07f9149ce5"><path d="M 0 0 L 750 0 L 750 259 L 0 259 Z M 0 0 " clip-rule="nonzero"/></clipPath><clipPath id="789aef4843"><rect x="0" width="750" y="0" height="260"/></clipPath><mask id="9e0aa69c5c"><g filter="url(#3369cab856)"><rect x="-75" width="900" fill="#000000" y="-37.499999" height="449.999989" fill-opacity="0.42"/></g></mask><clipPath id="6e372de178"><path d="M 0 0 L 671 0 L 671 213 L 0 213 Z M 0 0 " clip-rule="nonzero"/></clipPath><clipPath id="9acc33092d"><rect x="0" width="672" y="0" height="214"/></clipPath></defs><path fill="#3b0a0a" d="M 835.050781 299.019531 C 533.644531 476.789062 247.507812 214.304688 155.867188 144.832031 C 64.222656 75.359375 -6.023438 51.808594 -6.023438 51.808594 L -6.023438 0 L 835.050781 0 Z M 835.050781 299.019531 " fill-opacity="1" fill-rule="nonzero"/><path fill="#fdaeae" d="M 541.28125 0 C 541.28125 145.472656 341.003906 169.054688 217.296875 169.054688 C 93.59375 169.054688 -6.023438 370.8125 -6.023438 389.957031 L -6.023438 0 Z M 541.28125 0 " fill-opacity="1" fill-rule="nonzero"/><g mask="url(#f9c60a9c51)"><g transform="matrix(1, 0, 0, 1, 0, 0)"><g clip-path="url(#789aef4843)"><g clip-path="url(#07f9149ce5)"><path fill="#c4391d" d="M 835.050781 212.726562 C 706.601562 61.734375 598.339844 245.460938 453.035156 258.277344 C 307.765625 271.09375 -6.023438 93.058594 -6.023438 93.058594 L -6.023438 0 L 835.050781 0 Z M 835.050781 212.726562 " fill-opacity="1" fill-rule="nonzero"/></g></g></g></g><g mask="url(#9e0aa69c5c)"><g transform="matrix(1, 0, 0, 1, 0, 0)"><g clip-path="url(#9acc33092d)"><g clip-path="url(#6e372de178)"><path fill="#c4391d" d="M 656.136719 0 C 656.136719 0 709.160156 120.746094 611.964844 194.960938 C 514.769531 269.179688 257.0625 86.5625 165.757812 91.003906 C 74.449219 95.410156 -6.023438 212.726562 -6.023438 212.726562 L -6.023438 0 Z M 656.136719 0 " fill-opacity="1" fill-rule="nonzero"/></g></g></g></g></svg>