<svg xmlns="http://www.w3.org/2000/svg" xmlns:xlink="http://www.w3.org/1999/xlink" width="1000" zoomAndPan="magnify" viewBox="0 0 750 374.999991" height="500" preserveAspectRatio="xMidYMid meet" version="1.0"><defs><filter x="0%" y="0%" width="100%" height="100%" id="b9631da298"><feColorMatrix values="0 0 0 0 1 0 0 0 0 1 0 0 0 0 1 0 0 0 1 0" color-interpolation-filters="sRGB"/></filter><mask id="4650abfc88"><g filter="url(#b9631da298)"><rect x="-75" width="900" fill="#000000" y="-37.499999" height="449.999989" fill-opacity="0.42"/></g></mask><clipPath id="bab40ea93a"><path d="M 0 0 L 750 0 L 750 259 L 0 259 Z M 0 0 " clip-rule="nonzero"/></clipPath><clipPath id="6fedd26a02"><rect x="0" width="750" y="0" height="260"/></clipPath><mask id="f5b9c930a0"><g filter="url(#b9631da298)"><rect x="-75" width="900" fill="#000000" y="-37.499999" height="449.999989" fill-opacity="0.42"/></g></mask><clipPath id="dbca1388a9"><rect x="0" width="678" y="0" height="214"/></clipPath></defs><path fill="#3b0a0a" d="M 841.140625 299.019531 C 539.734375 476.789062 253.597656 214.304688 161.957031 144.832031 C 70.3125 75.359375 0.0664062 51.808594 0.0664062 51.808594 L 0.0664062 0 L 841.140625 0 Z M 841.140625 299.019531 " fill-opacity="1" fill-rule="nonzero"/><path fill="#ff3131" d="M 547.371094 0 C 547.371094 145.472656 347.09375 169.054688 223.386719 169.054688 C 99.683594 169.054688 0.0664062 370.8125 0.0664062 389.957031 L 0.0664062 0 Z M 547.371094 0 " fill-opacity="1" fill-rule="nonzero"/><g mask="url(#4650abfc88)"><g transform="matrix(1, 0, 0, 1, 0, 0)"><g clip-path="url(#6fedd26a02)"><g clip-path="url(#bab40ea93a)"><path fill="#000000" d="M 841.140625 212.726562 C 712.691406 61.734375 604.429688 245.460938 459.125 258.277344 C 313.855469 271.09375 0.0664062 93.058594 0.0664062 93.058594 L 0.0664062 0 L 841.140625 0 Z M 841.140625 212.726562 " fill-opacity="1" fill-rule="nonzero"/></g></g></g></g><g mask="url(#f5b9c930a0)"><g transform="matrix(1, 0, 0, 1, 0, 0)"><g clip-path="url(#dbca1388a9)"><path fill="#000000" d="M 662.226562 0 C 662.226562 0 715.25 120.746094 618.054688 194.960938 C 520.859375 269.179688 263.152344 86.5625 171.847656 91.003906 C 80.539062 95.410156 0.0664062 212.726562 0.0664062 212.726562 L 0.0664062 0 Z M 662.226562 0 " fill-opacity="1" fill-rule="nonzero"/></g></g></g></svg>