<svg xmlns="http://www.w3.org/2000/svg" xmlns:xlink="http://www.w3.org/1999/xlink" width="1000" zoomAndPan="magnify" viewBox="0 0 750 525.000007" height="700" preserveAspectRatio="xMidYMid meet" version="1.0"><defs><clipPath id="91682a818b"><path d="M 0.714844 0 L 749.285156 0 L 749.285156 476 L 0.714844 476 Z M 0.714844 0 " clip-rule="nonzero"/></clipPath><clipPath id="49e29e6be7"><path d="M 485 0 L 749.285156 0 L 749.285156 361 L 485 361 Z M 485 0 " clip-rule="nonzero"/></clipPath><clipPath id="a54bda6aed"><path d="M 0.714844 293 L 350 293 L 350 433 L 0.714844 433 Z M 0.714844 293 " clip-rule="nonzero"/></clipPath></defs><g clip-path="url(#91682a818b)"><path fill="#ff9696" d="M -41.0625 318.089844 C -52.300781 296.074219 -57.34375 279.710938 -57.34375 279.710938 L -171.175781 -89.007812 L 496.941406 -115.121094 L 858.207031 -95.535156 L 931.027344 218.746094 C 931.027344 218.746094 945.515625 345.769531 798.402344 403.394531 C 651.292969 461.015625 645.75 493.648438 571.09375 465.792969 C 496.441406 437.9375 468.582031 351.023438 353.816406 366.625 L 348.757812 367.347656 L 349.367188 364.496094 C 349.367188 364.496094 279.148438 351.121094 216.730469 365.609375 C 154.316406 380.097656 148.742188 370.066406 116.421875 331.058594 C 84.097656 292.050781 -44.074219 293.164062 -44.074219 293.164062 Z M -41.0625 318.089844 " fill-opacity="1" fill-rule="evenodd"/></g><path fill="#ff3131" d="M 256.855469 198.984375 C 256.855469 200.972656 256.757812 202.957031 256.5625 204.9375 C 256.371094 206.917969 256.078125 208.882812 255.691406 210.835938 C 255.300781 212.785156 254.820312 214.714844 254.242188 216.617188 C 253.664062 218.519531 252.996094 220.390625 252.234375 222.230469 C 251.472656 224.066406 250.621094 225.863281 249.683594 227.617188 C 248.746094 229.371094 247.726562 231.078125 246.621094 232.730469 C 245.515625 234.386719 244.332031 235.980469 243.070312 237.519531 C 241.804688 239.058594 240.472656 240.53125 239.066406 241.9375 C 237.660156 243.34375 236.1875 244.675781 234.648438 245.941406 C 233.109375 247.203125 231.515625 248.386719 229.859375 249.492188 C 228.207031 250.597656 226.5 251.617188 224.746094 252.554688 C 222.992188 253.492188 221.195312 254.34375 219.359375 255.105469 C 217.519531 255.867188 215.648438 256.535156 213.746094 257.113281 C 211.84375 257.691406 209.914062 258.171875 207.964844 258.5625 C 206.011719 258.949219 204.046875 259.242188 202.066406 259.433594 C 200.085938 259.628906 198.101562 259.726562 196.113281 259.726562 C 194.125 259.726562 192.140625 259.628906 190.160156 259.433594 C 188.179688 259.242188 186.214844 258.949219 184.261719 258.5625 C 182.3125 258.171875 180.382812 257.691406 178.480469 257.113281 C 176.574219 256.535156 174.707031 255.867188 172.867188 255.105469 C 171.027344 254.34375 169.234375 253.492188 167.476562 252.554688 C 165.722656 251.617188 164.019531 250.597656 162.367188 249.492188 C 160.710938 248.386719 159.117188 247.203125 157.578125 245.941406 C 156.039062 244.675781 154.566406 243.34375 153.160156 241.9375 C 151.753906 240.53125 150.417969 239.058594 149.15625 237.519531 C 147.894531 235.980469 146.710938 234.386719 145.605469 232.730469 C 144.5 231.078125 143.480469 229.371094 142.542969 227.617188 C 141.605469 225.863281 140.753906 224.066406 139.992188 222.230469 C 139.230469 220.390625 138.5625 218.519531 137.984375 216.617188 C 137.40625 214.714844 136.925781 212.785156 136.535156 210.835938 C 136.148438 208.882812 135.855469 206.917969 135.660156 204.9375 C 135.464844 202.957031 135.371094 200.972656 135.367188 198.984375 C 135.371094 196.996094 135.464844 195.011719 135.660156 193.03125 C 135.855469 191.050781 136.148438 189.085938 136.535156 187.132812 C 136.925781 185.183594 137.40625 183.253906 137.984375 181.351562 C 138.5625 179.449219 139.230469 177.578125 139.992188 175.738281 C 140.753906 173.902344 141.605469 172.105469 142.542969 170.351562 C 143.480469 168.59375 144.5 166.890625 145.605469 165.238281 C 146.710938 163.582031 147.894531 161.988281 149.15625 160.449219 C 150.417969 158.910156 151.753906 157.4375 153.160156 156.03125 C 154.566406 154.625 156.039062 153.289062 157.578125 152.027344 C 159.117188 150.765625 160.710938 149.582031 162.367188 148.476562 C 164.019531 147.371094 165.722656 146.351562 167.476562 145.414062 C 169.234375 144.476562 171.027344 143.625 172.867188 142.863281 C 174.707031 142.101562 176.574219 141.433594 178.480469 140.855469 C 180.382812 140.277344 182.3125 139.796875 184.261719 139.40625 C 186.214844 139.019531 188.179688 138.726562 190.160156 138.53125 C 192.140625 138.335938 194.125 138.242188 196.113281 138.242188 C 198.101562 138.242188 200.085938 138.335938 202.066406 138.53125 C 204.046875 138.726562 206.011719 139.019531 207.964844 139.40625 C 209.914062 139.796875 211.84375 140.277344 213.746094 140.855469 C 215.648438 141.433594 217.519531 142.101562 219.359375 142.863281 C 221.195312 143.625 222.992188 144.476562 224.746094 145.414062 C 226.5 146.351562 228.207031 147.371094 229.859375 148.476562 C 231.515625 149.582031 233.109375 150.765625 234.648438 152.027344 C 236.1875 153.289062 237.660156 154.625 239.066406 156.03125 C 240.472656 157.4375 241.804688 158.910156 243.070312 160.449219 C 244.332031 161.988281 245.515625 163.582031 246.621094 165.238281 C 247.726562 166.890625 248.746094 168.59375 249.683594 170.351562 C 250.621094 172.105469 251.472656 173.902344 252.234375 175.738281 C 252.996094 177.578125 253.664062 179.449219 254.242188 181.351562 C 254.820312 183.253906 255.300781 185.183594 255.691406 187.132812 C 256.078125 189.085938 256.371094 191.050781 256.5625 193.03125 C 256.757812 195.011719 256.855469 196.996094 256.855469 198.984375 Z M 256.855469 198.984375 " fill-opacity="0.5" fill-rule="nonzero"/><g clip-path="url(#49e29e6be7)"><path fill="#fa836e" d="M 585.171875 -85.996094 C 585.171875 -85.996094 445.914062 -81.546875 496.089844 44.742188 C 546.265625 171.035156 562.628906 109.761719 599.523438 230.089844 C 636.421875 350.410156 736.800781 382.757812 835.6875 347.394531 C 934.574219 312.035156 924.472656 146.296875 924.472656 146.296875 L 796.101562 -122.070312 Z M 585.171875 -85.996094 " fill-opacity="0.5" fill-rule="evenodd"/></g><g clip-path="url(#a54bda6aed)"><path fill="#ff8585" d="M -41.0625 318.089844 L -44.074219 293.164062 C -44.074219 293.164062 84.097656 292.050781 116.421875 331.058594 C 148.742188 370.066406 154.316406 380.097656 216.730469 365.609375 C 279.148438 351.121094 349.367188 364.496094 349.367188 364.496094 L 348.757812 367.347656 C 238.855469 383.835938 231.648438 436.753906 110.90625 432.363281 C 29.070312 429.386719 -18.492188 362.332031 -41.0625 318.089844 Z M -41.0625 318.089844 " fill-opacity="1" fill-rule="evenodd"/></g></svg>