<svg xmlns="http://www.w3.org/2000/svg" xmlns:xlink="http://www.w3.org/1999/xlink" width="1000" zoomAndPan="magnify" viewBox="0 0 750 525.000007" height="700" preserveAspectRatio="xMidYMid meet" version="1.0"><defs><clipPath id="23cc340500"><path d="M 0.714844 0 L 749.285156 0 L 749.285156 524 L 0.714844 524 Z M 0.714844 0 " clip-rule="nonzero"/></clipPath><clipPath id="7265a77ffe"><path d="M 0.714844 0 L 749.285156 0 L 749.285156 477 L 0.714844 477 Z M 0.714844 0 " clip-rule="nonzero"/></clipPath><clipPath id="e62a27ebf6"><path d="M 485 0 L 749.285156 0 L 749.285156 362 L 485 362 Z M 485 0 " clip-rule="nonzero"/></clipPath><clipPath id="c7503710ca"><path d="M 0.714844 294 L 350 294 L 350 434 L 0.714844 434 Z M 0.714844 294 " clip-rule="nonzero"/></clipPath></defs><g clip-path="url(#23cc340500)"><path fill="#ffffff" d="M 0.714844 0 L 749.285156 0 L 749.285156 524 L 0.714844 524 Z M 0.714844 0 " fill-opacity="1" fill-rule="nonzero"/><path fill="#ffffff" d="M 0.714844 0 L 749.285156 0 L 749.285156 524 L 0.714844 524 Z M 0.714844 0 " fill-opacity="1" fill-rule="nonzero"/></g><g clip-path="url(#7265a77ffe)"><path fill="#e61417" d="M -41.0625 319.167969 C -52.300781 297.15625 -57.34375 280.792969 -57.34375 280.792969 L -171.175781 -87.925781 L 496.941406 -114.039062 L 858.207031 -94.453125 L 931.027344 219.828125 C 931.027344 219.828125 945.515625 346.851562 798.402344 404.472656 C 651.292969 462.097656 645.75 494.730469 571.09375 466.875 C 496.441406 439.015625 468.582031 352.105469 353.816406 367.703125 L 348.757812 368.429688 L 349.367188 365.578125 C 349.367188 365.578125 279.148438 352.203125 216.730469 366.691406 C 154.316406 381.179688 148.742188 371.148438 116.421875 332.140625 C 84.097656 293.128906 -44.074219 294.242188 -44.074219 294.242188 Z M -41.0625 319.167969 " fill-opacity="1" fill-rule="evenodd"/></g><path fill="#7f0000" d="M 256.855469 200.066406 C 256.855469 202.054688 256.757812 204.039062 256.5625 206.019531 C 256.371094 208 256.078125 209.964844 255.691406 211.914062 C 255.300781 213.867188 254.820312 215.792969 254.242188 217.699219 C 253.664062 219.601562 252.996094 221.472656 252.234375 223.3125 C 251.472656 225.148438 250.621094 226.945312 249.683594 228.699219 C 248.746094 230.453125 247.726562 232.160156 246.621094 233.8125 C 245.515625 235.464844 244.332031 237.0625 243.070312 238.601562 C 241.804688 240.136719 240.472656 241.609375 239.066406 243.015625 C 237.660156 244.425781 236.1875 245.757812 234.648438 247.019531 C 233.109375 248.28125 231.515625 249.464844 229.859375 250.570312 C 228.207031 251.675781 226.5 252.699219 224.746094 253.636719 C 222.992188 254.574219 221.195312 255.421875 219.359375 256.183594 C 217.519531 256.945312 215.648438 257.617188 213.746094 258.191406 C 211.84375 258.769531 209.914062 259.253906 207.964844 259.640625 C 206.011719 260.03125 204.046875 260.320312 202.066406 260.515625 C 200.085938 260.710938 198.101562 260.808594 196.113281 260.808594 C 194.125 260.808594 192.140625 260.710938 190.160156 260.515625 C 188.179688 260.320312 186.214844 260.03125 184.261719 259.640625 C 182.3125 259.253906 180.382812 258.769531 178.480469 258.191406 C 176.574219 257.617188 174.707031 256.945312 172.867188 256.183594 C 171.027344 255.421875 169.234375 254.574219 167.476562 253.636719 C 165.722656 252.699219 164.019531 251.675781 162.367188 250.570312 C 160.710938 249.464844 159.117188 248.28125 157.578125 247.019531 C 156.039062 245.757812 154.566406 244.425781 153.160156 243.015625 C 151.753906 241.609375 150.417969 240.136719 149.15625 238.601562 C 147.894531 237.0625 146.710938 235.464844 145.605469 233.8125 C 144.5 232.160156 143.480469 230.453125 142.542969 228.699219 C 141.605469 226.945312 140.753906 225.148438 139.992188 223.3125 C 139.230469 221.472656 138.5625 219.601562 137.984375 217.699219 C 137.40625 215.792969 136.925781 213.867188 136.535156 211.914062 C 136.148438 209.964844 135.855469 208 135.660156 206.019531 C 135.464844 204.039062 135.371094 202.054688 135.367188 200.066406 C 135.371094 198.074219 135.464844 196.089844 135.660156 194.109375 C 135.855469 192.132812 136.148438 190.164062 136.535156 188.214844 C 136.925781 186.261719 137.40625 184.335938 137.984375 182.433594 C 138.5625 180.527344 139.230469 178.65625 139.992188 176.820312 C 140.753906 174.980469 141.605469 173.183594 142.542969 171.429688 C 143.480469 169.675781 144.5 167.972656 145.605469 166.316406 C 146.710938 164.664062 147.894531 163.066406 149.15625 161.53125 C 150.417969 159.992188 151.753906 158.519531 153.160156 157.113281 C 154.566406 155.707031 156.039062 154.371094 157.578125 153.109375 C 159.117188 151.847656 160.710938 150.664062 162.367188 149.558594 C 164.019531 148.453125 165.722656 147.429688 167.476562 146.492188 C 169.234375 145.554688 171.027344 144.707031 172.867188 143.945312 C 174.707031 143.183594 176.574219 142.515625 178.480469 141.9375 C 180.382812 141.359375 182.3125 140.875 184.261719 140.488281 C 186.214844 140.101562 188.179688 139.808594 190.160156 139.613281 C 192.140625 139.417969 194.125 139.320312 196.113281 139.320312 C 198.101562 139.320312 200.085938 139.417969 202.066406 139.613281 C 204.046875 139.808594 206.011719 140.101562 207.964844 140.488281 C 209.914062 140.875 211.84375 141.359375 213.746094 141.9375 C 215.648438 142.515625 217.519531 143.183594 219.359375 143.945312 C 221.195312 144.707031 222.992188 145.554688 224.746094 146.492188 C 226.5 147.429688 228.207031 148.453125 229.859375 149.558594 C 231.515625 150.664062 233.109375 151.847656 234.648438 153.109375 C 236.1875 154.371094 237.660156 155.707031 239.066406 157.113281 C 240.472656 158.519531 241.804688 159.992188 243.070312 161.53125 C 244.332031 163.066406 245.515625 164.664062 246.621094 166.316406 C 247.726562 167.972656 248.746094 169.675781 249.683594 171.429688 C 250.621094 173.183594 251.472656 174.980469 252.234375 176.820312 C 252.996094 178.65625 253.664062 180.527344 254.242188 182.433594 C 254.820312 184.335938 255.300781 186.261719 255.691406 188.214844 C 256.078125 190.164062 256.371094 192.132812 256.5625 194.109375 C 256.757812 196.089844 256.855469 198.074219 256.855469 200.066406 Z M 256.855469 200.066406 " fill-opacity="0.5" fill-rule="nonzero"/><g clip-path="url(#e62a27ebf6)"><path fill="#740002" d="M 585.171875 -84.914062 C 585.171875 -84.914062 445.914062 -80.46875 496.089844 45.824219 C 546.265625 172.117188 562.628906 110.84375 599.523438 231.167969 C 636.421875 351.492188 736.800781 383.835938 835.6875 348.476562 C 934.574219 313.117188 924.472656 147.375 924.472656 147.375 L 796.101562 -120.992188 Z M 585.171875 -84.914062 " fill-opacity="0.5" fill-rule="evenodd"/></g><g clip-path="url(#c7503710ca)"><path fill="#ff5555" d="M -41.0625 319.167969 L -44.074219 294.242188 C -44.074219 294.242188 84.097656 293.128906 116.421875 332.140625 C 148.742188 371.148438 154.316406 381.179688 216.730469 366.691406 C 279.148438 352.203125 349.367188 365.578125 349.367188 365.578125 L 348.757812 368.429688 C 238.855469 384.917969 231.648438 437.835938 110.90625 433.445312 C 29.070312 430.46875 -18.492188 363.410156 -41.0625 319.167969 Z M -41.0625 319.167969 " fill-opacity="1" fill-rule="evenodd"/></g></svg>